  0
SECTION
  2
HEADER
  9
$ANGBASE
  50
0.0
  9
$ANGDIR
  70
1
  9
$MEASUREMENT
  70
1
  0
ENDSEC
  0
SECTION
  2
TABLES
  0
TABLE
  2
LTYPE
  70
4
  0
LTYPE
  5
40F
  2
CONTINUOUS
  70
0
  3
Solid line
  72
65
  73
0
  40
0.0
  0
LTYPE
  5
410
  2
DASHDOT
 70
0
  3
Dash Dot ____ _ ____ _
 72
65
 73
4
 40
2.0
 49
1.25
 49
-0.25
 49
0.25
 49
-0.25
  0
LTYPE
  5
411
  2
DASHED
 70
0
  3
Dashed __ __ __ __ __
 72
65
 73
2
 40
0.75
 49
0.5
 49
-0.25
  0
LTYPE
  5
43B
  2
DOTTED
 70
0
  3
Dotted .  .  .  .
 72
65
 73
2
 40
0.2
 49
0.0
 49
-0.2
  0
ENDTAB
  0
TABLE
  2
STYLE
  70
4
  0
STYLE
  2
KICAD
  70
0
  40
0
  41
1
  42
1
  50
0
  71
0
  3
isocp.shx
  0
STYLE
  2
KICADB
  70
0
  40
0
  41
1
  42
1
  50
0
  71
0
  3
isocp.shx
  0
STYLE
  2
KICADI
  70
0
  40
0
  41
1
  42
1
  50
15
  71
0
  3
isocp.shx
  0
STYLE
  2
KICADBI
  70
0
  40
0
  41
1
  42
1
  50
15
  71
0
  3
isocp.shx
  0
ENDTAB
  0
TABLE
  2
LAYER
  70
1
  0
LAYER
  2
BLACK
  70
0
  62
7
  6
CONTINUOUS
  0
ENDTAB
  0
ENDSEC
  0
SECTION
  2
ENTITIES
0
CIRCLE
8
BLACK
10
211.9950000000000045
20
-76.4699999999999989
40
14.5
0
CIRCLE
8
BLACK
10
90.9949999999999903
20
-76.4699999999999989
40
14.5
0
LINE
8
BLACK
6
CONTINUOUS
10
92.7648190000000028
20
-114.0569039999999887
11
93.5743420000000015
21
-114.0569039999999887
0
LINE
8
BLACK
6
CONTINUOUS
10
93.5743420000000015
20
-114.0569039999999887
11
93.6695799999999963
21
-114.0092849999999913
0
LINE
8
BLACK
6
CONTINUOUS
10
93.6695799999999963
20
-114.0092849999999913
11
93.7171999999999912
21
-113.9616659999999939
0
LINE
8
BLACK
6
CONTINUOUS
10
93.7171999999999912
20
-113.9616659999999939
11
93.7648190000000028
21
-113.8664279999999991
0
LINE
8
BLACK
6
CONTINUOUS
10
93.7648190000000028
20
-113.8664279999999991
11
93.7648190000000028
21
-113.6759519999999952
0
LINE
8
BLACK
6
CONTINUOUS
10
93.7648190000000028
20
-113.6759519999999952
11
93.7171999999999912
21
-113.5807140000000004
0
LINE
8
BLACK
6
CONTINUOUS
10
93.7171999999999912
20
-113.5807140000000004
11
93.6695799999999963
21
-113.5330949999999888
0
LINE
8
BLACK
6
CONTINUOUS
10
93.6695799999999963
20
-113.5330949999999888
11
93.5743420000000015
21
-113.4854759999999914
0
LINE
8
BLACK
6
CONTINUOUS
10
93.5743420000000015
20
-113.4854759999999914
11
92.7648190000000028
21
-113.4854759999999914
0
LINE
8
BLACK
6
CONTINUOUS
10
92.8600569999999976
20
-113.0569039999999887
11
92.8124380000000002
21
-113.0092849999999913
0
LINE
8
BLACK
6
CONTINUOUS
10
92.8124380000000002
20
-113.0092849999999913
11
92.7648190000000028
21
-112.9140469999999965
0
LINE
8
BLACK
6
CONTINUOUS
10
92.7648190000000028
20
-112.9140469999999965
11
92.7648190000000028
21
-112.6759519999999952
0
LINE
8
BLACK
6
CONTINUOUS
10
92.7648190000000028
20
-112.6759519999999952
11
92.8124380000000002
21
-112.5807140000000004
0
LINE
8
BLACK
6
CONTINUOUS
10
92.8124380000000002
20
-112.5807140000000004
11
92.8600569999999976
21
-112.5330949999999888
0
LINE
8
BLACK
6
CONTINUOUS
10
92.8600569999999976
20
-112.5330949999999888
11
92.9552949999999925
21
-112.4854759999999914
0
LINE
8
BLACK
6
CONTINUOUS
10
92.9552949999999925
20
-112.4854759999999914
11
93.0505330000000015
21
-112.4854759999999914
0
LINE
8
BLACK
6
CONTINUOUS
10
93.0505330000000015
20
-112.4854759999999914
11
93.1933899999999937
21
-112.5330949999999888
0
LINE
8
BLACK
6
CONTINUOUS
10
93.1933899999999937
20
-112.5330949999999888
11
93.7648190000000028
21
-113.1045230000000004
0
LINE
8
BLACK
6
CONTINUOUS
10
93.7648190000000028
20
-113.1045230000000004
11
93.7648190000000028
21
-112.4854759999999914
0
LINE
8
BLACK
6
CONTINUOUS
10
163.3316669999999817
20
-136.2271999999999821
11
163.4745240000000024
21
-136.2748190000000079
0
LINE
8
BLACK
6
CONTINUOUS
10
163.4745240000000024
20
-136.2748190000000079
11
163.7126189999999895
21
-136.2748190000000079
0
LINE
8
BLACK
6
CONTINUOUS
10
163.7126189999999895
20
-136.2748190000000079
11
163.8078569999999843
21
-136.2271999999999821
0
LINE
8
BLACK
6
CONTINUOUS
10
163.8078569999999843
20
-136.2271999999999821
11
163.8554759999999817
21
-136.1795799999999872
0
LINE
8
BLACK
6
CONTINUOUS
10
163.8554759999999817
20
-136.1795799999999872
11
163.9030949999999791
21
-136.0843419999999924
0
LINE
8
BLACK
6
CONTINUOUS
10
163.9030949999999791
20
-136.0843419999999924
11
163.9030949999999791
21
-135.9891039999999975
0
LINE
8
BLACK
6
CONTINUOUS
10
163.9030949999999791
20
-135.9891039999999975
11
163.8554759999999817
21
-135.8938660000000027
0
LINE
8
BLACK
6
CONTINUOUS
10
163.8554759999999817
20
-135.8938660000000027
11
163.8078569999999843
21
-135.8462470000000053
0
LINE
8
BLACK
6
CONTINUOUS
10
163.8078569999999843
20
-135.8462470000000053
11
163.7126189999999895
21
-135.7986280000000079
0
LINE
8
BLACK
6
CONTINUOUS
10
163.7126189999999895
20
-135.7986280000000079
11
163.5221429999999998
21
-135.7510089999999821
0
LINE
8
BLACK
6
CONTINUOUS
10
163.5221429999999998
20
-135.7510089999999821
11
163.426905000000005
21
-135.7033899999999846
0
LINE
8
BLACK
6
CONTINUOUS
10
163.426905000000005
20
-135.7033899999999846
11
163.3792859999999791
21
-135.6557709999999872
0
LINE
8
BLACK
6
CONTINUOUS
10
163.3792859999999791
20
-135.6557709999999872
11
163.3316669999999817
21
-135.5605329999999924
0
LINE
8
BLACK
6
CONTINUOUS
10
163.3316669999999817
20
-135.5605329999999924
11
163.3316669999999817
21
-135.4652949999999976
0
LINE
8
BLACK
6
CONTINUOUS
10
163.3316669999999817
20
-135.4652949999999976
11
163.3792859999999791
21
-135.3700570000000027
0
LINE
8
BLACK
6
CONTINUOUS
10
163.3792859999999791
20
-135.3700570000000027
11
163.426905000000005
21
-135.3224380000000053
0
LINE
8
BLACK
6
CONTINUOUS
10
163.426905000000005
20
-135.3224380000000053
11
163.5221429999999998
21
-135.2748190000000079
0
LINE
8
BLACK
6
CONTINUOUS
10
163.5221429999999998
20
-135.2748190000000079
11
163.7602379999999869
21
-135.2748190000000079
0
LINE
8
BLACK
6
CONTINUOUS
10
163.7602379999999869
20
-135.2748190000000079
11
163.9030949999999791
21
-135.3224380000000053
0
LINE
8
BLACK
6
CONTINUOUS
10
164.2364289999999869
20
-135.2748190000000079
11
164.4745240000000024
21
-136.2748190000000079
0
LINE
8
BLACK
6
CONTINUOUS
10
164.4745240000000024
20
-136.2748190000000079
11
164.664999999999992
21
-135.5605329999999924
0
LINE
8
BLACK
6
CONTINUOUS
10
164.664999999999992
20
-135.5605329999999924
11
164.8554759999999817
21
-136.2748190000000079
0
LINE
8
BLACK
6
CONTINUOUS
10
164.8554759999999817
20
-136.2748190000000079
11
165.0935719999999947
21
-135.2748190000000079
0
LINE
8
BLACK
6
CONTINUOUS
10
165.3792859999999791
20
-135.2748190000000079
11
166.0459519999999998
21
-135.2748190000000079
0
LINE
8
BLACK
6
CONTINUOUS
10
166.0459519999999998
20
-135.2748190000000079
11
165.6173809999999946
21
-136.2748190000000079
0
LINE
8
BLACK
6
CONTINUOUS
10
119.5498189999999994
20
-80.8628569999999911
11
119.5498189999999994
21
-81.3390469999999937
0
LINE
8
BLACK
6
CONTINUOUS
10
119.5498189999999994
20
-81.3390469999999937
11
118.5498189999999994
21
-81.3390469999999937
0
LINE
8
BLACK
6
CONTINUOUS
10
119.5021999999999878
20
-80.5771419999999949
11
119.5498189999999994
21
-80.4342850000000027
0
LINE
8
BLACK
6
CONTINUOUS
10
119.5498189999999994
20
-80.4342850000000027
11
119.5498189999999994
21
-80.1961900000000014
0
LINE
8
BLACK
6
CONTINUOUS
10
119.5498189999999994
20
-80.1961900000000014
11
119.5021999999999878
21
-80.1009519999999924
0
LINE
8
BLACK
6
CONTINUOUS
10
119.5021999999999878
20
-80.1009519999999924
11
119.4545799999999929
21
-80.053332999999995
0
LINE
8
BLACK
6
CONTINUOUS
10
119.4545799999999929
20
-80.053332999999995
11
119.3593419999999981
21
-80.0057139999999976
0
LINE
8
BLACK
6
CONTINUOUS
10
119.3593419999999981
20
-80.0057139999999976
11
119.264103999999989
21
-80.0057139999999976
0
LINE
8
BLACK
6
CONTINUOUS
10
119.264103999999989
20
-80.0057139999999976
11
119.1688659999999942
21
-80.053332999999995
0
LINE
8
BLACK
6
CONTINUOUS
10
119.1688659999999942
20
-80.053332999999995
11
119.1212469999999968
21
-80.1009519999999924
0
LINE
8
BLACK
6
CONTINUOUS
10
119.1212469999999968
20
-80.1009519999999924
11
119.0736279999999994
21
-80.1961900000000014
0
LINE
8
BLACK
6
CONTINUOUS
10
119.0736279999999994
20
-80.1961900000000014
11
119.0260089999999877
21
-80.3866659999999911
0
LINE
8
BLACK
6
CONTINUOUS
10
119.0260089999999877
20
-80.3866659999999911
11
118.9783899999999903
21
-80.4819040000000001
0
LINE
8
BLACK
6
CONTINUOUS
10
118.9783899999999903
20
-80.4819040000000001
11
118.9307709999999929
21
-80.5295229999999975
0
LINE
8
BLACK
6
CONTINUOUS
10
118.9307709999999929
20
-80.5295229999999975
11
118.8355329999999981
21
-80.5771419999999949
0
LINE
8
BLACK
6
CONTINUOUS
10
118.8355329999999981
20
-80.5771419999999949
11
118.740294999999989
21
-80.5771419999999949
0
LINE
8
BLACK
6
CONTINUOUS
10
118.740294999999989
20
-80.5771419999999949
11
118.6450569999999942
21
-80.5295229999999975
0
LINE
8
BLACK
6
CONTINUOUS
10
118.6450569999999942
20
-80.5295229999999975
11
118.5974379999999968
21
-80.4819040000000001
0
LINE
8
BLACK
6
CONTINUOUS
10
118.5974379999999968
20
-80.4819040000000001
11
118.5498189999999994
21
-80.3866659999999911
0
LINE
8
BLACK
6
CONTINUOUS
10
118.5498189999999994
20
-80.3866659999999911
11
118.5498189999999994
21
-80.1485709999999898
0
LINE
8
BLACK
6
CONTINUOUS
10
118.5498189999999994
20
-80.1485709999999898
11
118.5974379999999968
21
-80.0057139999999976
0
LINE
8
BLACK
6
CONTINUOUS
10
118.6450569999999942
20
-79.6247609999999924
11
118.5974379999999968
21
-79.5771419999999949
0
LINE
8
BLACK
6
CONTINUOUS
10
118.5974379999999968
20
-79.5771419999999949
11
118.5498189999999994
21
-79.4819040000000001
0
LINE
8
BLACK
6
CONTINUOUS
10
118.5498189999999994
20
-79.4819040000000001
11
118.5498189999999994
21
-79.2438089999999988
0
LINE
8
BLACK
6
CONTINUOUS
10
118.5498189999999994
20
-79.2438089999999988
11
118.5974379999999968
21
-79.1485709999999898
0
LINE
8
BLACK
6
CONTINUOUS
10
118.5974379999999968
20
-79.1485709999999898
11
118.6450569999999942
21
-79.1009519999999924
0
LINE
8
BLACK
6
CONTINUOUS
10
118.6450569999999942
20
-79.1009519999999924
11
118.740294999999989
21
-79.053332999999995
0
LINE
8
BLACK
6
CONTINUOUS
10
118.740294999999989
20
-79.053332999999995
11
118.8355329999999981
21
-79.053332999999995
0
LINE
8
BLACK
6
CONTINUOUS
10
118.8355329999999981
20
-79.053332999999995
11
118.9783899999999903
21
-79.1009519999999924
0
LINE
8
BLACK
6
CONTINUOUS
10
118.9783899999999903
20
-79.1009519999999924
11
119.5498189999999994
21
-79.6723799999999898
0
LINE
8
BLACK
6
CONTINUOUS
10
119.5498189999999994
20
-79.6723799999999898
11
119.5498189999999994
21
-79.053332999999995
0
LINE
8
BLACK
6
CONTINUOUS
10
229.8416670000000011
20
-108.5771999999999906
11
229.9845239999999933
21
-108.624818999999988
0
LINE
8
BLACK
6
CONTINUOUS
10
229.9845239999999933
20
-108.624818999999988
11
230.2226189999999804
21
-108.624818999999988
0
LINE
8
BLACK
6
CONTINUOUS
10
230.2226189999999804
20
-108.624818999999988
11
230.3178570000000036
21
-108.5771999999999906
0
LINE
8
BLACK
6
CONTINUOUS
10
230.3178570000000036
20
-108.5771999999999906
11
230.365476000000001
21
-108.5295799999999957
0
LINE
8
BLACK
6
CONTINUOUS
10
230.365476000000001
20
-108.5295799999999957
11
230.4130949999999984
21
-108.4343420000000009
0
LINE
8
BLACK
6
CONTINUOUS
10
230.4130949999999984
20
-108.4343420000000009
11
230.4130949999999984
21
-108.3391039999999919
0
LINE
8
BLACK
6
CONTINUOUS
10
230.4130949999999984
20
-108.3391039999999919
11
230.365476000000001
21
-108.243865999999997
0
LINE
8
BLACK
6
CONTINUOUS
10
230.365476000000001
20
-108.243865999999997
11
230.3178570000000036
21
-108.1962469999999996
0
LINE
8
BLACK
6
CONTINUOUS
10
230.3178570000000036
20
-108.1962469999999996
11
230.2226189999999804
21
-108.1486280000000022
0
LINE
8
BLACK
6
CONTINUOUS
10
230.2226189999999804
20
-108.1486280000000022
11
230.0321429999999907
21
-108.1010089999999906
0
LINE
8
BLACK
6
CONTINUOUS
10
230.0321429999999907
20
-108.1010089999999906
11
229.9369049999999959
21
-108.0533899999999932
0
LINE
8
BLACK
6
CONTINUOUS
10
229.9369049999999959
20
-108.0533899999999932
11
229.8892859999999985
21
-108.0057709999999958
0
LINE
8
BLACK
6
CONTINUOUS
10
229.8892859999999985
20
-108.0057709999999958
11
229.8416670000000011
21
-107.9105330000000009
0
LINE
8
BLACK
6
CONTINUOUS
10
229.8416670000000011
20
-107.9105330000000009
11
229.8416670000000011
21
-107.8152949999999919
0
LINE
8
BLACK
6
CONTINUOUS
10
229.8416670000000011
20
-107.8152949999999919
11
229.8892859999999985
21
-107.7200569999999971
0
LINE
8
BLACK
6
CONTINUOUS
10
229.8892859999999985
20
-107.7200569999999971
11
229.9369049999999959
21
-107.6724379999999996
0
LINE
8
BLACK
6
CONTINUOUS
10
229.9369049999999959
20
-107.6724379999999996
11
230.0321429999999907
21
-107.6248190000000022
0
LINE
8
BLACK
6
CONTINUOUS
10
230.0321429999999907
20
-107.6248190000000022
11
230.2702379999999778
21
-107.6248190000000022
0
LINE
8
BLACK
6
CONTINUOUS
10
230.2702379999999778
20
-107.6248190000000022
11
230.4130949999999984
21
-107.6724379999999996
0
LINE
8
BLACK
6
CONTINUOUS
10
230.7464289999999778
20
-107.6248190000000022
11
230.9845239999999933
21
-108.624818999999988
0
LINE
8
BLACK
6
CONTINUOUS
10
230.9845239999999933
20
-108.624818999999988
11
231.1749999999999829
21
-107.9105330000000009
0
LINE
8
BLACK
6
CONTINUOUS
10
231.1749999999999829
20
-107.9105330000000009
11
231.365476000000001
21
-108.624818999999988
0
LINE
8
BLACK
6
CONTINUOUS
10
231.365476000000001
20
-108.624818999999988
11
231.6035719999999856
21
-107.6248190000000022
0
LINE
8
BLACK
6
CONTINUOUS
10
231.8892859999999985
20
-107.6248190000000022
11
232.5083329999999933
21
-107.6248190000000022
0
LINE
8
BLACK
6
CONTINUOUS
10
232.5083329999999933
20
-107.6248190000000022
11
232.1749999999999829
21
-108.0057709999999958
0
LINE
8
BLACK
6
CONTINUOUS
10
232.1749999999999829
20
-108.0057709999999958
11
232.3178570000000036
21
-108.0057709999999958
0
LINE
8
BLACK
6
CONTINUOUS
10
232.3178570000000036
20
-108.0057709999999958
11
232.4130949999999984
21
-108.0533899999999932
0
LINE
8
BLACK
6
CONTINUOUS
10
232.4130949999999984
20
-108.0533899999999932
11
232.4607139999999958
21
-108.1010089999999906
0
LINE
8
BLACK
6
CONTINUOUS
10
232.4607139999999958
20
-108.1010089999999906
11
232.5083329999999933
21
-108.1962469999999996
0
LINE
8
BLACK
6
CONTINUOUS
10
232.5083329999999933
20
-108.1962469999999996
11
232.5083329999999933
21
-108.4343420000000009
0
LINE
8
BLACK
6
CONTINUOUS
10
232.5083329999999933
20
-108.4343420000000009
11
232.4607139999999958
21
-108.5295799999999957
0
LINE
8
BLACK
6
CONTINUOUS
10
232.4607139999999958
20
-108.5295799999999957
11
232.4130949999999984
21
-108.5771999999999906
0
LINE
8
BLACK
6
CONTINUOUS
10
232.4130949999999984
20
-108.5771999999999906
11
232.3178570000000036
21
-108.624818999999988
0
LINE
8
BLACK
6
CONTINUOUS
10
232.3178570000000036
20
-108.624818999999988
11
232.0321429999999907
21
-108.624818999999988
0
LINE
8
BLACK
6
CONTINUOUS
10
232.0321429999999907
20
-108.624818999999988
11
231.9369049999999959
21
-108.5771999999999906
0
LINE
8
BLACK
6
CONTINUOUS
10
231.9369049999999959
20
-108.5771999999999906
11
231.8892859999999985
21
-108.5295799999999957
0
LINE
8
BLACK
6
CONTINUOUS
10
149.7382139999999993
20
-112.4391040000000004
11
150.2144040000000018
21
-112.4391040000000004
0
LINE
8
BLACK
6
CONTINUOUS
10
149.6429760000000044
20
-112.7248189999999965
11
149.9763089999999863
21
-111.7248189999999965
0
LINE
8
BLACK
6
CONTINUOUS
10
149.9763089999999863
20
-111.7248189999999965
11
150.3096419999999966
21
-112.7248189999999965
0
LINE
8
BLACK
6
CONTINUOUS
10
151.1667850000000044
20
-112.7248189999999965
11
150.595357000000007
21
-112.7248189999999965
0
LINE
8
BLACK
6
CONTINUOUS
10
150.8810709999999915
20
-112.7248189999999965
11
150.8810709999999915
21
-111.7248189999999965
0
LINE
8
BLACK
6
CONTINUOUS
10
150.8810709999999915
20
-111.7248189999999965
11
150.7858329999999967
21
-111.8676759999999888
0
LINE
8
BLACK
6
CONTINUOUS
10
150.7858329999999967
20
-111.8676759999999888
11
150.6905950000000018
21
-111.9629139999999978
0
LINE
8
BLACK
6
CONTINUOUS
10
150.6905950000000018
20
-111.9629139999999978
11
150.595357000000007
21
-112.0105329999999952
0
LINE
8
BLACK
6
CONTINUOUS
10
143.0054749999999899
20
-92.6748189999999994
11
143.5769029999999873
21
-92.6748189999999994
0
LINE
8
BLACK
6
CONTINUOUS
10
143.2911890000000028
20
-93.6748189999999994
11
143.2911890000000028
21
-92.6748189999999994
0
LINE
8
BLACK
6
CONTINUOUS
10
144.2435700000000054
20
-93.1510090000000019
11
143.9102369999999951
21
-93.1510090000000019
0
LINE
8
BLACK
6
CONTINUOUS
10
143.9102369999999951
20
-93.6748189999999994
11
143.9102369999999951
21
-92.6748189999999994
0
LINE
8
BLACK
6
CONTINUOUS
10
143.9102369999999951
20
-92.6748189999999994
11
144.3864269999999976
21
-92.6748189999999994
0
LINE
8
BLACK
6
CONTINUOUS
10
144.6245229999999822
20
-92.6748189999999994
11
145.1959509999999796
21
-92.6748189999999994
0
LINE
8
BLACK
6
CONTINUOUS
10
144.9102369999999951
20
-93.6748189999999994
11
144.9102369999999951
21
-92.6748189999999994
0
LINE
8
BLACK
6
CONTINUOUS
10
146.1483329999999796
20
-93.0081519999999955
11
146.5292849999999873
21
-93.0081519999999955
0
LINE
8
BLACK
6
CONTINUOUS
10
146.2911900000000003
20
-92.6748189999999994
11
146.2911900000000003
21
-93.5319609999999955
0
LINE
8
BLACK
6
CONTINUOUS
10
146.2911900000000003
20
-93.5319609999999955
11
146.3388089999999977
21
-93.627200000000002
0
LINE
8
BLACK
6
CONTINUOUS
10
146.3388089999999977
20
-93.627200000000002
11
146.4340469999999925
21
-93.6748189999999994
0
LINE
8
BLACK
6
CONTINUOUS
10
146.4340469999999925
20
-93.6748189999999994
11
146.5292849999999873
21
-93.6748189999999994
0
LINE
8
BLACK
6
CONTINUOUS
10
147.2435710000000029
20
-93.627200000000002
11
147.1483329999999796
21
-93.6748189999999994
0
LINE
8
BLACK
6
CONTINUOUS
10
147.1483329999999796
20
-93.6748189999999994
11
146.95785699999999
21
-93.6748189999999994
0
LINE
8
BLACK
6
CONTINUOUS
10
146.95785699999999
20
-93.6748189999999994
11
146.8626189999999951
21
-93.627200000000002
0
LINE
8
BLACK
6
CONTINUOUS
10
146.8626189999999951
20
-93.627200000000002
11
146.8149999999999977
21
-93.5319609999999955
0
LINE
8
BLACK
6
CONTINUOUS
10
146.8149999999999977
20
-93.5319609999999955
11
146.8149999999999977
21
-93.1510090000000019
0
LINE
8
BLACK
6
CONTINUOUS
10
146.8149999999999977
20
-93.1510090000000019
11
146.8626189999999951
21
-93.0557709999999929
0
LINE
8
BLACK
6
CONTINUOUS
10
146.8626189999999951
20
-93.0557709999999929
11
146.95785699999999
21
-93.0081519999999955
0
LINE
8
BLACK
6
CONTINUOUS
10
146.95785699999999
20
-93.0081519999999955
11
147.1483329999999796
21
-93.0081519999999955
0
LINE
8
BLACK
6
CONTINUOUS
10
147.1483329999999796
20
-93.0081519999999955
11
147.2435710000000029
21
-93.0557709999999929
0
LINE
8
BLACK
6
CONTINUOUS
10
147.2435710000000029
20
-93.0557709999999929
11
147.2911900000000003
21
-93.1510090000000019
0
LINE
8
BLACK
6
CONTINUOUS
10
147.2911900000000003
20
-93.1510090000000019
11
147.2911900000000003
21
-93.2462469999999968
0
LINE
8
BLACK
6
CONTINUOUS
10
147.2911900000000003
20
-93.2462469999999968
11
146.8149999999999977
21
-93.3414849999999916
0
LINE
8
BLACK
6
CONTINUOUS
10
147.6245239999999797
20
-93.6748189999999994
11
148.1483329999999796
21
-93.0081519999999955
0
LINE
8
BLACK
6
CONTINUOUS
10
147.6245239999999797
20
-93.0081519999999955
11
148.1483329999999796
21
-93.6748189999999994
0
LINE
8
BLACK
6
CONTINUOUS
10
148.3864289999999926
20
-93.0081519999999955
11
148.7673810000000003
21
-93.0081519999999955
0
LINE
8
BLACK
6
CONTINUOUS
10
148.5292859999999848
20
-92.6748189999999994
11
148.5292859999999848
21
-93.5319609999999955
0
LINE
8
BLACK
6
CONTINUOUS
10
148.5292859999999848
20
-93.5319609999999955
11
148.5769049999999822
21
-93.627200000000002
0
LINE
8
BLACK
6
CONTINUOUS
10
148.5769049999999822
20
-93.627200000000002
11
148.6721430000000055
21
-93.6748189999999994
0
LINE
8
BLACK
6
CONTINUOUS
10
148.6721430000000055
20
-93.6748189999999994
11
148.7673810000000003
21
-93.6748189999999994
0
LINE
8
BLACK
6
CONTINUOUS
10
150.0054769999999849
20
-93.6748189999999994
11
149.91023899999999
21
-93.627200000000002
0
LINE
8
BLACK
6
CONTINUOUS
10
149.91023899999999
20
-93.627200000000002
11
149.8626199999999926
21
-93.5795799999999929
0
LINE
8
BLACK
6
CONTINUOUS
10
149.8626199999999926
20
-93.5795799999999929
11
149.8150009999999952
21
-93.4843419999999981
0
LINE
8
BLACK
6
CONTINUOUS
10
149.8150009999999952
20
-93.4843419999999981
11
149.8150009999999952
21
-93.1986279999999994
0
LINE
8
BLACK
6
CONTINUOUS
10
149.8150009999999952
20
-93.1986279999999994
11
149.8626199999999926
21
-93.1033899999999903
0
LINE
8
BLACK
6
CONTINUOUS
10
149.8626199999999926
20
-93.1033899999999903
11
149.91023899999999
21
-93.0557709999999929
0
LINE
8
BLACK
6
CONTINUOUS
10
149.91023899999999
20
-93.0557709999999929
11
150.0054769999999849
21
-93.0081519999999955
0
LINE
8
BLACK
6
CONTINUOUS
10
150.0054769999999849
20
-93.0081519999999955
11
150.1483340000000055
21
-93.0081519999999955
0
LINE
8
BLACK
6
CONTINUOUS
10
150.1483340000000055
20
-93.0081519999999955
11
150.2435720000000003
21
-93.0557709999999929
0
LINE
8
BLACK
6
CONTINUOUS
10
150.2435720000000003
20
-93.0557709999999929
11
150.2911909999999978
21
-93.1033899999999903
0
LINE
8
BLACK
6
CONTINUOUS
10
150.2911909999999978
20
-93.1033899999999903
11
150.3388099999999952
21
-93.1986279999999994
0
LINE
8
BLACK
6
CONTINUOUS
10
150.3388099999999952
20
-93.1986279999999994
11
150.3388099999999952
21
-93.4843419999999981
0
LINE
8
BLACK
6
CONTINUOUS
10
150.3388099999999952
20
-93.4843419999999981
11
150.2911909999999978
21
-93.5795799999999929
0
LINE
8
BLACK
6
CONTINUOUS
10
150.2911909999999978
20
-93.5795799999999929
11
150.2435720000000003
21
-93.627200000000002
0
LINE
8
BLACK
6
CONTINUOUS
10
150.2435720000000003
20
-93.627200000000002
11
150.1483340000000055
21
-93.6748189999999994
0
LINE
8
BLACK
6
CONTINUOUS
10
150.1483340000000055
20
-93.6748189999999994
11
150.0054769999999849
21
-93.6748189999999994
0
LINE
8
BLACK
6
CONTINUOUS
10
150.7673819999999978
20
-93.6748189999999994
11
150.7673819999999978
21
-93.0081519999999955
0
LINE
8
BLACK
6
CONTINUOUS
10
150.7673819999999978
20
-93.1986279999999994
11
150.8150009999999952
21
-93.1033899999999903
0
LINE
8
BLACK
6
CONTINUOUS
10
150.8150009999999952
20
-93.1033899999999903
11
150.8626199999999926
21
-93.0557709999999929
0
LINE
8
BLACK
6
CONTINUOUS
10
150.8626199999999926
20
-93.0557709999999929
11
150.9578579999999874
21
-93.0081519999999955
0
LINE
8
BLACK
6
CONTINUOUS
10
150.9578579999999874
20
-93.0081519999999955
11
151.0530959999999823
21
-93.0081519999999955
0
LINE
8
BLACK
6
CONTINUOUS
10
151.3864299999999901
20
-93.6748189999999994
11
151.3864299999999901
21
-93.0081519999999955
0
LINE
8
BLACK
6
CONTINUOUS
10
151.3864299999999901
20
-92.6748189999999994
11
151.3388109999999926
21
-92.7224379999999968
0
LINE
8
BLACK
6
CONTINUOUS
10
151.3388109999999926
20
-92.7224379999999968
11
151.3864299999999901
21
-92.7700569999999942
0
LINE
8
BLACK
6
CONTINUOUS
10
151.3864299999999901
20
-92.7700569999999942
11
151.4340489999999875
21
-92.7224379999999968
0
LINE
8
BLACK
6
CONTINUOUS
10
151.4340489999999875
20
-92.7224379999999968
11
151.3864299999999901
21
-92.6748189999999994
0
LINE
8
BLACK
6
CONTINUOUS
10
151.3864299999999901
20
-92.6748189999999994
11
151.3864299999999901
21
-92.7700569999999942
0
LINE
8
BLACK
6
CONTINUOUS
10
152.2435720000000003
20
-93.627200000000002
11
152.1483340000000055
21
-93.6748189999999994
0
LINE
8
BLACK
6
CONTINUOUS
10
152.1483340000000055
20
-93.6748189999999994
11
151.9578579999999874
21
-93.6748189999999994
0
LINE
8
BLACK
6
CONTINUOUS
10
151.9578579999999874
20
-93.6748189999999994
11
151.8626199999999926
21
-93.627200000000002
0
LINE
8
BLACK
6
CONTINUOUS
10
151.8626199999999926
20
-93.627200000000002
11
151.8150009999999952
21
-93.5319609999999955
0
LINE
8
BLACK
6
CONTINUOUS
10
151.8150009999999952
20
-93.5319609999999955
11
151.8150009999999952
21
-93.1510090000000019
0
LINE
8
BLACK
6
CONTINUOUS
10
151.8150009999999952
20
-93.1510090000000019
11
151.8626199999999926
21
-93.0557709999999929
0
LINE
8
BLACK
6
CONTINUOUS
10
151.8626199999999926
20
-93.0557709999999929
11
151.9578579999999874
21
-93.0081519999999955
0
LINE
8
BLACK
6
CONTINUOUS
10
151.9578579999999874
20
-93.0081519999999955
11
152.1483340000000055
21
-93.0081519999999955
0
LINE
8
BLACK
6
CONTINUOUS
10
152.1483340000000055
20
-93.0081519999999955
11
152.2435720000000003
21
-93.0557709999999929
0
LINE
8
BLACK
6
CONTINUOUS
10
152.2435720000000003
20
-93.0557709999999929
11
152.2911909999999978
21
-93.1510090000000019
0
LINE
8
BLACK
6
CONTINUOUS
10
152.2911909999999978
20
-93.1510090000000019
11
152.2911909999999978
21
-93.2462469999999968
0
LINE
8
BLACK
6
CONTINUOUS
10
152.2911909999999978
20
-93.2462469999999968
11
151.8150009999999952
21
-93.3414849999999916
0
LINE
8
BLACK
6
CONTINUOUS
10
152.7197630000000004
20
-93.0081519999999955
11
152.7197630000000004
21
-93.6748189999999994
0
LINE
8
BLACK
6
CONTINUOUS
10
152.7197630000000004
20
-93.1033899999999903
11
152.7673819999999978
21
-93.0557709999999929
0
LINE
8
BLACK
6
CONTINUOUS
10
152.7673819999999978
20
-93.0557709999999929
11
152.8626199999999926
21
-93.0081519999999955
0
LINE
8
BLACK
6
CONTINUOUS
10
152.8626199999999926
20
-93.0081519999999955
11
153.0054769999999849
21
-93.0081519999999955
0
LINE
8
BLACK
6
CONTINUOUS
10
153.0054769999999849
20
-93.0081519999999955
11
153.1007149999999797
21
-93.0557709999999929
0
LINE
8
BLACK
6
CONTINUOUS
10
153.1007149999999797
20
-93.0557709999999929
11
153.1483340000000055
21
-93.1510090000000019
0
LINE
8
BLACK
6
CONTINUOUS
10
153.1483340000000055
20
-93.1510090000000019
11
153.1483340000000055
21
-93.6748189999999994
0
LINE
8
BLACK
6
CONTINUOUS
10
153.4816679999999849
20
-93.0081519999999955
11
153.8626199999999926
21
-93.0081519999999955
0
LINE
8
BLACK
6
CONTINUOUS
10
153.6245250000000055
20
-92.6748189999999994
11
153.6245250000000055
21
-93.5319609999999955
0
LINE
8
BLACK
6
CONTINUOUS
10
153.6245250000000055
20
-93.5319609999999955
11
153.672144000000003
21
-93.627200000000002
0
LINE
8
BLACK
6
CONTINUOUS
10
153.672144000000003
20
-93.627200000000002
11
153.7673819999999978
21
-93.6748189999999994
0
LINE
8
BLACK
6
CONTINUOUS
10
153.7673819999999978
20
-93.6748189999999994
11
153.8626199999999926
21
-93.6748189999999994
0
LINE
8
BLACK
6
CONTINUOUS
10
154.6245250000000055
20
-93.6748189999999994
11
154.6245250000000055
21
-93.1510090000000019
0
LINE
8
BLACK
6
CONTINUOUS
10
154.6245250000000055
20
-93.1510090000000019
11
154.5769059999999797
21
-93.0557709999999929
0
LINE
8
BLACK
6
CONTINUOUS
10
154.5769059999999797
20
-93.0557709999999929
11
154.4816679999999849
21
-93.0081519999999955
0
LINE
8
BLACK
6
CONTINUOUS
10
154.4816679999999849
20
-93.0081519999999955
11
154.2911919999999952
21
-93.0081519999999955
0
LINE
8
BLACK
6
CONTINUOUS
10
154.2911919999999952
20
-93.0081519999999955
11
154.1959540000000004
21
-93.0557709999999929
0
LINE
8
BLACK
6
CONTINUOUS
10
154.6245250000000055
20
-93.627200000000002
11
154.5292869999999823
21
-93.6748189999999994
0
LINE
8
BLACK
6
CONTINUOUS
10
154.5292869999999823
20
-93.6748189999999994
11
154.2911919999999952
21
-93.6748189999999994
0
LINE
8
BLACK
6
CONTINUOUS
10
154.2911919999999952
20
-93.6748189999999994
11
154.1959540000000004
21
-93.627200000000002
0
LINE
8
BLACK
6
CONTINUOUS
10
154.1959540000000004
20
-93.627200000000002
11
154.148335000000003
21
-93.5319609999999955
0
LINE
8
BLACK
6
CONTINUOUS
10
154.148335000000003
20
-93.5319609999999955
11
154.148335000000003
21
-93.4367230000000006
0
LINE
8
BLACK
6
CONTINUOUS
10
154.148335000000003
20
-93.4367230000000006
11
154.1959540000000004
21
-93.3414849999999916
0
LINE
8
BLACK
6
CONTINUOUS
10
154.1959540000000004
20
-93.3414849999999916
11
154.2911919999999952
21
-93.2938659999999942
0
LINE
8
BLACK
6
CONTINUOUS
10
154.2911919999999952
20
-93.2938659999999942
11
154.5292869999999823
21
-93.2938659999999942
0
LINE
8
BLACK
6
CONTINUOUS
10
154.5292869999999823
20
-93.2938659999999942
11
154.6245250000000055
21
-93.2462469999999968
0
LINE
8
BLACK
6
CONTINUOUS
10
154.9578589999999849
20
-93.0081519999999955
11
155.3388109999999926
21
-93.0081519999999955
0
LINE
8
BLACK
6
CONTINUOUS
10
155.1007160000000056
20
-92.6748189999999994
11
155.1007160000000056
21
-93.5319609999999955
0
LINE
8
BLACK
6
CONTINUOUS
10
155.1007160000000056
20
-93.5319609999999955
11
155.148335000000003
21
-93.627200000000002
0
LINE
8
BLACK
6
CONTINUOUS
10
155.148335000000003
20
-93.627200000000002
11
155.2435729999999978
21
-93.6748189999999994
0
LINE
8
BLACK
6
CONTINUOUS
10
155.2435729999999978
20
-93.6748189999999994
11
155.3388109999999926
21
-93.6748189999999994
0
LINE
8
BLACK
6
CONTINUOUS
10
155.6721450000000004
20
-93.6748189999999994
11
155.6721450000000004
21
-93.0081519999999955
0
LINE
8
BLACK
6
CONTINUOUS
10
155.6721450000000004
20
-92.6748189999999994
11
155.624526000000003
21
-92.7224379999999968
0
LINE
8
BLACK
6
CONTINUOUS
10
155.624526000000003
20
-92.7224379999999968
11
155.6721450000000004
21
-92.7700569999999942
0
LINE
8
BLACK
6
CONTINUOUS
10
155.6721450000000004
20
-92.7700569999999942
11
155.7197639999999978
21
-92.7224379999999968
0
LINE
8
BLACK
6
CONTINUOUS
10
155.7197639999999978
20
-92.7224379999999968
11
155.6721450000000004
21
-92.6748189999999994
0
LINE
8
BLACK
6
CONTINUOUS
10
155.6721450000000004
20
-92.6748189999999994
11
155.6721450000000004
21
-92.7700569999999942
0
LINE
8
BLACK
6
CONTINUOUS
10
156.2911919999999952
20
-93.6748189999999994
11
156.1959540000000004
21
-93.627200000000002
0
LINE
8
BLACK
6
CONTINUOUS
10
156.1959540000000004
20
-93.627200000000002
11
156.148335000000003
21
-93.5795799999999929
0
LINE
8
BLACK
6
CONTINUOUS
10
156.148335000000003
20
-93.5795799999999929
11
156.1007160000000056
21
-93.4843419999999981
0
LINE
8
BLACK
6
CONTINUOUS
10
156.1007160000000056
20
-93.4843419999999981
11
156.1007160000000056
21
-93.1986279999999994
0
LINE
8
BLACK
6
CONTINUOUS
10
156.1007160000000056
20
-93.1986279999999994
11
156.148335000000003
21
-93.1033899999999903
0
LINE
8
BLACK
6
CONTINUOUS
10
156.148335000000003
20
-93.1033899999999903
11
156.1959540000000004
21
-93.0557709999999929
0
LINE
8
BLACK
6
CONTINUOUS
10
156.1959540000000004
20
-93.0557709999999929
11
156.2911919999999952
21
-93.0081519999999955
0
LINE
8
BLACK
6
CONTINUOUS
10
156.2911919999999952
20
-93.0081519999999955
11
156.4340489999999875
21
-93.0081519999999955
0
LINE
8
BLACK
6
CONTINUOUS
10
156.4340489999999875
20
-93.0081519999999955
11
156.5292869999999823
21
-93.0557709999999929
0
LINE
8
BLACK
6
CONTINUOUS
10
156.5292869999999823
20
-93.0557709999999929
11
156.5769059999999797
21
-93.1033899999999903
0
LINE
8
BLACK
6
CONTINUOUS
10
156.5769059999999797
20
-93.1033899999999903
11
156.6245250000000055
21
-93.1986279999999994
0
LINE
8
BLACK
6
CONTINUOUS
10
156.6245250000000055
20
-93.1986279999999994
11
156.6245250000000055
21
-93.4843419999999981
0
LINE
8
BLACK
6
CONTINUOUS
10
156.6245250000000055
20
-93.4843419999999981
11
156.5769059999999797
21
-93.5795799999999929
0
LINE
8
BLACK
6
CONTINUOUS
10
156.5769059999999797
20
-93.5795799999999929
11
156.5292869999999823
21
-93.627200000000002
0
LINE
8
BLACK
6
CONTINUOUS
10
156.5292869999999823
20
-93.627200000000002
11
156.4340489999999875
21
-93.6748189999999994
0
LINE
8
BLACK
6
CONTINUOUS
10
156.4340489999999875
20
-93.6748189999999994
11
156.2911919999999952
21
-93.6748189999999994
0
LINE
8
BLACK
6
CONTINUOUS
10
157.0530969999999797
20
-93.0081519999999955
11
157.0530969999999797
21
-93.6748189999999994
0
LINE
8
BLACK
6
CONTINUOUS
10
157.0530969999999797
20
-93.1033899999999903
11
157.1007160000000056
21
-93.0557709999999929
0
LINE
8
BLACK
6
CONTINUOUS
10
157.1007160000000056
20
-93.0557709999999929
11
157.1959540000000004
21
-93.0081519999999955
0
LINE
8
BLACK
6
CONTINUOUS
10
157.1959540000000004
20
-93.0081519999999955
11
157.3388109999999926
21
-93.0081519999999955
0
LINE
8
BLACK
6
CONTINUOUS
10
157.3388109999999926
20
-93.0081519999999955
11
157.4340489999999875
21
-93.0557709999999929
0
LINE
8
BLACK
6
CONTINUOUS
10
157.4340489999999875
20
-93.0557709999999929
11
157.4816679999999849
21
-93.1510090000000019
0
LINE
8
BLACK
6
CONTINUOUS
10
157.4816679999999849
20
-93.1510090000000019
11
157.4816679999999849
21
-93.6748189999999994
0
LINE
8
BLACK
6
CONTINUOUS
10
154.3945229999999924
20
-61.0627999999999957
11
154.2516660000000002
21
-61.0151799999999938
0
LINE
8
BLACK
6
CONTINUOUS
10
154.2516660000000002
20
-61.0151799999999938
11
154.0135709999999847
21
-61.0151799999999938
0
LINE
8
BLACK
6
CONTINUOUS
10
154.0135709999999847
20
-61.0151799999999938
11
153.9183329999999899
21
-61.0627999999999957
0
LINE
8
BLACK
6
CONTINUOUS
10
153.9183329999999899
20
-61.0627999999999957
11
153.8707139999999924
21
-61.1104190000000003
0
LINE
8
BLACK
6
CONTINUOUS
10
153.8707139999999924
20
-61.1104190000000003
11
153.823094999999995
21
-61.2056569999999951
0
LINE
8
BLACK
6
CONTINUOUS
10
153.823094999999995
20
-61.2056569999999951
11
153.823094999999995
21
-61.300894999999997
0
LINE
8
BLACK
6
CONTINUOUS
10
153.823094999999995
20
-61.300894999999997
11
153.8707139999999924
21
-61.396132999999999
0
LINE
8
BLACK
6
CONTINUOUS
10
153.8707139999999924
20
-61.396132999999999
11
153.9183329999999899
21
-61.4437519999999964
0
LINE
8
BLACK
6
CONTINUOUS
10
153.9183329999999899
20
-61.4437519999999964
11
154.0135709999999847
21
-61.4913709999999938
0
LINE
8
BLACK
6
CONTINUOUS
10
154.0135709999999847
20
-61.4913709999999938
11
154.2040470000000028
21
-61.5389899999999983
0
LINE
8
BLACK
6
CONTINUOUS
10
154.2040470000000028
20
-61.5389899999999983
11
154.2992849999999976
21
-61.5866089999999957
0
LINE
8
BLACK
6
CONTINUOUS
10
154.2992849999999976
20
-61.5866089999999957
11
154.346903999999995
21
-61.6342280000000002
0
LINE
8
BLACK
6
CONTINUOUS
10
154.346903999999995
20
-61.6342280000000002
11
154.3945229999999924
21
-61.7294659999999951
0
LINE
8
BLACK
6
CONTINUOUS
10
154.3945229999999924
20
-61.7294659999999951
11
154.3945229999999924
21
-61.824703999999997
0
LINE
8
BLACK
6
CONTINUOUS
10
154.3945229999999924
20
-61.824703999999997
11
154.346903999999995
21
-61.9199419999999989
0
LINE
8
BLACK
6
CONTINUOUS
10
154.346903999999995
20
-61.9199419999999989
11
154.2992849999999976
21
-61.9675609999999963
0
LINE
8
BLACK
6
CONTINUOUS
10
154.2992849999999976
20
-61.9675609999999963
11
154.2040470000000028
21
-62.0151799999999938
0
LINE
8
BLACK
6
CONTINUOUS
10
154.2040470000000028
20
-62.0151799999999938
11
153.9659519999999873
21
-62.0151799999999938
0
LINE
8
BLACK
6
CONTINUOUS
10
153.9659519999999873
20
-62.0151799999999938
11
153.823094999999995
21
-61.9675609999999963
0
LINE
8
BLACK
6
CONTINUOUS
10
153.3945229999999924
20
-61.0151799999999938
11
153.3945229999999924
21
-62.0151799999999938
0
LINE
8
BLACK
6
CONTINUOUS
10
153.3945229999999924
20
-62.0151799999999938
11
153.1564280000000053
21
-62.0151799999999938
0
LINE
8
BLACK
6
CONTINUOUS
10
153.1564280000000053
20
-62.0151799999999938
11
153.0135709999999847
21
-61.9675609999999963
0
LINE
8
BLACK
6
CONTINUOUS
10
153.0135709999999847
20
-61.9675609999999963
11
152.9183329999999899
21
-61.8723229999999944
0
LINE
8
BLACK
6
CONTINUOUS
10
152.9183329999999899
20
-61.8723229999999944
11
152.8707139999999924
21
-61.7770849999999996
0
LINE
8
BLACK
6
CONTINUOUS
10
152.8707139999999924
20
-61.7770849999999996
11
152.823094999999995
21
-61.5866089999999957
0
LINE
8
BLACK
6
CONTINUOUS
10
152.823094999999995
20
-61.5866089999999957
11
152.823094999999995
21
-61.4437519999999964
0
LINE
8
BLACK
6
CONTINUOUS
10
152.823094999999995
20
-61.4437519999999964
11
152.8707139999999924
21
-61.2532759999999996
0
LINE
8
BLACK
6
CONTINUOUS
10
152.8707139999999924
20
-61.2532759999999996
11
152.9183329999999899
21
-61.1580379999999977
0
LINE
8
BLACK
6
CONTINUOUS
10
152.9183329999999899
20
-61.1580379999999977
11
153.0135709999999847
21
-61.0627999999999957
0
LINE
8
BLACK
6
CONTINUOUS
10
153.0135709999999847
20
-61.0627999999999957
11
153.1564280000000053
21
-61.0151799999999938
0
LINE
8
BLACK
6
CONTINUOUS
10
153.1564280000000053
20
-61.0151799999999938
11
153.3945229999999924
21
-61.0151799999999938
0
LINE
8
BLACK
6
CONTINUOUS
10
151.2040470000000028
20
-61.0627999999999957
11
151.2992849999999976
21
-61.0151799999999938
0
LINE
8
BLACK
6
CONTINUOUS
10
151.2992849999999976
20
-61.0151799999999938
11
151.4897609999999872
21
-61.0151799999999938
0
LINE
8
BLACK
6
CONTINUOUS
10
151.4897609999999872
20
-61.0151799999999938
11
151.5849989999999821
21
-61.0627999999999957
0
LINE
8
BLACK
6
CONTINUOUS
10
151.5849989999999821
20
-61.0627999999999957
11
151.6326179999999795
21
-61.1104190000000003
0
LINE
8
BLACK
6
CONTINUOUS
10
151.6326179999999795
20
-61.1104190000000003
11
151.6802370000000053
21
-61.2056569999999951
0
LINE
8
BLACK
6
CONTINUOUS
10
151.6802370000000053
20
-61.2056569999999951
11
151.6802370000000053
21
-61.4913709999999938
0
LINE
8
BLACK
6
CONTINUOUS
10
151.6802370000000053
20
-61.4913709999999938
11
151.6326179999999795
21
-61.5866089999999957
0
LINE
8
BLACK
6
CONTINUOUS
10
151.6326179999999795
20
-61.5866089999999957
11
151.5849989999999821
21
-61.6342280000000002
0
LINE
8
BLACK
6
CONTINUOUS
10
151.5849989999999821
20
-61.6342280000000002
11
151.4897609999999872
21
-61.6818469999999976
0
LINE
8
BLACK
6
CONTINUOUS
10
151.4897609999999872
20
-61.6818469999999976
11
151.2992849999999976
21
-61.6818469999999976
0
LINE
8
BLACK
6
CONTINUOUS
10
151.2992849999999976
20
-61.6818469999999976
11
151.2040470000000028
21
-61.6342280000000002
0
LINE
8
BLACK
6
CONTINUOUS
10
150.346903999999995
20
-61.0151799999999938
11
150.346903999999995
21
-61.5389899999999983
0
LINE
8
BLACK
6
CONTINUOUS
10
150.346903999999995
20
-61.5389899999999983
11
150.3945229999999924
21
-61.6342280000000002
0
LINE
8
BLACK
6
CONTINUOUS
10
150.3945229999999924
20
-61.6342280000000002
11
150.4897609999999872
21
-61.6818469999999976
0
LINE
8
BLACK
6
CONTINUOUS
10
150.4897609999999872
20
-61.6818469999999976
11
150.6802370000000053
21
-61.6818469999999976
0
LINE
8
BLACK
6
CONTINUOUS
10
150.6802370000000053
20
-61.6818469999999976
11
150.7754750000000001
21
-61.6342280000000002
0
LINE
8
BLACK
6
CONTINUOUS
10
150.346903999999995
20
-61.0627999999999957
11
150.4421419999999898
21
-61.0151799999999938
0
LINE
8
BLACK
6
CONTINUOUS
10
150.4421419999999898
20
-61.0151799999999938
11
150.6802370000000053
21
-61.0151799999999938
0
LINE
8
BLACK
6
CONTINUOUS
10
150.6802370000000053
20
-61.0151799999999938
11
150.7754750000000001
21
-61.0627999999999957
0
LINE
8
BLACK
6
CONTINUOUS
10
150.7754750000000001
20
-61.0627999999999957
11
150.8230939999999975
21
-61.1580379999999977
0
LINE
8
BLACK
6
CONTINUOUS
10
150.8230939999999975
20
-61.1580379999999977
11
150.8230939999999975
21
-61.2532759999999996
0
LINE
8
BLACK
6
CONTINUOUS
10
150.8230939999999975
20
-61.2532759999999996
11
150.7754750000000001
21
-61.3485139999999944
0
LINE
8
BLACK
6
CONTINUOUS
10
150.7754750000000001
20
-61.3485139999999944
11
150.6802370000000053
21
-61.396132999999999
0
LINE
8
BLACK
6
CONTINUOUS
10
150.6802370000000053
20
-61.396132999999999
11
150.4421419999999898
21
-61.396132999999999
0
LINE
8
BLACK
6
CONTINUOUS
10
150.4421419999999898
20
-61.396132999999999
11
150.346903999999995
21
-61.4437519999999964
0
LINE
8
BLACK
6
CONTINUOUS
10
149.870712999999995
20
-61.0151799999999938
11
149.870712999999995
21
-61.6818469999999976
0
LINE
8
BLACK
6
CONTINUOUS
10
149.870712999999995
20
-61.4913709999999938
11
149.8230939999999975
21
-61.5866089999999957
0
LINE
8
BLACK
6
CONTINUOUS
10
149.8230939999999975
20
-61.5866089999999957
11
149.7754750000000001
21
-61.6342280000000002
0
LINE
8
BLACK
6
CONTINUOUS
10
149.7754750000000001
20
-61.6342280000000002
11
149.6802370000000053
21
-61.6818469999999976
0
LINE
8
BLACK
6
CONTINUOUS
10
149.6802370000000053
20
-61.6818469999999976
11
149.5849989999999821
21
-61.6818469999999976
0
LINE
8
BLACK
6
CONTINUOUS
10
148.8230939999999975
20
-61.0151799999999938
11
148.8230939999999975
21
-62.0151799999999938
0
LINE
8
BLACK
6
CONTINUOUS
10
148.8230939999999975
20
-61.0627999999999957
11
148.9183319999999924
21
-61.0151799999999938
0
LINE
8
BLACK
6
CONTINUOUS
10
148.9183319999999924
20
-61.0151799999999938
11
149.108807999999982
21
-61.0151799999999938
0
LINE
8
BLACK
6
CONTINUOUS
10
149.108807999999982
20
-61.0151799999999938
11
149.2040460000000053
21
-61.0627999999999957
0
LINE
8
BLACK
6
CONTINUOUS
10
149.2040460000000053
20
-61.0627999999999957
11
149.2516650000000027
21
-61.1104190000000003
0
LINE
8
BLACK
6
CONTINUOUS
10
149.2516650000000027
20
-61.1104190000000003
11
149.2992840000000001
21
-61.2056569999999951
0
LINE
8
BLACK
6
CONTINUOUS
10
149.2992840000000001
20
-61.2056569999999951
11
149.2992840000000001
21
-61.4913709999999938
0
LINE
8
BLACK
6
CONTINUOUS
10
149.2992840000000001
20
-61.4913709999999938
11
149.2516650000000027
21
-61.5866089999999957
0
LINE
8
BLACK
6
CONTINUOUS
10
149.2516650000000027
20
-61.5866089999999957
11
149.2040460000000053
21
-61.6342280000000002
0
LINE
8
BLACK
6
CONTINUOUS
10
149.2040460000000053
20
-61.6342280000000002
11
149.108807999999982
21
-61.6818469999999976
0
LINE
8
BLACK
6
CONTINUOUS
10
149.108807999999982
20
-61.6818469999999976
11
148.9183319999999924
21
-61.6818469999999976
0
LINE
8
BLACK
6
CONTINUOUS
10
148.9183319999999924
20
-61.6818469999999976
11
148.8230939999999975
21
-61.6342280000000002
0
LINE
8
BLACK
6
CONTINUOUS
10
209.269818999999984
20
-100.3966659999999962
11
208.793627999999984
21
-100.7299989999999923
0
LINE
8
BLACK
6
CONTINUOUS
10
209.269818999999984
20
-100.9680939999999936
11
208.269818999999984
21
-100.9680939999999936
0
LINE
8
BLACK
6
CONTINUOUS
10
208.269818999999984
20
-100.9680939999999936
11
208.269818999999984
21
-100.5871420000000001
0
LINE
8
BLACK
6
CONTINUOUS
10
208.269818999999984
20
-100.5871420000000001
11
208.3174379999999815
21
-100.491903999999991
0
LINE
8
BLACK
6
CONTINUOUS
10
208.3174379999999815
20
-100.491903999999991
11
208.3650569999999789
21
-100.4442849999999936
0
LINE
8
BLACK
6
CONTINUOUS
10
208.3650569999999789
20
-100.4442849999999936
11
208.4602950000000021
21
-100.3966659999999962
0
LINE
8
BLACK
6
CONTINUOUS
10
208.4602950000000021
20
-100.3966659999999962
11
208.6031519999999944
21
-100.3966659999999962
0
LINE
8
BLACK
6
CONTINUOUS
10
208.6031519999999944
20
-100.3966659999999962
11
208.6983899999999892
21
-100.4442849999999936
0
LINE
8
BLACK
6
CONTINUOUS
10
208.6983899999999892
20
-100.4442849999999936
11
208.7460089999999866
21
-100.491903999999991
0
LINE
8
BLACK
6
CONTINUOUS
10
208.7460089999999866
20
-100.491903999999991
11
208.793627999999984
21
-100.5871420000000001
0
LINE
8
BLACK
6
CONTINUOUS
10
208.793627999999984
20
-100.5871420000000001
11
208.793627999999984
21
-100.9680939999999936
0
LINE
8
BLACK
6
CONTINUOUS
10
209.269818999999984
20
-99.4442849999999936
11
209.269818999999984
21
-100.015712999999991
0
LINE
8
BLACK
6
CONTINUOUS
10
209.269818999999984
20
-99.7299989999999923
11
208.269818999999984
21
-99.7299989999999923
0
LINE
8
BLACK
6
CONTINUOUS
10
208.269818999999984
20
-99.7299989999999923
11
208.4126760000000047
21
-99.8252370000000013
0
LINE
8
BLACK
6
CONTINUOUS
10
208.4126760000000047
20
-99.8252370000000013
11
208.5079139999999995
21
-99.9204749999999962
0
LINE
8
BLACK
6
CONTINUOUS
10
208.5079139999999995
20
-99.9204749999999962
11
208.5555329999999969
21
-100.015712999999991
0
LINE
8
BLACK
6
CONTINUOUS
10
165.4916669999999783
20
-119.8571999999999917
11
165.634523999999999
21
-119.9048189999999892
0
LINE
8
BLACK
6
CONTINUOUS
10
165.634523999999999
20
-119.9048189999999892
11
165.872618999999986
21
-119.9048189999999892
0
LINE
8
BLACK
6
CONTINUOUS
10
165.872618999999986
20
-119.9048189999999892
11
165.9678569999999809
21
-119.8571999999999917
0
LINE
8
BLACK
6
CONTINUOUS
10
165.9678569999999809
20
-119.8571999999999917
11
166.0154759999999783
21
-119.8095799999999969
0
LINE
8
BLACK
6
CONTINUOUS
10
166.0154759999999783
20
-119.8095799999999969
11
166.0630950000000041
21
-119.7143419999999878
0
LINE
8
BLACK
6
CONTINUOUS
10
166.0630950000000041
20
-119.7143419999999878
11
166.0630950000000041
21
-119.619103999999993
0
LINE
8
BLACK
6
CONTINUOUS
10
166.0630950000000041
20
-119.619103999999993
11
166.0154759999999783
21
-119.5238659999999982
0
LINE
8
BLACK
6
CONTINUOUS
10
166.0154759999999783
20
-119.5238659999999982
11
165.9678569999999809
21
-119.4762470000000008
0
LINE
8
BLACK
6
CONTINUOUS
10
165.9678569999999809
20
-119.4762470000000008
11
165.872618999999986
21
-119.4286279999999891
0
LINE
8
BLACK
6
CONTINUOUS
10
165.872618999999986
20
-119.4286279999999891
11
165.6821429999999964
21
-119.3810089999999917
0
LINE
8
BLACK
6
CONTINUOUS
10
165.6821429999999964
20
-119.3810089999999917
11
165.5869050000000016
21
-119.3333899999999943
0
LINE
8
BLACK
6
CONTINUOUS
10
165.5869050000000016
20
-119.3333899999999943
11
165.5392860000000042
21
-119.2857709999999969
0
LINE
8
BLACK
6
CONTINUOUS
10
165.5392860000000042
20
-119.2857709999999969
11
165.4916669999999783
21
-119.1905329999999879
0
LINE
8
BLACK
6
CONTINUOUS
10
165.4916669999999783
20
-119.1905329999999879
11
165.4916669999999783
21
-119.095294999999993
0
LINE
8
BLACK
6
CONTINUOUS
10
165.4916669999999783
20
-119.095294999999993
11
165.5392860000000042
21
-119.0000569999999982
0
LINE
8
BLACK
6
CONTINUOUS
10
165.5392860000000042
20
-119.0000569999999982
11
165.5869050000000016
21
-118.9524380000000008
0
LINE
8
BLACK
6
CONTINUOUS
10
165.5869050000000016
20
-118.9524380000000008
11
165.6821429999999964
21
-118.9048189999999892
0
LINE
8
BLACK
6
CONTINUOUS
10
165.6821429999999964
20
-118.9048189999999892
11
165.9202379999999835
21
-118.9048189999999892
0
LINE
8
BLACK
6
CONTINUOUS
10
165.9202379999999835
20
-118.9048189999999892
11
166.0630950000000041
21
-118.9524380000000008
0
LINE
8
BLACK
6
CONTINUOUS
10
166.3964289999999835
20
-118.9048189999999892
11
166.634523999999999
21
-119.9048189999999892
0
LINE
8
BLACK
6
CONTINUOUS
10
166.634523999999999
20
-119.9048189999999892
11
166.8249999999999886
21
-119.1905329999999879
0
LINE
8
BLACK
6
CONTINUOUS
10
166.8249999999999886
20
-119.1905329999999879
11
167.0154759999999783
21
-119.9048189999999892
0
LINE
8
BLACK
6
CONTINUOUS
10
167.0154759999999783
20
-119.9048189999999892
11
167.2535719999999912
21
-118.9048189999999892
0
LINE
8
BLACK
6
CONTINUOUS
10
168.1107140000000015
20
-118.9048189999999892
11
167.634523999999999
21
-118.9048189999999892
0
LINE
8
BLACK
6
CONTINUOUS
10
167.634523999999999
20
-118.9048189999999892
11
167.5869050000000016
21
-119.3810089999999917
0
LINE
8
BLACK
6
CONTINUOUS
10
167.5869050000000016
20
-119.3810089999999917
11
167.634523999999999
21
-119.3333899999999943
0
LINE
8
BLACK
6
CONTINUOUS
10
167.634523999999999
20
-119.3333899999999943
11
167.7297619999999938
21
-119.2857709999999969
0
LINE
8
BLACK
6
CONTINUOUS
10
167.7297619999999938
20
-119.2857709999999969
11
167.9678569999999809
21
-119.2857709999999969
0
LINE
8
BLACK
6
CONTINUOUS
10
167.9678569999999809
20
-119.2857709999999969
11
168.0630950000000041
21
-119.3333899999999943
0
LINE
8
BLACK
6
CONTINUOUS
10
168.0630950000000041
20
-119.3333899999999943
11
168.1107140000000015
21
-119.3810089999999917
0
LINE
8
BLACK
6
CONTINUOUS
10
168.1107140000000015
20
-119.3810089999999917
11
168.1583329999999989
21
-119.4762470000000008
0
LINE
8
BLACK
6
CONTINUOUS
10
168.1583329999999989
20
-119.4762470000000008
11
168.1583329999999989
21
-119.7143419999999878
0
LINE
8
BLACK
6
CONTINUOUS
10
168.1583329999999989
20
-119.7143419999999878
11
168.1107140000000015
21
-119.8095799999999969
0
LINE
8
BLACK
6
CONTINUOUS
10
168.1107140000000015
20
-119.8095799999999969
11
168.0630950000000041
21
-119.8571999999999917
0
LINE
8
BLACK
6
CONTINUOUS
10
168.0630950000000041
20
-119.8571999999999917
11
167.9678569999999809
21
-119.9048189999999892
0
LINE
8
BLACK
6
CONTINUOUS
10
167.9678569999999809
20
-119.9048189999999892
11
167.7297619999999938
21
-119.9048189999999892
0
LINE
8
BLACK
6
CONTINUOUS
10
167.7297619999999938
20
-119.9048189999999892
11
167.634523999999999
21
-119.8571999999999917
0
LINE
8
BLACK
6
CONTINUOUS
10
167.634523999999999
20
-119.8571999999999917
11
167.5869050000000016
21
-119.8095799999999969
0
LINE
8
BLACK
6
CONTINUOUS
10
199.3616669999999829
20
-108.5771999999999906
11
199.5045240000000035
21
-108.624818999999988
0
LINE
8
BLACK
6
CONTINUOUS
10
199.5045240000000035
20
-108.624818999999988
11
199.7426189999999906
21
-108.624818999999988
0
LINE
8
BLACK
6
CONTINUOUS
10
199.7426189999999906
20
-108.624818999999988
11
199.8378569999999854
21
-108.5771999999999906
0
LINE
8
BLACK
6
CONTINUOUS
10
199.8378569999999854
20
-108.5771999999999906
11
199.8854759999999828
21
-108.5295799999999957
0
LINE
8
BLACK
6
CONTINUOUS
10
199.8854759999999828
20
-108.5295799999999957
11
199.9330949999999802
21
-108.4343420000000009
0
LINE
8
BLACK
6
CONTINUOUS
10
199.9330949999999802
20
-108.4343420000000009
11
199.9330949999999802
21
-108.3391039999999919
0
LINE
8
BLACK
6
CONTINUOUS
10
199.9330949999999802
20
-108.3391039999999919
11
199.8854759999999828
21
-108.243865999999997
0
LINE
8
BLACK
6
CONTINUOUS
10
199.8854759999999828
20
-108.243865999999997
11
199.8378569999999854
21
-108.1962469999999996
0
LINE
8
BLACK
6
CONTINUOUS
10
199.8378569999999854
20
-108.1962469999999996
11
199.7426189999999906
21
-108.1486280000000022
0
LINE
8
BLACK
6
CONTINUOUS
10
199.7426189999999906
20
-108.1486280000000022
11
199.5521430000000009
21
-108.1010089999999906
0
LINE
8
BLACK
6
CONTINUOUS
10
199.5521430000000009
20
-108.1010089999999906
11
199.4569049999999777
21
-108.0533899999999932
0
LINE
8
BLACK
6
CONTINUOUS
10
199.4569049999999777
20
-108.0533899999999932
11
199.4092859999999803
21
-108.0057709999999958
0
LINE
8
BLACK
6
CONTINUOUS
10
199.4092859999999803
20
-108.0057709999999958
11
199.3616669999999829
21
-107.9105330000000009
0
LINE
8
BLACK
6
CONTINUOUS
10
199.3616669999999829
20
-107.9105330000000009
11
199.3616669999999829
21
-107.8152949999999919
0
LINE
8
BLACK
6
CONTINUOUS
10
199.3616669999999829
20
-107.8152949999999919
11
199.4092859999999803
21
-107.7200569999999971
0
LINE
8
BLACK
6
CONTINUOUS
10
199.4092859999999803
20
-107.7200569999999971
11
199.4569049999999777
21
-107.6724379999999996
0
LINE
8
BLACK
6
CONTINUOUS
10
199.4569049999999777
20
-107.6724379999999996
11
199.5521430000000009
21
-107.6248190000000022
0
LINE
8
BLACK
6
CONTINUOUS
10
199.5521430000000009
20
-107.6248190000000022
11
199.790237999999988
21
-107.6248190000000022
0
LINE
8
BLACK
6
CONTINUOUS
10
199.790237999999988
20
-107.6248190000000022
11
199.9330949999999802
21
-107.6724379999999996
0
LINE
8
BLACK
6
CONTINUOUS
10
200.266428999999988
20
-107.6248190000000022
11
200.5045240000000035
21
-108.624818999999988
0
LINE
8
BLACK
6
CONTINUOUS
10
200.5045240000000035
20
-108.624818999999988
11
200.6949999999999932
21
-107.9105330000000009
0
LINE
8
BLACK
6
CONTINUOUS
10
200.6949999999999932
20
-107.9105330000000009
11
200.8854759999999828
21
-108.624818999999988
0
LINE
8
BLACK
6
CONTINUOUS
10
200.8854759999999828
20
-108.624818999999988
11
201.1235719999999958
21
-107.6248190000000022
0
LINE
8
BLACK
6
CONTINUOUS
10
201.4569049999999777
20
-107.7200569999999971
11
201.5045240000000035
21
-107.6724379999999996
0
LINE
8
BLACK
6
CONTINUOUS
10
201.5045240000000035
20
-107.6724379999999996
11
201.5997619999999984
21
-107.6248190000000022
0
LINE
8
BLACK
6
CONTINUOUS
10
201.5997619999999984
20
-107.6248190000000022
11
201.8378569999999854
21
-107.6248190000000022
0
LINE
8
BLACK
6
CONTINUOUS
10
201.8378569999999854
20
-107.6248190000000022
11
201.9330949999999802
21
-107.6724379999999996
0
LINE
8
BLACK
6
CONTINUOUS
10
201.9330949999999802
20
-107.6724379999999996
11
201.9807139999999777
21
-107.7200569999999971
0
LINE
8
BLACK
6
CONTINUOUS
10
201.9807139999999777
20
-107.7200569999999971
11
202.0283330000000035
21
-107.8152949999999919
0
LINE
8
BLACK
6
CONTINUOUS
10
202.0283330000000035
20
-107.8152949999999919
11
202.0283330000000035
21
-107.9105330000000009
0
LINE
8
BLACK
6
CONTINUOUS
10
202.0283330000000035
20
-107.9105330000000009
11
201.9807139999999777
21
-108.0533899999999932
0
LINE
8
BLACK
6
CONTINUOUS
10
201.9807139999999777
20
-108.0533899999999932
11
201.4092859999999803
21
-108.624818999999988
0
LINE
8
BLACK
6
CONTINUOUS
10
201.4092859999999803
20
-108.624818999999988
11
202.0283330000000035
21
-108.624818999999988
0
LINE
8
BLACK
6
CONTINUOUS
10
214.601666999999992
20
-123.8171999999999997
11
214.7445239999999842
21
-123.8648189999999971
0
LINE
8
BLACK
6
CONTINUOUS
10
214.7445239999999842
20
-123.8648189999999971
11
214.9826189999999997
21
-123.8648189999999971
0
LINE
8
BLACK
6
CONTINUOUS
10
214.9826189999999997
20
-123.8648189999999971
11
215.0778569999999945
21
-123.8171999999999997
0
LINE
8
BLACK
6
CONTINUOUS
10
215.0778569999999945
20
-123.8171999999999997
11
215.1254759999999919
21
-123.7695799999999906
0
LINE
8
BLACK
6
CONTINUOUS
10
215.1254759999999919
20
-123.7695799999999906
11
215.1730949999999893
21
-123.6743419999999958
0
LINE
8
BLACK
6
CONTINUOUS
10
215.1730949999999893
20
-123.6743419999999958
11
215.1730949999999893
21
-123.579104000000001
0
LINE
8
BLACK
6
CONTINUOUS
10
215.1730949999999893
20
-123.579104000000001
11
215.1254759999999919
21
-123.4838659999999919
0
LINE
8
BLACK
6
CONTINUOUS
10
215.1254759999999919
20
-123.4838659999999919
11
215.0778569999999945
21
-123.4362469999999945
0
LINE
8
BLACK
6
CONTINUOUS
10
215.0778569999999945
20
-123.4362469999999945
11
214.9826189999999997
21
-123.3886279999999971
0
LINE
8
BLACK
6
CONTINUOUS
10
214.9826189999999997
20
-123.3886279999999971
11
214.7921429999999816
21
-123.3410089999999997
0
LINE
8
BLACK
6
CONTINUOUS
10
214.7921429999999816
20
-123.3410089999999997
11
214.6969049999999868
21
-123.293389999999988
0
LINE
8
BLACK
6
CONTINUOUS
10
214.6969049999999868
20
-123.293389999999988
11
214.6492859999999894
21
-123.2457709999999906
0
LINE
8
BLACK
6
CONTINUOUS
10
214.6492859999999894
20
-123.2457709999999906
11
214.601666999999992
21
-123.1505329999999958
0
LINE
8
BLACK
6
CONTINUOUS
10
214.601666999999992
20
-123.1505329999999958
11
214.601666999999992
21
-123.055295000000001
0
LINE
8
BLACK
6
CONTINUOUS
10
214.601666999999992
20
-123.055295000000001
11
214.6492859999999894
21
-122.9600569999999919
0
LINE
8
BLACK
6
CONTINUOUS
10
214.6492859999999894
20
-122.9600569999999919
11
214.6969049999999868
21
-122.9124379999999945
0
LINE
8
BLACK
6
CONTINUOUS
10
214.6969049999999868
20
-122.9124379999999945
11
214.7921429999999816
21
-122.8648189999999971
0
LINE
8
BLACK
6
CONTINUOUS
10
214.7921429999999816
20
-122.8648189999999971
11
215.0302379999999971
21
-122.8648189999999971
0
LINE
8
BLACK
6
CONTINUOUS
10
215.0302379999999971
20
-122.8648189999999971
11
215.1730949999999893
21
-122.9124379999999945
0
LINE
8
BLACK
6
CONTINUOUS
10
215.5064289999999971
20
-122.8648189999999971
11
215.7445239999999842
21
-123.8648189999999971
0
LINE
8
BLACK
6
CONTINUOUS
10
215.7445239999999842
20
-123.8648189999999971
11
215.9350000000000023
21
-123.1505329999999958
0
LINE
8
BLACK
6
CONTINUOUS
10
215.9350000000000023
20
-123.1505329999999958
11
216.1254759999999919
21
-123.8648189999999971
0
LINE
8
BLACK
6
CONTINUOUS
10
216.1254759999999919
20
-123.8648189999999971
11
216.3635719999999765
21
-122.8648189999999971
0
LINE
8
BLACK
6
CONTINUOUS
10
217.1730949999999893
20
-123.1981519999999932
11
217.1730949999999893
21
-123.8648189999999971
0
LINE
8
BLACK
6
CONTINUOUS
10
216.9350000000000023
20
-122.8171999999999997
11
216.6969049999999868
21
-123.5314849999999893
0
LINE
8
BLACK
6
CONTINUOUS
10
216.6969049999999868
20
-123.5314849999999893
11
217.3159519999999816
21
-123.5314849999999893
0
LINE
8
BLACK
6
CONTINUOUS
10
214.601666999999992
20
-93.3371999999999957
11
214.7445239999999842
21
-93.3848189999999931
0
LINE
8
BLACK
6
CONTINUOUS
10
214.7445239999999842
20
-93.3848189999999931
11
214.9826189999999997
21
-93.3848189999999931
0
LINE
8
BLACK
6
CONTINUOUS
10
214.9826189999999997
20
-93.3848189999999931
11
215.0778569999999945
21
-93.3371999999999957
0
LINE
8
BLACK
6
CONTINUOUS
10
215.0778569999999945
20
-93.3371999999999957
11
215.1254759999999919
21
-93.2895800000000008
0
LINE
8
BLACK
6
CONTINUOUS
10
215.1254759999999919
20
-93.2895800000000008
11
215.1730949999999893
21
-93.1943419999999918
0
LINE
8
BLACK
6
CONTINUOUS
10
215.1730949999999893
20
-93.1943419999999918
11
215.1730949999999893
21
-93.099103999999997
0
LINE
8
BLACK
6
CONTINUOUS
10
215.1730949999999893
20
-93.099103999999997
11
215.1254759999999919
21
-93.0038660000000021
0
LINE
8
BLACK
6
CONTINUOUS
10
215.1254759999999919
20
-93.0038660000000021
11
215.0778569999999945
21
-92.9562469999999905
0
LINE
8
BLACK
6
CONTINUOUS
10
215.0778569999999945
20
-92.9562469999999905
11
214.9826189999999997
21
-92.9086279999999931
0
LINE
8
BLACK
6
CONTINUOUS
10
214.9826189999999997
20
-92.9086279999999931
11
214.7921429999999816
21
-92.8610089999999957
0
LINE
8
BLACK
6
CONTINUOUS
10
214.7921429999999816
20
-92.8610089999999957
11
214.6969049999999868
21
-92.8133899999999983
0
LINE
8
BLACK
6
CONTINUOUS
10
214.6969049999999868
20
-92.8133899999999983
11
214.6492859999999894
21
-92.7657710000000009
0
LINE
8
BLACK
6
CONTINUOUS
10
214.6492859999999894
20
-92.7657710000000009
11
214.601666999999992
21
-92.6705329999999918
0
LINE
8
BLACK
6
CONTINUOUS
10
214.601666999999992
20
-92.6705329999999918
11
214.601666999999992
21
-92.575294999999997
0
LINE
8
BLACK
6
CONTINUOUS
10
214.601666999999992
20
-92.575294999999997
11
214.6492859999999894
21
-92.4800570000000022
0
LINE
8
BLACK
6
CONTINUOUS
10
214.6492859999999894
20
-92.4800570000000022
11
214.6969049999999868
21
-92.4324379999999906
0
LINE
8
BLACK
6
CONTINUOUS
10
214.6969049999999868
20
-92.4324379999999906
11
214.7921429999999816
21
-92.3848189999999931
0
LINE
8
BLACK
6
CONTINUOUS
10
214.7921429999999816
20
-92.3848189999999931
11
215.0302379999999971
21
-92.3848189999999931
0
LINE
8
BLACK
6
CONTINUOUS
10
215.0302379999999971
20
-92.3848189999999931
11
215.1730949999999893
21
-92.4324379999999906
0
LINE
8
BLACK
6
CONTINUOUS
10
215.5064289999999971
20
-92.3848189999999931
11
215.7445239999999842
21
-93.3848189999999931
0
LINE
8
BLACK
6
CONTINUOUS
10
215.7445239999999842
20
-93.3848189999999931
11
215.9350000000000023
21
-92.6705329999999918
0
LINE
8
BLACK
6
CONTINUOUS
10
215.9350000000000023
20
-92.6705329999999918
11
216.1254759999999919
21
-93.3848189999999931
0
LINE
8
BLACK
6
CONTINUOUS
10
216.1254759999999919
20
-93.3848189999999931
11
216.3635719999999765
21
-92.3848189999999931
0
LINE
8
BLACK
6
CONTINUOUS
10
217.2683329999999842
20
-93.3848189999999931
11
216.6969049999999868
21
-93.3848189999999931
0
LINE
8
BLACK
6
CONTINUOUS
10
216.9826189999999997
20
-93.3848189999999931
11
216.9826189999999997
21
-92.3848189999999931
0
LINE
8
BLACK
6
CONTINUOUS
10
216.9826189999999997
20
-92.3848189999999931
11
216.8873809999999764
21
-92.5276759999999996
0
LINE
8
BLACK
6
CONTINUOUS
10
216.8873809999999764
20
-92.5276759999999996
11
216.7921429999999816
21
-92.6229139999999944
0
LINE
8
BLACK
6
CONTINUOUS
10
216.7921429999999816
20
-92.6229139999999944
11
216.6969049999999868
21
-92.6705329999999918
0
LINE
8
BLACK
6
CONTINUOUS
10
167.9283329999999808
20
-117.9848190000000017
11
167.5949999999999989
21
-117.5086280000000016
0
LINE
8
BLACK
6
CONTINUOUS
10
167.3569049999999834
20
-117.9848190000000017
11
167.3569049999999834
21
-116.9848190000000017
0
LINE
8
BLACK
6
CONTINUOUS
10
167.3569049999999834
20
-116.9848190000000017
11
167.7378569999999911
21
-116.9848190000000017
0
LINE
8
BLACK
6
CONTINUOUS
10
167.7378569999999911
20
-116.9848190000000017
11
167.8330949999999859
21
-117.0324379999999991
0
LINE
8
BLACK
6
CONTINUOUS
10
167.8330949999999859
20
-117.0324379999999991
11
167.8807139999999833
21
-117.0800569999999965
0
LINE
8
BLACK
6
CONTINUOUS
10
167.8807139999999833
20
-117.0800569999999965
11
167.9283329999999808
21
-117.1752949999999913
0
LINE
8
BLACK
6
CONTINUOUS
10
167.9283329999999808
20
-117.1752949999999913
11
167.9283329999999808
21
-117.3181519999999978
0
LINE
8
BLACK
6
CONTINUOUS
10
167.9283329999999808
20
-117.3181519999999978
11
167.8807139999999833
21
-117.4133899999999926
0
LINE
8
BLACK
6
CONTINUOUS
10
167.8807139999999833
20
-117.4133899999999926
11
167.8330949999999859
21
-117.46100899999999
0
LINE
8
BLACK
6
CONTINUOUS
10
167.8330949999999859
20
-117.46100899999999
11
167.7378569999999911
21
-117.5086280000000016
0
LINE
8
BLACK
6
CONTINUOUS
10
167.7378569999999911
20
-117.5086280000000016
11
167.3569049999999834
21
-117.5086280000000016
0
LINE
8
BLACK
6
CONTINUOUS
10
168.7854759999999885
20
-116.9848190000000017
11
168.5949999999999989
21
-116.9848190000000017
0
LINE
8
BLACK
6
CONTINUOUS
10
168.5949999999999989
20
-116.9848190000000017
11
168.499762000000004
21
-117.0324379999999991
0
LINE
8
BLACK
6
CONTINUOUS
10
168.499762000000004
20
-117.0324379999999991
11
168.4521429999999782
21
-117.0800569999999965
0
LINE
8
BLACK
6
CONTINUOUS
10
168.4521429999999782
20
-117.0800569999999965
11
168.3569049999999834
21
-117.2229139999999887
0
LINE
8
BLACK
6
CONTINUOUS
10
168.3569049999999834
20
-117.2229139999999887
11
168.309285999999986
21
-117.4133899999999926
0
LINE
8
BLACK
6
CONTINUOUS
10
168.309285999999986
20
-117.4133899999999926
11
168.309285999999986
21
-117.7943420000000003
0
LINE
8
BLACK
6
CONTINUOUS
10
168.309285999999986
20
-117.7943420000000003
11
168.3569049999999834
21
-117.8895799999999952
0
LINE
8
BLACK
6
CONTINUOUS
10
168.3569049999999834
20
-117.8895799999999952
11
168.4045239999999808
21
-117.93719999999999
0
LINE
8
BLACK
6
CONTINUOUS
10
168.4045239999999808
20
-117.93719999999999
11
168.499762000000004
21
-117.9848190000000017
0
LINE
8
BLACK
6
CONTINUOUS
10
168.499762000000004
20
-117.9848190000000017
11
168.6902379999999937
21
-117.9848190000000017
0
LINE
8
BLACK
6
CONTINUOUS
10
168.6902379999999937
20
-117.9848190000000017
11
168.7854759999999885
21
-117.93719999999999
0
LINE
8
BLACK
6
CONTINUOUS
10
168.7854759999999885
20
-117.93719999999999
11
168.8330949999999859
21
-117.8895799999999952
0
LINE
8
BLACK
6
CONTINUOUS
10
168.8330949999999859
20
-117.8895799999999952
11
168.8807139999999833
21
-117.7943420000000003
0
LINE
8
BLACK
6
CONTINUOUS
10
168.8807139999999833
20
-117.7943420000000003
11
168.8807139999999833
21
-117.556246999999999
0
LINE
8
BLACK
6
CONTINUOUS
10
168.8807139999999833
20
-117.556246999999999
11
168.8330949999999859
21
-117.46100899999999
0
LINE
8
BLACK
6
CONTINUOUS
10
168.8330949999999859
20
-117.46100899999999
11
168.7854759999999885
21
-117.4133899999999926
0
LINE
8
BLACK
6
CONTINUOUS
10
168.7854759999999885
20
-117.4133899999999926
11
168.6902379999999937
21
-117.3657709999999952
0
LINE
8
BLACK
6
CONTINUOUS
10
168.6902379999999937
20
-117.3657709999999952
11
168.499762000000004
21
-117.3657709999999952
0
LINE
8
BLACK
6
CONTINUOUS
10
168.499762000000004
20
-117.3657709999999952
11
168.4045239999999808
21
-117.4133899999999926
0
LINE
8
BLACK
6
CONTINUOUS
10
168.4045239999999808
20
-117.4133899999999926
11
168.3569049999999834
21
-117.46100899999999
0
LINE
8
BLACK
6
CONTINUOUS
10
168.3569049999999834
20
-117.46100899999999
11
168.309285999999986
21
-117.556246999999999
0
LINE
8
BLACK
6
CONTINUOUS
10
209.269818999999984
20
-131.2166660000000036
11
208.793627999999984
21
-131.5499989999999855
0
LINE
8
BLACK
6
CONTINUOUS
10
209.269818999999984
20
-131.788094000000001
11
208.269818999999984
21
-131.788094000000001
0
LINE
8
BLACK
6
CONTINUOUS
10
208.269818999999984
20
-131.788094000000001
11
208.269818999999984
21
-131.4071419999999932
0
LINE
8
BLACK
6
CONTINUOUS
10
208.269818999999984
20
-131.4071419999999932
11
208.3174379999999815
21
-131.3119039999999984
0
LINE
8
BLACK
6
CONTINUOUS
10
208.3174379999999815
20
-131.3119039999999984
11
208.3650569999999789
21
-131.264285000000001
0
LINE
8
BLACK
6
CONTINUOUS
10
208.3650569999999789
20
-131.264285000000001
11
208.4602950000000021
21
-131.2166660000000036
0
LINE
8
BLACK
6
CONTINUOUS
10
208.4602950000000021
20
-131.2166660000000036
11
208.6031519999999944
21
-131.2166660000000036
0
LINE
8
BLACK
6
CONTINUOUS
10
208.6031519999999944
20
-131.2166660000000036
11
208.6983899999999892
21
-131.264285000000001
0
LINE
8
BLACK
6
CONTINUOUS
10
208.6983899999999892
20
-131.264285000000001
11
208.7460089999999866
21
-131.3119039999999984
0
LINE
8
BLACK
6
CONTINUOUS
10
208.7460089999999866
20
-131.3119039999999984
11
208.793627999999984
21
-131.4071419999999932
0
LINE
8
BLACK
6
CONTINUOUS
10
208.793627999999984
20
-131.4071419999999932
11
208.793627999999984
21
-131.788094000000001
0
LINE
8
BLACK
6
CONTINUOUS
10
208.6031519999999944
20
-130.3595229999999958
11
209.269818999999984
21
-130.3595229999999958
0
LINE
8
BLACK
6
CONTINUOUS
10
208.2221999999999866
20
-130.5976179999999829
11
208.9364850000000047
21
-130.8357129999999984
0
LINE
8
BLACK
6
CONTINUOUS
10
208.9364850000000047
20
-130.8357129999999984
11
208.9364850000000047
21
-130.2166660000000036
0
LINE
8
BLACK
6
CONTINUOUS
10
160.229818999999992
20
-128.7819039999999973
11
161.0393420000000049
21
-128.7819039999999973
0
LINE
8
BLACK
6
CONTINUOUS
10
161.0393420000000049
20
-128.7819039999999973
11
161.1345799999999997
21
-128.7342849999999999
0
LINE
8
BLACK
6
CONTINUOUS
10
161.1345799999999997
20
-128.7342849999999999
11
161.1821999999999946
21
-128.6866660000000024
0
LINE
8
BLACK
6
CONTINUOUS
10
161.1821999999999946
20
-128.6866660000000024
11
161.229818999999992
21
-128.5914280000000076
0
LINE
8
BLACK
6
CONTINUOUS
10
161.229818999999992
20
-128.5914280000000076
11
161.229818999999992
21
-128.4009519999999895
0
LINE
8
BLACK
6
CONTINUOUS
10
161.229818999999992
20
-128.4009519999999895
11
161.1821999999999946
21
-128.3057139999999947
0
LINE
8
BLACK
6
CONTINUOUS
10
161.1821999999999946
20
-128.3057139999999947
11
161.1345799999999997
21
-128.2580949999999973
0
LINE
8
BLACK
6
CONTINUOUS
10
161.1345799999999997
20
-128.2580949999999973
11
161.0393420000000049
21
-128.2104759999999999
0
LINE
8
BLACK
6
CONTINUOUS
10
161.0393420000000049
20
-128.2104759999999999
11
160.229818999999992
21
-128.2104759999999999
0
LINE
8
BLACK
6
CONTINUOUS
10
160.5631520000000023
20
-127.3057139999999947
11
161.229818999999992
21
-127.3057139999999947
0
LINE
8
BLACK
6
CONTINUOUS
10
160.1821999999999946
20
-127.543808999999996
11
160.8964849999999842
21
-127.7819039999999973
0
LINE
8
BLACK
6
CONTINUOUS
10
160.8964849999999842
20
-127.7819039999999973
11
160.8964849999999842
21
-127.1628569999999883
0
LINE
8
BLACK
6
CONTINUOUS
10
142.8488659999999868
20
-138.1009509999999807
11
142.8488659999999868
21
-137.3390469999999937
0
LINE
8
BLACK
6
CONTINUOUS
10
143.229818999999992
20
-137.7199990000000014
11
142.4679140000000075
21
-137.7199990000000014
0
LINE
8
BLACK
6
CONTINUOUS
10
149.0130949999999928
20
-139.4748189999999965
11
149.0130949999999928
21
-140.284341999999981
0
LINE
8
BLACK
6
CONTINUOUS
10
149.0130949999999928
20
-140.284341999999981
11
149.0607139999999902
21
-140.3795800000000042
0
LINE
8
BLACK
6
CONTINUOUS
10
149.0607139999999902
20
-140.3795800000000042
11
149.1083329999999876
21
-140.4271999999999991
0
LINE
8
BLACK
6
CONTINUOUS
10
149.1083329999999876
20
-140.4271999999999991
11
149.2035709999999824
21
-140.4748189999999965
0
LINE
8
BLACK
6
CONTINUOUS
10
149.2035709999999824
20
-140.4748189999999965
11
149.3940470000000005
21
-140.4748189999999965
0
LINE
8
BLACK
6
CONTINUOUS
10
149.3940470000000005
20
-140.4748189999999965
11
149.4892849999999953
21
-140.4271999999999991
0
LINE
8
BLACK
6
CONTINUOUS
10
149.4892849999999953
20
-140.4271999999999991
11
149.5369039999999927
21
-140.3795800000000042
0
LINE
8
BLACK
6
CONTINUOUS
10
149.5369039999999927
20
-140.3795800000000042
11
149.5845229999999901
21
-140.284341999999981
0
LINE
8
BLACK
6
CONTINUOUS
10
149.5845229999999901
20
-140.284341999999981
11
149.5845229999999901
21
-139.4748189999999965
0
LINE
8
BLACK
6
CONTINUOUS
10
150.0130949999999928
20
-140.4271999999999991
11
150.155951999999985
21
-140.4748189999999965
0
LINE
8
BLACK
6
CONTINUOUS
10
150.155951999999985
20
-140.4748189999999965
11
150.3940470000000005
21
-140.4748189999999965
0
LINE
8
BLACK
6
CONTINUOUS
10
150.3940470000000005
20
-140.4748189999999965
11
150.4892849999999953
21
-140.4271999999999991
0
LINE
8
BLACK
6
CONTINUOUS
10
150.4892849999999953
20
-140.4271999999999991
11
150.5369039999999927
21
-140.3795800000000042
0
LINE
8
BLACK
6
CONTINUOUS
10
150.5369039999999927
20
-140.3795800000000042
11
150.5845229999999901
21
-140.284341999999981
0
LINE
8
BLACK
6
CONTINUOUS
10
150.5845229999999901
20
-140.284341999999981
11
150.5845229999999901
21
-140.1891039999999862
0
LINE
8
BLACK
6
CONTINUOUS
10
150.5845229999999901
20
-140.1891039999999862
11
150.5369039999999927
21
-140.0938659999999913
0
LINE
8
BLACK
6
CONTINUOUS
10
150.5369039999999927
20
-140.0938659999999913
11
150.4892849999999953
21
-140.0462469999999939
0
LINE
8
BLACK
6
CONTINUOUS
10
150.4892849999999953
20
-140.0462469999999939
11
150.3940470000000005
21
-139.9986279999999965
0
LINE
8
BLACK
6
CONTINUOUS
10
150.3940470000000005
20
-139.9986279999999965
11
150.2035709999999824
21
-139.9510089999999991
0
LINE
8
BLACK
6
CONTINUOUS
10
150.2035709999999824
20
-139.9510089999999991
11
150.1083329999999876
21
-139.9033900000000017
0
LINE
8
BLACK
6
CONTINUOUS
10
150.1083329999999876
20
-139.9033900000000017
11
150.0607139999999902
21
-139.8557710000000043
0
LINE
8
BLACK
6
CONTINUOUS
10
150.0607139999999902
20
-139.8557710000000043
11
150.0130949999999928
21
-139.760532999999981
0
LINE
8
BLACK
6
CONTINUOUS
10
150.0130949999999928
20
-139.760532999999981
11
150.0130949999999928
21
-139.6652949999999862
0
LINE
8
BLACK
6
CONTINUOUS
10
150.0130949999999928
20
-139.6652949999999862
11
150.0607139999999902
21
-139.5700569999999914
0
LINE
8
BLACK
6
CONTINUOUS
10
150.0607139999999902
20
-139.5700569999999914
11
150.1083329999999876
21
-139.522437999999994
0
LINE
8
BLACK
6
CONTINUOUS
10
150.1083329999999876
20
-139.522437999999994
11
150.2035709999999824
21
-139.4748189999999965
0
LINE
8
BLACK
6
CONTINUOUS
10
150.2035709999999824
20
-139.4748189999999965
11
150.4416659999999979
21
-139.4748189999999965
0
LINE
8
BLACK
6
CONTINUOUS
10
150.4416659999999979
20
-139.4748189999999965
11
150.5845229999999901
21
-139.522437999999994
0
LINE
8
BLACK
6
CONTINUOUS
10
151.3464280000000031
20
-139.9510089999999991
11
151.4892849999999953
21
-139.9986279999999965
0
LINE
8
BLACK
6
CONTINUOUS
10
151.4892849999999953
20
-139.9986279999999965
11
151.5369039999999927
21
-140.0462469999999939
0
LINE
8
BLACK
6
CONTINUOUS
10
151.5369039999999927
20
-140.0462469999999939
11
151.5845229999999901
21
-140.1414849999999888
0
LINE
8
BLACK
6
CONTINUOUS
10
151.5845229999999901
20
-140.1414849999999888
11
151.5845229999999901
21
-140.284341999999981
0
LINE
8
BLACK
6
CONTINUOUS
10
151.5845229999999901
20
-140.284341999999981
11
151.5369039999999927
21
-140.3795800000000042
0
LINE
8
BLACK
6
CONTINUOUS
10
151.5369039999999927
20
-140.3795800000000042
11
151.4892849999999953
21
-140.4271999999999991
0
LINE
8
BLACK
6
CONTINUOUS
10
151.4892849999999953
20
-140.4271999999999991
11
151.3940470000000005
21
-140.4748189999999965
0
LINE
8
BLACK
6
CONTINUOUS
10
151.3940470000000005
20
-140.4748189999999965
11
151.0130949999999928
21
-140.4748189999999965
0
LINE
8
BLACK
6
CONTINUOUS
10
151.0130949999999928
20
-140.4748189999999965
11
151.0130949999999928
21
-139.4748189999999965
0
LINE
8
BLACK
6
CONTINUOUS
10
151.0130949999999928
20
-139.4748189999999965
11
151.3464280000000031
21
-139.4748189999999965
0
LINE
8
BLACK
6
CONTINUOUS
10
151.3464280000000031
20
-139.4748189999999965
11
151.4416659999999979
21
-139.522437999999994
0
LINE
8
BLACK
6
CONTINUOUS
10
151.4416659999999979
20
-139.522437999999994
11
151.4892849999999953
21
-139.5700569999999914
0
LINE
8
BLACK
6
CONTINUOUS
10
151.4892849999999953
20
-139.5700569999999914
11
151.5369039999999927
21
-139.6652949999999862
0
LINE
8
BLACK
6
CONTINUOUS
10
151.5369039999999927
20
-139.6652949999999862
11
151.5369039999999927
21
-139.760532999999981
0
LINE
8
BLACK
6
CONTINUOUS
10
151.5369039999999927
20
-139.760532999999981
11
151.4892849999999953
21
-139.8557710000000043
0
LINE
8
BLACK
6
CONTINUOUS
10
151.4892849999999953
20
-139.8557710000000043
11
151.4416659999999979
21
-139.9033900000000017
0
LINE
8
BLACK
6
CONTINUOUS
10
151.4416659999999979
20
-139.9033900000000017
11
151.3464280000000031
21
-139.9510089999999991
0
LINE
8
BLACK
6
CONTINUOUS
10
151.3464280000000031
20
-139.9510089999999991
11
151.0130949999999928
21
-139.9510089999999991
0
LINE
8
BLACK
6
CONTINUOUS
10
150.0060090000000059
20
-135.5628580000000056
11
150.0536280000000033
21
-135.420000999999985
0
LINE
8
BLACK
6
CONTINUOUS
10
150.0536280000000033
20
-135.420000999999985
11
150.1012470000000008
21
-135.3723819999999876
0
LINE
8
BLACK
6
CONTINUOUS
10
150.1012470000000008
20
-135.3723819999999876
11
150.1964849999999956
21
-135.3247629999999901
0
LINE
8
BLACK
6
CONTINUOUS
10
150.1964849999999956
20
-135.3247629999999901
11
150.3393419999999878
21
-135.3247629999999901
0
LINE
8
BLACK
6
CONTINUOUS
10
150.3393419999999878
20
-135.3247629999999901
11
150.4345799999999826
21
-135.3723819999999876
0
LINE
8
BLACK
6
CONTINUOUS
10
150.4345799999999826
20
-135.3723819999999876
11
150.482200000000006
21
-135.420000999999985
0
LINE
8
BLACK
6
CONTINUOUS
10
150.482200000000006
20
-135.420000999999985
11
150.5298190000000034
21
-135.5152389999999798
0
LINE
8
BLACK
6
CONTINUOUS
10
150.5298190000000034
20
-135.5152389999999798
11
150.5298190000000034
21
-135.8961909999999875
0
LINE
8
BLACK
6
CONTINUOUS
10
150.5298190000000034
20
-135.8961909999999875
11
149.5298190000000034
21
-135.8961909999999875
0
LINE
8
BLACK
6
CONTINUOUS
10
149.5298190000000034
20
-135.8961909999999875
11
149.5298190000000034
21
-135.5628580000000056
0
LINE
8
BLACK
6
CONTINUOUS
10
149.5298190000000034
20
-135.5628580000000056
11
149.5774380000000008
21
-135.4676199999999824
0
LINE
8
BLACK
6
CONTINUOUS
10
149.5774380000000008
20
-135.4676199999999824
11
149.6250569999999982
21
-135.420000999999985
0
LINE
8
BLACK
6
CONTINUOUS
10
149.6250569999999982
20
-135.420000999999985
11
149.720294999999993
21
-135.3723819999999876
0
LINE
8
BLACK
6
CONTINUOUS
10
149.720294999999993
20
-135.3723819999999876
11
149.8155329999999879
21
-135.3723819999999876
0
LINE
8
BLACK
6
CONTINUOUS
10
149.8155329999999879
20
-135.3723819999999876
11
149.9107709999999827
21
-135.420000999999985
0
LINE
8
BLACK
6
CONTINUOUS
10
149.9107709999999827
20
-135.420000999999985
11
149.9583899999999801
21
-135.4676199999999824
0
LINE
8
BLACK
6
CONTINUOUS
10
149.9583899999999801
20
-135.4676199999999824
11
150.0060090000000059
21
-135.5628580000000056
0
LINE
8
BLACK
6
CONTINUOUS
10
150.0060090000000059
20
-135.5628580000000056
11
150.0060090000000059
21
-135.8961909999999875
0
LINE
8
BLACK
6
CONTINUOUS
10
150.5298190000000034
20
-134.4676199999999824
11
150.0060090000000059
21
-134.4676199999999824
0
LINE
8
BLACK
6
CONTINUOUS
10
150.0060090000000059
20
-134.4676199999999824
11
149.9107709999999827
21
-134.5152389999999798
0
LINE
8
BLACK
6
CONTINUOUS
10
149.9107709999999827
20
-134.5152389999999798
11
149.8631519999999853
21
-134.610477000000003
0
LINE
8
BLACK
6
CONTINUOUS
10
149.8631519999999853
20
-134.610477000000003
11
149.8631519999999853
21
-134.8009529999999927
0
LINE
8
BLACK
6
CONTINUOUS
10
149.8631519999999853
20
-134.8009529999999927
11
149.9107709999999827
21
-134.8961909999999875
0
LINE
8
BLACK
6
CONTINUOUS
10
150.482200000000006
20
-134.4676199999999824
11
150.5298190000000034
21
-134.5628580000000056
0
LINE
8
BLACK
6
CONTINUOUS
10
150.5298190000000034
20
-134.5628580000000056
11
150.5298190000000034
21
-134.8009529999999927
0
LINE
8
BLACK
6
CONTINUOUS
10
150.5298190000000034
20
-134.8009529999999927
11
150.482200000000006
21
-134.8961909999999875
0
LINE
8
BLACK
6
CONTINUOUS
10
150.482200000000006
20
-134.8961909999999875
11
150.3869609999999852
21
-134.9438099999999849
0
LINE
8
BLACK
6
CONTINUOUS
10
150.3869609999999852
20
-134.9438099999999849
11
150.2917229999999904
21
-134.9438099999999849
0
LINE
8
BLACK
6
CONTINUOUS
10
150.2917229999999904
20
-134.9438099999999849
11
150.1964849999999956
21
-134.8961909999999875
0
LINE
8
BLACK
6
CONTINUOUS
10
150.1964849999999956
20
-134.8961909999999875
11
150.1488659999999982
21
-134.8009529999999927
0
LINE
8
BLACK
6
CONTINUOUS
10
150.1488659999999982
20
-134.8009529999999927
11
150.1488659999999982
21
-134.5628580000000056
0
LINE
8
BLACK
6
CONTINUOUS
10
150.1488659999999982
20
-134.5628580000000056
11
150.1012470000000008
21
-134.4676199999999824
0
LINE
8
BLACK
6
CONTINUOUS
10
149.8631519999999853
20
-134.134286000000003
11
149.8631519999999853
21
-133.7533339999999953
0
LINE
8
BLACK
6
CONTINUOUS
10
149.5298190000000034
20
-133.9914289999999824
11
150.3869609999999852
21
-133.9914289999999824
0
LINE
8
BLACK
6
CONTINUOUS
10
150.3869609999999852
20
-133.9914289999999824
11
150.482200000000006
21
-133.9438099999999849
0
LINE
8
BLACK
6
CONTINUOUS
10
150.482200000000006
20
-133.9438099999999849
11
150.5298190000000034
21
-133.8485719999999901
0
LINE
8
BLACK
6
CONTINUOUS
10
150.5298190000000034
20
-133.8485719999999901
11
150.5298190000000034
21
-133.7533339999999953
0
LINE
8
BLACK
6
CONTINUOUS
10
149.8631519999999853
20
-133.5628570000000082
11
149.8631519999999853
21
-133.1819050000000004
0
LINE
8
BLACK
6
CONTINUOUS
10
149.5298190000000034
20
-133.4199999999999875
11
150.3869609999999852
21
-133.4199999999999875
0
LINE
8
BLACK
6
CONTINUOUS
10
150.3869609999999852
20
-133.4199999999999875
11
150.482200000000006
21
-133.3723809999999901
0
LINE
8
BLACK
6
CONTINUOUS
10
150.482200000000006
20
-133.3723809999999901
11
150.5298190000000034
21
-133.2771429999999953
0
LINE
8
BLACK
6
CONTINUOUS
10
150.5298190000000034
20
-133.2771429999999953
11
150.5298190000000034
21
-133.1819050000000004
0
LINE
8
BLACK
6
CONTINUOUS
10
150.482200000000006
20
-132.4676189999999849
11
150.5298190000000034
21
-132.5628570000000082
0
LINE
8
BLACK
6
CONTINUOUS
10
150.5298190000000034
20
-132.5628570000000082
11
150.5298190000000034
21
-132.7533329999999978
0
LINE
8
BLACK
6
CONTINUOUS
10
150.5298190000000034
20
-132.7533329999999978
11
150.482200000000006
21
-132.8485709999999926
0
LINE
8
BLACK
6
CONTINUOUS
10
150.482200000000006
20
-132.8485709999999926
11
150.3869609999999852
21
-132.8961899999999901
0
LINE
8
BLACK
6
CONTINUOUS
10
150.3869609999999852
20
-132.8961899999999901
11
150.0060090000000059
21
-132.8961899999999901
0
LINE
8
BLACK
6
CONTINUOUS
10
150.0060090000000059
20
-132.8961899999999901
11
149.9107709999999827
21
-132.8485709999999926
0
LINE
8
BLACK
6
CONTINUOUS
10
149.9107709999999827
20
-132.8485709999999926
11
149.8631519999999853
21
-132.7533329999999978
0
LINE
8
BLACK
6
CONTINUOUS
10
149.8631519999999853
20
-132.7533329999999978
11
149.8631519999999853
21
-132.5628570000000082
0
LINE
8
BLACK
6
CONTINUOUS
10
149.8631519999999853
20
-132.5628570000000082
11
149.9107709999999827
21
-132.4676189999999849
0
LINE
8
BLACK
6
CONTINUOUS
10
149.9107709999999827
20
-132.4676189999999849
11
150.0060090000000059
21
-132.4199999999999875
0
LINE
8
BLACK
6
CONTINUOUS
10
150.0060090000000059
20
-132.4199999999999875
11
150.1012470000000008
21
-132.4199999999999875
0
LINE
8
BLACK
6
CONTINUOUS
10
150.1012470000000008
20
-132.4199999999999875
11
150.1964849999999956
21
-132.8961899999999901
0
LINE
8
BLACK
6
CONTINUOUS
10
150.5298190000000034
20
-131.9914279999999849
11
149.8631519999999853
21
-131.9914279999999849
0
LINE
8
BLACK
6
CONTINUOUS
10
150.0536280000000033
20
-131.9914279999999849
11
149.9583899999999801
21
-131.9438089999999875
0
LINE
8
BLACK
6
CONTINUOUS
10
149.9583899999999801
20
-131.9438089999999875
11
149.9107709999999827
21
-131.8961899999999901
0
LINE
8
BLACK
6
CONTINUOUS
10
149.9107709999999827
20
-131.8961899999999901
11
149.8631519999999853
21
-131.8009519999999952
0
LINE
8
BLACK
6
CONTINUOUS
10
149.8631519999999853
20
-131.8009519999999952
11
149.8631519999999853
21
-131.7057140000000004
0
LINE
8
BLACK
6
CONTINUOUS
10
149.8631519999999853
20
-131.4676179999999874
11
150.5298190000000034
21
-131.2295230000000004
0
LINE
8
BLACK
6
CONTINUOUS
10
149.8631519999999853
20
-130.9914279999999849
11
150.5298190000000034
21
-131.2295230000000004
0
LINE
8
BLACK
6
CONTINUOUS
10
150.5298190000000034
20
-131.2295230000000004
11
150.7679139999999904
21
-131.3247609999999952
0
LINE
8
BLACK
6
CONTINUOUS
10
150.7679139999999904
20
-131.3247609999999952
11
150.8155329999999879
21
-131.3723799999999926
0
LINE
8
BLACK
6
CONTINUOUS
10
150.8155329999999879
20
-131.3723799999999926
11
150.8631519999999853
21
-131.4676179999999874
0
LINE
8
BLACK
6
CONTINUOUS
10
150.4345799999999826
20
-129.2771419999999978
11
150.482200000000006
21
-129.3247609999999952
0
LINE
8
BLACK
6
CONTINUOUS
10
150.482200000000006
20
-129.3247609999999952
11
150.5298190000000034
21
-129.4676179999999874
0
LINE
8
BLACK
6
CONTINUOUS
10
150.5298190000000034
20
-129.4676179999999874
11
150.5298190000000034
21
-129.5628559999999823
0
LINE
8
BLACK
6
CONTINUOUS
10
150.5298190000000034
20
-129.5628559999999823
11
150.482200000000006
21
-129.7057130000000029
0
LINE
8
BLACK
6
CONTINUOUS
10
150.482200000000006
20
-129.7057130000000029
11
150.3869609999999852
21
-129.8009509999999977
0
LINE
8
BLACK
6
CONTINUOUS
10
150.3869609999999852
20
-129.8009509999999977
11
150.2917229999999904
21
-129.8485699999999952
0
LINE
8
BLACK
6
CONTINUOUS
10
150.2917229999999904
20
-129.8485699999999952
11
150.1012470000000008
21
-129.8961889999999926
0
LINE
8
BLACK
6
CONTINUOUS
10
150.1012470000000008
20
-129.8961889999999926
11
149.9583899999999801
21
-129.8961889999999926
0
LINE
8
BLACK
6
CONTINUOUS
10
149.9583899999999801
20
-129.8961889999999926
11
149.7679139999999904
21
-129.8485699999999952
0
LINE
8
BLACK
6
CONTINUOUS
10
149.7679139999999904
20
-129.8485699999999952
11
149.6726759999999956
21
-129.8009509999999977
0
LINE
8
BLACK
6
CONTINUOUS
10
149.6726759999999956
20
-129.8009509999999977
11
149.5774380000000008
21
-129.7057130000000029
0
LINE
8
BLACK
6
CONTINUOUS
10
149.5774380000000008
20
-129.7057130000000029
11
149.5298190000000034
21
-129.5628559999999823
0
LINE
8
BLACK
6
CONTINUOUS
10
149.5298190000000034
20
-129.5628559999999823
11
149.5298190000000034
21
-129.4676179999999874
0
LINE
8
BLACK
6
CONTINUOUS
10
149.5298190000000034
20
-129.4676179999999874
11
149.5774380000000008
21
-129.3247609999999952
0
LINE
8
BLACK
6
CONTINUOUS
10
149.5774380000000008
20
-129.3247609999999952
11
149.6250569999999982
21
-129.2771419999999978
0
LINE
8
BLACK
6
CONTINUOUS
10
150.5298190000000034
20
-128.8485699999999952
11
149.5298190000000034
21
-128.8485699999999952
0
LINE
8
BLACK
6
CONTINUOUS
10
150.5298190000000034
20
-128.41999899999999
11
150.0060090000000059
21
-128.41999899999999
0
LINE
8
BLACK
6
CONTINUOUS
10
150.0060090000000059
20
-128.41999899999999
11
149.9107709999999827
21
-128.4676179999999874
0
LINE
8
BLACK
6
CONTINUOUS
10
149.9107709999999827
20
-128.4676179999999874
11
149.8631519999999853
21
-128.5628559999999823
0
LINE
8
BLACK
6
CONTINUOUS
10
149.8631519999999853
20
-128.5628559999999823
11
149.8631519999999853
21
-128.7057130000000029
0
LINE
8
BLACK
6
CONTINUOUS
10
149.8631519999999853
20
-128.7057130000000029
11
149.9107709999999827
21
-128.8009509999999977
0
LINE
8
BLACK
6
CONTINUOUS
10
149.9107709999999827
20
-128.8009509999999977
11
149.9583899999999801
21
-128.8485699999999952
0
LINE
8
BLACK
6
CONTINUOUS
10
150.5298190000000034
20
-127.5152369999999991
11
150.0060090000000059
21
-127.5152369999999991
0
LINE
8
BLACK
6
CONTINUOUS
10
150.0060090000000059
20
-127.5152369999999991
11
149.9107709999999827
21
-127.5628559999999965
0
LINE
8
BLACK
6
CONTINUOUS
10
149.9107709999999827
20
-127.5628559999999965
11
149.8631519999999853
21
-127.6580939999999913
0
LINE
8
BLACK
6
CONTINUOUS
10
149.8631519999999853
20
-127.6580939999999913
11
149.8631519999999853
21
-127.8485699999999952
0
LINE
8
BLACK
6
CONTINUOUS
10
149.8631519999999853
20
-127.8485699999999952
11
149.9107709999999827
21
-127.94380799999999
0
LINE
8
BLACK
6
CONTINUOUS
10
150.482200000000006
20
-127.5152369999999991
11
150.5298190000000034
21
-127.6104749999999939
0
LINE
8
BLACK
6
CONTINUOUS
10
150.5298190000000034
20
-127.6104749999999939
11
150.5298190000000034
21
-127.8485699999999952
0
LINE
8
BLACK
6
CONTINUOUS
10
150.5298190000000034
20
-127.8485699999999952
11
150.482200000000006
21
-127.94380799999999
0
LINE
8
BLACK
6
CONTINUOUS
10
150.482200000000006
20
-127.94380799999999
11
150.3869609999999852
21
-127.9914269999999874
0
LINE
8
BLACK
6
CONTINUOUS
10
150.3869609999999852
20
-127.9914269999999874
11
150.2917229999999904
21
-127.9914269999999874
0
LINE
8
BLACK
6
CONTINUOUS
10
150.2917229999999904
20
-127.9914269999999874
11
150.1964849999999956
21
-127.94380799999999
0
LINE
8
BLACK
6
CONTINUOUS
10
150.1964849999999956
20
-127.94380799999999
11
150.1488659999999982
21
-127.8485699999999952
0
LINE
8
BLACK
6
CONTINUOUS
10
150.1488659999999982
20
-127.8485699999999952
11
150.1488659999999982
21
-127.6104749999999939
0
LINE
8
BLACK
6
CONTINUOUS
10
150.1488659999999982
20
-127.6104749999999939
11
150.1012470000000008
21
-127.5152369999999991
0
LINE
8
BLACK
6
CONTINUOUS
10
150.5298190000000034
20
-127.039045999999999
11
149.8631519999999853
21
-127.039045999999999
0
LINE
8
BLACK
6
CONTINUOUS
10
150.0536280000000033
20
-127.039045999999999
11
149.9583899999999801
21
-126.9914269999999874
0
LINE
8
BLACK
6
CONTINUOUS
10
149.9583899999999801
20
-126.9914269999999874
11
149.9107709999999827
21
-126.94380799999999
0
LINE
8
BLACK
6
CONTINUOUS
10
149.9107709999999827
20
-126.94380799999999
11
149.8631519999999853
21
-126.8485699999999952
0
LINE
8
BLACK
6
CONTINUOUS
10
149.8631519999999853
20
-126.8485699999999952
11
149.8631519999999853
21
-126.7533320000000003
0
LINE
8
BLACK
6
CONTINUOUS
10
149.8631519999999853
20
-125.9914269999999874
11
150.6726759999999956
21
-125.9914269999999874
0
LINE
8
BLACK
6
CONTINUOUS
10
150.6726759999999956
20
-125.9914269999999874
11
150.7679139999999904
21
-126.039045999999999
0
LINE
8
BLACK
6
CONTINUOUS
10
150.7679139999999904
20
-126.039045999999999
11
150.8155329999999879
21
-126.0866649999999964
0
LINE
8
BLACK
6
CONTINUOUS
10
150.8155329999999879
20
-126.0866649999999964
11
150.8631519999999853
21
-126.1819029999999913
0
LINE
8
BLACK
6
CONTINUOUS
10
150.8631519999999853
20
-126.1819029999999913
11
150.8631519999999853
21
-126.3247599999999977
0
LINE
8
BLACK
6
CONTINUOUS
10
150.8631519999999853
20
-126.3247599999999977
11
150.8155329999999879
21
-126.4199979999999925
0
LINE
8
BLACK
6
CONTINUOUS
10
150.482200000000006
20
-125.9914269999999874
11
150.5298190000000034
21
-126.0866649999999964
0
LINE
8
BLACK
6
CONTINUOUS
10
150.5298190000000034
20
-126.0866649999999964
11
150.5298190000000034
21
-126.2771410000000003
0
LINE
8
BLACK
6
CONTINUOUS
10
150.5298190000000034
20
-126.2771410000000003
11
150.482200000000006
21
-126.3723789999999951
0
LINE
8
BLACK
6
CONTINUOUS
10
150.482200000000006
20
-126.3723789999999951
11
150.4345799999999826
21
-126.4199979999999925
0
LINE
8
BLACK
6
CONTINUOUS
10
150.4345799999999826
20
-126.4199979999999925
11
150.3393419999999878
21
-126.46761699999999
0
LINE
8
BLACK
6
CONTINUOUS
10
150.3393419999999878
20
-126.46761699999999
11
150.0536280000000033
21
-126.46761699999999
0
LINE
8
BLACK
6
CONTINUOUS
10
150.0536280000000033
20
-126.46761699999999
11
149.9583899999999801
21
-126.4199979999999925
0
LINE
8
BLACK
6
CONTINUOUS
10
149.9583899999999801
20
-126.4199979999999925
11
149.9107709999999827
21
-126.3723789999999951
0
LINE
8
BLACK
6
CONTINUOUS
10
149.9107709999999827
20
-126.3723789999999951
11
149.8631519999999853
21
-126.2771410000000003
0
LINE
8
BLACK
6
CONTINUOUS
10
149.8631519999999853
20
-126.2771410000000003
11
149.8631519999999853
21
-126.0866649999999964
0
LINE
8
BLACK
6
CONTINUOUS
10
149.8631519999999853
20
-126.0866649999999964
11
149.9107709999999827
21
-125.9914269999999874
0
LINE
8
BLACK
6
CONTINUOUS
10
150.482200000000006
20
-125.1342839999999939
11
150.5298190000000034
21
-125.2295219999999887
0
LINE
8
BLACK
6
CONTINUOUS
10
150.5298190000000034
20
-125.2295219999999887
11
150.5298190000000034
21
-125.4199979999999925
0
LINE
8
BLACK
6
CONTINUOUS
10
150.5298190000000034
20
-125.4199979999999925
11
150.482200000000006
21
-125.5152359999999874
0
LINE
8
BLACK
6
CONTINUOUS
10
150.482200000000006
20
-125.5152359999999874
11
150.3869609999999852
21
-125.562854999999999
0
LINE
8
BLACK
6
CONTINUOUS
10
150.3869609999999852
20
-125.562854999999999
11
150.0060090000000059
21
-125.562854999999999
0
LINE
8
BLACK
6
CONTINUOUS
10
150.0060090000000059
20
-125.562854999999999
11
149.9107709999999827
21
-125.5152359999999874
0
LINE
8
BLACK
6
CONTINUOUS
10
149.9107709999999827
20
-125.5152359999999874
11
149.8631519999999853
21
-125.4199979999999925
0
LINE
8
BLACK
6
CONTINUOUS
10
149.8631519999999853
20
-125.4199979999999925
11
149.8631519999999853
21
-125.2295219999999887
0
LINE
8
BLACK
6
CONTINUOUS
10
149.8631519999999853
20
-125.2295219999999887
11
149.9107709999999827
21
-125.1342839999999939
0
LINE
8
BLACK
6
CONTINUOUS
10
149.9107709999999827
20
-125.1342839999999939
11
150.0060090000000059
21
-125.0866649999999964
0
LINE
8
BLACK
6
CONTINUOUS
10
150.0060090000000059
20
-125.0866649999999964
11
150.1012470000000008
21
-125.0866649999999964
0
LINE
8
BLACK
6
CONTINUOUS
10
150.1012470000000008
20
-125.0866649999999964
11
150.1964849999999956
21
-125.562854999999999
0
LINE
8
BLACK
6
CONTINUOUS
10
150.5298190000000034
20
-124.6580929999999938
11
149.8631519999999853
21
-124.6580929999999938
0
LINE
8
BLACK
6
CONTINUOUS
10
150.0536280000000033
20
-124.6580929999999938
11
149.9583899999999801
21
-124.6104739999999964
0
LINE
8
BLACK
6
CONTINUOUS
10
149.9583899999999801
20
-124.6104739999999964
11
149.9107709999999827
21
-124.562854999999999
0
LINE
8
BLACK
6
CONTINUOUS
10
149.9107709999999827
20
-124.562854999999999
11
149.8631519999999853
21
-124.46761699999999
0
LINE
8
BLACK
6
CONTINUOUS
10
149.8631519999999853
20
-124.46761699999999
11
149.8631519999999853
21
-124.3723789999999951
0
LINE
8
BLACK
6
CONTINUOUS
10
150.5298190000000034
20
-122.7533309999999886
11
150.5298190000000034
21
-123.3247590000000002
0
LINE
8
BLACK
6
CONTINUOUS
10
150.5298190000000034
20
-123.0390449999999873
11
149.5298190000000034
21
-123.0390449999999873
0
LINE
8
BLACK
6
CONTINUOUS
10
149.5298190000000034
20
-123.0390449999999873
11
149.6726759999999956
21
-123.1342829999999964
0
LINE
8
BLACK
6
CONTINUOUS
10
149.6726759999999956
20
-123.1342829999999964
11
149.7679139999999904
21
-123.2295209999999912
0
LINE
8
BLACK
6
CONTINUOUS
10
149.7679139999999904
20
-123.2295209999999912
11
149.8155329999999879
21
-123.3247590000000002
0
LINE
8
BLACK
6
CONTINUOUS
10
150.244103999999993
20
-122.3723779999999977
11
150.244103999999993
21
-121.8961879999999951
0
LINE
8
BLACK
6
CONTINUOUS
10
150.5298190000000034
20
-122.4676159999999925
11
149.5298190000000034
21
-122.1342829999999964
0
LINE
8
BLACK
6
CONTINUOUS
10
149.5298190000000034
20
-122.1342829999999964
11
150.5298190000000034
21
-121.8009500000000003
0
LINE
8
BLACK
6
CONTINUOUS
10
153.8060089999999889
20
-120.4676180000000016
11
153.8536279999999863
21
-120.3247609999999952
0
LINE
8
BLACK
6
CONTINUOUS
10
153.8536279999999863
20
-120.3247609999999952
11
153.9012469999999837
21
-120.2771419999999978
0
LINE
8
BLACK
6
CONTINUOUS
10
153.9012469999999837
20
-120.2771419999999978
11
153.9964850000000069
21
-120.2295230000000004
0
LINE
8
BLACK
6
CONTINUOUS
10
153.9964850000000069
20
-120.2295230000000004
11
154.1393419999999992
21
-120.2295230000000004
0
LINE
8
BLACK
6
CONTINUOUS
10
154.1393419999999992
20
-120.2295230000000004
11
154.234579999999994
21
-120.2771419999999978
0
LINE
8
BLACK
6
CONTINUOUS
10
154.234579999999994
20
-120.2771419999999978
11
154.2821999999999889
21
-120.3247609999999952
0
LINE
8
BLACK
6
CONTINUOUS
10
154.2821999999999889
20
-120.3247609999999952
11
154.3298189999999863
21
-120.41999899999999
0
LINE
8
BLACK
6
CONTINUOUS
10
154.3298189999999863
20
-120.41999899999999
11
154.3298189999999863
21
-120.8009509999999977
0
LINE
8
BLACK
6
CONTINUOUS
10
154.3298189999999863
20
-120.8009509999999977
11
153.3298189999999863
21
-120.8009509999999977
0
LINE
8
BLACK
6
CONTINUOUS
10
153.3298189999999863
20
-120.8009509999999977
11
153.3298189999999863
21
-120.4676180000000016
0
LINE
8
BLACK
6
CONTINUOUS
10
153.3298189999999863
20
-120.4676180000000016
11
153.3774379999999837
21
-120.3723799999999926
0
LINE
8
BLACK
6
CONTINUOUS
10
153.3774379999999837
20
-120.3723799999999926
11
153.4250569999999811
21
-120.3247609999999952
0
LINE
8
BLACK
6
CONTINUOUS
10
153.4250569999999811
20
-120.3247609999999952
11
153.5202950000000044
21
-120.2771419999999978
0
LINE
8
BLACK
6
CONTINUOUS
10
153.5202950000000044
20
-120.2771419999999978
11
153.6155329999999992
21
-120.2771419999999978
0
LINE
8
BLACK
6
CONTINUOUS
10
153.6155329999999992
20
-120.2771419999999978
11
153.710770999999994
21
-120.3247609999999952
0
LINE
8
BLACK
6
CONTINUOUS
10
153.710770999999994
20
-120.3247609999999952
11
153.7583899999999915
21
-120.3723799999999926
0
LINE
8
BLACK
6
CONTINUOUS
10
153.7583899999999915
20
-120.3723799999999926
11
153.8060089999999889
21
-120.4676180000000016
0
LINE
8
BLACK
6
CONTINUOUS
10
153.8060089999999889
20
-120.4676180000000016
11
153.8060089999999889
21
-120.8009509999999977
0
LINE
8
BLACK
6
CONTINUOUS
10
153.9488659999999811
20
-119.8009509999999977
11
153.9488659999999811
21
-119.0390469999999965
0
LINE
8
BLACK
6
CONTINUOUS
10
154.3774379999999837
20
-140.5819039999999802
11
154.3298189999999863
21
-140.6771420000000035
0
LINE
8
BLACK
6
CONTINUOUS
10
154.3298189999999863
20
-140.6771420000000035
11
154.3298189999999863
21
-140.8199989999999957
0
LINE
8
BLACK
6
CONTINUOUS
10
154.3298189999999863
20
-140.8199989999999957
11
154.3774379999999837
21
-140.9628559999999879
0
LINE
8
BLACK
6
CONTINUOUS
10
154.3774379999999837
20
-140.9628559999999879
11
154.472676000000007
21
-141.0580939999999828
0
LINE
8
BLACK
6
CONTINUOUS
10
154.472676000000007
20
-141.0580939999999828
11
154.5679140000000018
21
-141.1057129999999802
0
LINE
8
BLACK
6
CONTINUOUS
10
154.5679140000000018
20
-141.1057129999999802
11
154.7583899999999915
21
-141.153332000000006
0
LINE
8
BLACK
6
CONTINUOUS
10
154.7583899999999915
20
-141.153332000000006
11
154.9012469999999837
21
-141.153332000000006
0
LINE
8
BLACK
6
CONTINUOUS
10
154.9012469999999837
20
-141.153332000000006
11
155.0917230000000018
21
-141.1057129999999802
0
LINE
8
BLACK
6
CONTINUOUS
10
155.0917230000000018
20
-141.1057129999999802
11
155.1869609999999966
21
-141.0580939999999828
0
LINE
8
BLACK
6
CONTINUOUS
10
155.1869609999999966
20
-141.0580939999999828
11
155.2821999999999889
21
-140.9628559999999879
0
LINE
8
BLACK
6
CONTINUOUS
10
155.2821999999999889
20
-140.9628559999999879
11
155.3298189999999863
21
-140.8199989999999957
0
LINE
8
BLACK
6
CONTINUOUS
10
155.3298189999999863
20
-140.8199989999999957
11
155.3298189999999863
21
-140.7247610000000009
0
LINE
8
BLACK
6
CONTINUOUS
10
155.3298189999999863
20
-140.7247610000000009
11
155.2821999999999889
21
-140.5819039999999802
0
LINE
8
BLACK
6
CONTINUOUS
10
155.2821999999999889
20
-140.5819039999999802
11
155.234579999999994
21
-140.5342849999999828
0
LINE
8
BLACK
6
CONTINUOUS
10
155.234579999999994
20
-140.5342849999999828
11
154.9012469999999837
21
-140.5342849999999828
0
LINE
8
BLACK
6
CONTINUOUS
10
154.9012469999999837
20
-140.5342849999999828
11
154.9012469999999837
21
-140.7247610000000009
0
LINE
8
BLACK
6
CONTINUOUS
10
155.3298189999999863
20
-140.1057129999999802
11
154.3298189999999863
21
-140.1057129999999802
0
LINE
8
BLACK
6
CONTINUOUS
10
154.3298189999999863
20
-140.1057129999999802
11
155.3298189999999863
21
-139.5342849999999828
0
LINE
8
BLACK
6
CONTINUOUS
10
155.3298189999999863
20
-139.5342849999999828
11
154.3298189999999863
21
-139.5342849999999828
0
LINE
8
BLACK
6
CONTINUOUS
10
155.3298189999999863
20
-139.0580939999999828
11
154.3298189999999863
21
-139.0580939999999828
0
LINE
8
BLACK
6
CONTINUOUS
10
154.3298189999999863
20
-139.0580939999999828
11
154.3298189999999863
21
-138.8199989999999957
0
LINE
8
BLACK
6
CONTINUOUS
10
154.3298189999999863
20
-138.8199989999999957
11
154.3774379999999837
21
-138.6771420000000035
0
LINE
8
BLACK
6
CONTINUOUS
10
154.3774379999999837
20
-138.6771420000000035
11
154.472676000000007
21
-138.5819039999999802
0
LINE
8
BLACK
6
CONTINUOUS
10
154.472676000000007
20
-138.5819039999999802
11
154.5679140000000018
21
-138.5342849999999828
0
LINE
8
BLACK
6
CONTINUOUS
10
154.5679140000000018
20
-138.5342849999999828
11
154.7583899999999915
21
-138.4866659999999854
0
LINE
8
BLACK
6
CONTINUOUS
10
154.7583899999999915
20
-138.4866659999999854
11
154.9012469999999837
21
-138.4866659999999854
0
LINE
8
BLACK
6
CONTINUOUS
10
154.9012469999999837
20
-138.4866659999999854
11
155.0917230000000018
21
-138.5342849999999828
0
LINE
8
BLACK
6
CONTINUOUS
10
155.0917230000000018
20
-138.5342849999999828
11
155.1869609999999966
21
-138.5819039999999802
0
LINE
8
BLACK
6
CONTINUOUS
10
155.1869609999999966
20
-138.5819039999999802
11
155.2821999999999889
21
-138.6771420000000035
0
LINE
8
BLACK
6
CONTINUOUS
10
155.2821999999999889
20
-138.6771420000000035
11
155.3298189999999863
21
-138.8199989999999957
0
LINE
8
BLACK
6
CONTINUOUS
10
155.3298189999999863
20
-138.8199989999999957
11
155.3298189999999863
21
-139.0580939999999828
0
LINE
8
BLACK
6
CONTINUOUS
10
146.2060089999999946
20
-120.4676180000000016
11
146.253627999999992
21
-120.3247609999999952
0
LINE
8
BLACK
6
CONTINUOUS
10
146.253627999999992
20
-120.3247609999999952
11
146.3012469999999894
21
-120.2771419999999978
0
LINE
8
BLACK
6
CONTINUOUS
10
146.3012469999999894
20
-120.2771419999999978
11
146.3964849999999842
21
-120.2295230000000004
0
LINE
8
BLACK
6
CONTINUOUS
10
146.3964849999999842
20
-120.2295230000000004
11
146.5393420000000049
21
-120.2295230000000004
0
LINE
8
BLACK
6
CONTINUOUS
10
146.5393420000000049
20
-120.2295230000000004
11
146.6345799999999997
21
-120.2771419999999978
0
LINE
8
BLACK
6
CONTINUOUS
10
146.6345799999999997
20
-120.2771419999999978
11
146.6821999999999946
21
-120.3247609999999952
0
LINE
8
BLACK
6
CONTINUOUS
10
146.6821999999999946
20
-120.3247609999999952
11
146.729818999999992
21
-120.41999899999999
0
LINE
8
BLACK
6
CONTINUOUS
10
146.729818999999992
20
-120.41999899999999
11
146.729818999999992
21
-120.8009509999999977
0
LINE
8
BLACK
6
CONTINUOUS
10
146.729818999999992
20
-120.8009509999999977
11
145.729818999999992
21
-120.8009509999999977
0
LINE
8
BLACK
6
CONTINUOUS
10
145.729818999999992
20
-120.8009509999999977
11
145.729818999999992
21
-120.4676180000000016
0
LINE
8
BLACK
6
CONTINUOUS
10
145.729818999999992
20
-120.4676180000000016
11
145.7774379999999894
21
-120.3723799999999926
0
LINE
8
BLACK
6
CONTINUOUS
10
145.7774379999999894
20
-120.3723799999999926
11
145.8250569999999868
21
-120.3247609999999952
0
LINE
8
BLACK
6
CONTINUOUS
10
145.8250569999999868
20
-120.3247609999999952
11
145.9202949999999817
21
-120.2771419999999978
0
LINE
8
BLACK
6
CONTINUOUS
10
145.9202949999999817
20
-120.2771419999999978
11
146.0155330000000049
21
-120.2771419999999978
0
LINE
8
BLACK
6
CONTINUOUS
10
146.0155330000000049
20
-120.2771419999999978
11
146.1107709999999997
21
-120.3247609999999952
0
LINE
8
BLACK
6
CONTINUOUS
10
146.1107709999999997
20
-120.3247609999999952
11
146.1583899999999971
21
-120.3723799999999926
0
LINE
8
BLACK
6
CONTINUOUS
10
146.1583899999999971
20
-120.3723799999999926
11
146.2060089999999946
21
-120.4676180000000016
0
LINE
8
BLACK
6
CONTINUOUS
10
146.2060089999999946
20
-120.4676180000000016
11
146.2060089999999946
21
-120.8009509999999977
0
LINE
8
BLACK
6
CONTINUOUS
10
146.3488659999999868
20
-119.8009509999999977
11
146.3488659999999868
21
-119.0390469999999965
0
LINE
8
BLACK
6
CONTINUOUS
10
146.729818999999992
20
-119.41999899999999
11
145.9679140000000075
21
-119.41999899999999
0
LINE
8
BLACK
6
CONTINUOUS
10
142.229818999999992
20
-122.1723799999999898
11
142.229818999999992
21
-121.9819040000000001
0
LINE
8
BLACK
6
CONTINUOUS
10
142.229818999999992
20
-121.9819040000000001
11
142.2774379999999894
21
-121.8866659999999911
0
LINE
8
BLACK
6
CONTINUOUS
10
142.2774379999999894
20
-121.8866659999999911
11
142.3726759999999842
21
-121.7914279999999962
0
LINE
8
BLACK
6
CONTINUOUS
10
142.3726759999999842
20
-121.7914279999999962
11
142.5631520000000023
21
-121.7438089999999988
0
LINE
8
BLACK
6
CONTINUOUS
10
142.5631520000000023
20
-121.7438089999999988
11
142.8964849999999842
21
-121.7438089999999988
0
LINE
8
BLACK
6
CONTINUOUS
10
142.8964849999999842
20
-121.7438089999999988
11
143.0869610000000023
21
-121.7914279999999962
0
LINE
8
BLACK
6
CONTINUOUS
10
143.0869610000000023
20
-121.7914279999999962
11
143.1821999999999946
21
-121.8866659999999911
0
LINE
8
BLACK
6
CONTINUOUS
10
143.1821999999999946
20
-121.8866659999999911
11
143.229818999999992
21
-121.9819040000000001
0
LINE
8
BLACK
6
CONTINUOUS
10
143.229818999999992
20
-121.9819040000000001
11
143.229818999999992
21
-122.1723799999999898
0
LINE
8
BLACK
6
CONTINUOUS
10
143.229818999999992
20
-122.1723799999999898
11
143.1821999999999946
21
-122.2676179999999988
0
LINE
8
BLACK
6
CONTINUOUS
10
143.1821999999999946
20
-122.2676179999999988
11
143.0869610000000023
21
-122.3628559999999936
0
LINE
8
BLACK
6
CONTINUOUS
10
143.0869610000000023
20
-122.3628559999999936
11
142.8964849999999842
21
-122.410474999999991
0
LINE
8
BLACK
6
CONTINUOUS
10
142.8964849999999842
20
-122.410474999999991
11
142.5631520000000023
21
-122.410474999999991
0
LINE
8
BLACK
6
CONTINUOUS
10
142.5631520000000023
20
-122.410474999999991
11
142.3726759999999842
21
-122.3628559999999936
0
LINE
8
BLACK
6
CONTINUOUS
10
142.3726759999999842
20
-122.3628559999999936
11
142.2774379999999894
21
-122.2676179999999988
0
LINE
8
BLACK
6
CONTINUOUS
10
142.2774379999999894
20
-122.2676179999999988
11
142.229818999999992
21
-122.1723799999999898
0
LINE
8
BLACK
6
CONTINUOUS
10
142.5631520000000023
20
-120.8866659999999911
11
143.229818999999992
21
-120.8866659999999911
0
LINE
8
BLACK
6
CONTINUOUS
10
142.5631520000000023
20
-121.3152369999999962
11
143.0869610000000023
21
-121.3152369999999962
0
LINE
8
BLACK
6
CONTINUOUS
10
143.0869610000000023
20
-121.3152369999999962
11
143.1821999999999946
21
-121.2676179999999988
0
LINE
8
BLACK
6
CONTINUOUS
10
143.1821999999999946
20
-121.2676179999999988
11
143.229818999999992
21
-121.1723799999999898
0
LINE
8
BLACK
6
CONTINUOUS
10
143.229818999999992
20
-121.1723799999999898
11
143.229818999999992
21
-121.0295229999999975
0
LINE
8
BLACK
6
CONTINUOUS
10
143.229818999999992
20
-121.0295229999999975
11
143.1821999999999946
21
-120.9342849999999885
0
LINE
8
BLACK
6
CONTINUOUS
10
143.1821999999999946
20
-120.9342849999999885
11
143.1345799999999997
21
-120.8866659999999911
0
LINE
8
BLACK
6
CONTINUOUS
10
142.5631520000000023
20
-120.5533319999999975
11
142.5631520000000023
21
-120.1723799999999898
0
LINE
8
BLACK
6
CONTINUOUS
10
142.229818999999992
20
-120.410474999999991
11
143.0869610000000023
21
-120.410474999999991
0
LINE
8
BLACK
6
CONTINUOUS
10
143.0869610000000023
20
-120.410474999999991
11
143.1821999999999946
21
-120.3628559999999936
0
LINE
8
BLACK
6
CONTINUOUS
10
143.1821999999999946
20
-120.3628559999999936
11
143.229818999999992
21
-120.2676179999999988
0
LINE
8
BLACK
6
CONTINUOUS
10
143.229818999999992
20
-120.2676179999999988
11
143.229818999999992
21
-120.1723799999999898
0
LINE
8
BLACK
6
CONTINUOUS
10
142.8488659999999868
20
-119.8390459999999962
11
142.8488659999999868
21
-119.0771419999999949
0
LINE
8
BLACK
6
CONTINUOUS
10
143.229818999999992
20
-119.4580939999999885
11
142.4679140000000075
21
-119.4580939999999885
0
LINE
8
BLACK
6
CONTINUOUS
10
156.8298189999999863
20
-122.1723799999999898
11
156.8298189999999863
21
-121.9819040000000001
0
LINE
8
BLACK
6
CONTINUOUS
10
156.8298189999999863
20
-121.9819040000000001
11
156.8774379999999837
21
-121.8866659999999911
0
LINE
8
BLACK
6
CONTINUOUS
10
156.8774379999999837
20
-121.8866659999999911
11
156.972676000000007
21
-121.7914279999999962
0
LINE
8
BLACK
6
CONTINUOUS
10
156.972676000000007
20
-121.7914279999999962
11
157.1631519999999966
21
-121.7438089999999988
0
LINE
8
BLACK
6
CONTINUOUS
10
157.1631519999999966
20
-121.7438089999999988
11
157.4964850000000069
21
-121.7438089999999988
0
LINE
8
BLACK
6
CONTINUOUS
10
157.4964850000000069
20
-121.7438089999999988
11
157.6869609999999966
21
-121.7914279999999962
0
LINE
8
BLACK
6
CONTINUOUS
10
157.6869609999999966
20
-121.7914279999999962
11
157.7821999999999889
21
-121.8866659999999911
0
LINE
8
BLACK
6
CONTINUOUS
10
157.7821999999999889
20
-121.8866659999999911
11
157.8298189999999863
21
-121.9819040000000001
0
LINE
8
BLACK
6
CONTINUOUS
10
157.8298189999999863
20
-121.9819040000000001
11
157.8298189999999863
21
-122.1723799999999898
0
LINE
8
BLACK
6
CONTINUOUS
10
157.8298189999999863
20
-122.1723799999999898
11
157.7821999999999889
21
-122.2676179999999988
0
LINE
8
BLACK
6
CONTINUOUS
10
157.7821999999999889
20
-122.2676179999999988
11
157.6869609999999966
21
-122.3628559999999936
0
LINE
8
BLACK
6
CONTINUOUS
10
157.6869609999999966
20
-122.3628559999999936
11
157.4964850000000069
21
-122.410474999999991
0
LINE
8
BLACK
6
CONTINUOUS
10
157.4964850000000069
20
-122.410474999999991
11
157.1631519999999966
21
-122.410474999999991
0
LINE
8
BLACK
6
CONTINUOUS
10
157.1631519999999966
20
-122.410474999999991
11
156.972676000000007
21
-122.3628559999999936
0
LINE
8
BLACK
6
CONTINUOUS
10
156.972676000000007
20
-122.3628559999999936
11
156.8774379999999837
21
-122.2676179999999988
0
LINE
8
BLACK
6
CONTINUOUS
10
156.8774379999999837
20
-122.2676179999999988
11
156.8298189999999863
21
-122.1723799999999898
0
LINE
8
BLACK
6
CONTINUOUS
10
157.1631519999999966
20
-120.8866659999999911
11
157.8298189999999863
21
-120.8866659999999911
0
LINE
8
BLACK
6
CONTINUOUS
10
157.1631519999999966
20
-121.3152369999999962
11
157.6869609999999966
21
-121.3152369999999962
0
LINE
8
BLACK
6
CONTINUOUS
10
157.6869609999999966
20
-121.3152369999999962
11
157.7821999999999889
21
-121.2676179999999988
0
LINE
8
BLACK
6
CONTINUOUS
10
157.7821999999999889
20
-121.2676179999999988
11
157.8298189999999863
21
-121.1723799999999898
0
LINE
8
BLACK
6
CONTINUOUS
10
157.8298189999999863
20
-121.1723799999999898
11
157.8298189999999863
21
-121.0295229999999975
0
LINE
8
BLACK
6
CONTINUOUS
10
157.8298189999999863
20
-121.0295229999999975
11
157.7821999999999889
21
-120.9342849999999885
0
LINE
8
BLACK
6
CONTINUOUS
10
157.7821999999999889
20
-120.9342849999999885
11
157.734579999999994
21
-120.8866659999999911
0
LINE
8
BLACK
6
CONTINUOUS
10
157.1631519999999966
20
-120.5533319999999975
11
157.1631519999999966
21
-120.1723799999999898
0
LINE
8
BLACK
6
CONTINUOUS
10
156.8298189999999863
20
-120.410474999999991
11
157.6869609999999966
21
-120.410474999999991
0
LINE
8
BLACK
6
CONTINUOUS
10
157.6869609999999966
20
-120.410474999999991
11
157.7821999999999889
21
-120.3628559999999936
0
LINE
8
BLACK
6
CONTINUOUS
10
157.7821999999999889
20
-120.3628559999999936
11
157.8298189999999863
21
-120.2676179999999988
0
LINE
8
BLACK
6
CONTINUOUS
10
157.8298189999999863
20
-120.2676179999999988
11
157.8298189999999863
21
-120.1723799999999898
0
LINE
8
BLACK
6
CONTINUOUS
10
157.4488659999999811
20
-119.8390459999999962
11
157.4488659999999811
21
-119.0771419999999949
0
LINE
8
BLACK
6
CONTINUOUS
10
144.729818999999992
20
-140.0628569999999797
11
144.729818999999992
21
-140.5390469999999823
0
LINE
8
BLACK
6
CONTINUOUS
10
144.729818999999992
20
-140.5390469999999823
11
145.2060089999999946
21
-140.5866659999999797
0
LINE
8
BLACK
6
CONTINUOUS
10
145.2060089999999946
20
-140.5866659999999797
11
145.1583899999999971
21
-140.5390469999999823
0
LINE
8
BLACK
6
CONTINUOUS
10
145.1583899999999971
20
-140.5390469999999823
11
145.1107709999999997
21
-140.4438089999999875
0
LINE
8
BLACK
6
CONTINUOUS
10
145.1107709999999997
20
-140.4438089999999875
11
145.1107709999999997
21
-140.2057140000000004
0
LINE
8
BLACK
6
CONTINUOUS
10
145.1107709999999997
20
-140.2057140000000004
11
145.1583899999999971
21
-140.1104760000000056
0
LINE
8
BLACK
6
CONTINUOUS
10
145.1583899999999971
20
-140.1104760000000056
11
145.2060089999999946
21
-140.0628569999999797
0
LINE
8
BLACK
6
CONTINUOUS
10
145.2060089999999946
20
-140.0628569999999797
11
145.3012469999999894
21
-140.0152379999999823
0
LINE
8
BLACK
6
CONTINUOUS
10
145.3012469999999894
20
-140.0152379999999823
11
145.5393420000000049
21
-140.0152379999999823
0
LINE
8
BLACK
6
CONTINUOUS
10
145.5393420000000049
20
-140.0152379999999823
11
145.6345799999999997
21
-140.0628569999999797
0
LINE
8
BLACK
6
CONTINUOUS
10
145.6345799999999997
20
-140.0628569999999797
11
145.6821999999999946
21
-140.1104760000000056
0
LINE
8
BLACK
6
CONTINUOUS
10
145.6821999999999946
20
-140.1104760000000056
11
145.729818999999992
21
-140.2057140000000004
0
LINE
8
BLACK
6
CONTINUOUS
10
145.729818999999992
20
-140.2057140000000004
11
145.729818999999992
21
-140.4438089999999875
0
LINE
8
BLACK
6
CONTINUOUS
10
145.729818999999992
20
-140.4438089999999875
11
145.6821999999999946
21
-140.5390469999999823
0
LINE
8
BLACK
6
CONTINUOUS
10
145.6821999999999946
20
-140.5390469999999823
11
145.6345799999999997
21
-140.5866659999999797
0
LINE
8
BLACK
6
CONTINUOUS
10
145.0631520000000023
20
-139.681904000000003
11
145.729818999999992
21
-139.4438089999999875
0
LINE
8
BLACK
6
CONTINUOUS
10
145.729818999999992
20
-139.4438089999999875
11
145.0631520000000023
21
-139.2057140000000004
0
LINE
8
BLACK
6
CONTINUOUS
10
158.0488660000000039
20
-138.0009509999999864
11
158.0488660000000039
21
-137.2390469999999993
0
LINE
8
BLACK
6
CONTINUOUS
10
184.4998190000000022
20
-81.1128569999999911
11
184.4998190000000022
21
-81.5890469999999937
0
LINE
8
BLACK
6
CONTINUOUS
10
184.4998190000000022
20
-81.5890469999999937
11
183.4998190000000022
21
-81.5890469999999937
0
LINE
8
BLACK
6
CONTINUOUS
10
184.4522000000000048
20
-80.8271419999999949
11
184.4998190000000022
21
-80.6842850000000027
0
LINE
8
BLACK
6
CONTINUOUS
10
184.4998190000000022
20
-80.6842850000000027
11
184.4998190000000022
21
-80.4461900000000014
0
LINE
8
BLACK
6
CONTINUOUS
10
184.4998190000000022
20
-80.4461900000000014
11
184.4522000000000048
21
-80.3509519999999924
0
LINE
8
BLACK
6
CONTINUOUS
10
184.4522000000000048
20
-80.3509519999999924
11
184.4045799999999815
21
-80.303332999999995
0
LINE
8
BLACK
6
CONTINUOUS
10
184.4045799999999815
20
-80.303332999999995
11
184.3093419999999867
21
-80.2557139999999976
0
LINE
8
BLACK
6
CONTINUOUS
10
184.3093419999999867
20
-80.2557139999999976
11
184.2141039999999919
21
-80.2557139999999976
0
LINE
8
BLACK
6
CONTINUOUS
10
184.2141039999999919
20
-80.2557139999999976
11
184.118865999999997
21
-80.303332999999995
0
LINE
8
BLACK
6
CONTINUOUS
10
184.118865999999997
20
-80.303332999999995
11
184.0712469999999996
21
-80.3509519999999924
0
LINE
8
BLACK
6
CONTINUOUS
10
184.0712469999999996
20
-80.3509519999999924
11
184.0236280000000022
21
-80.4461900000000014
0
LINE
8
BLACK
6
CONTINUOUS
10
184.0236280000000022
20
-80.4461900000000014
11
183.9760090000000048
21
-80.6366659999999911
0
LINE
8
BLACK
6
CONTINUOUS
10
183.9760090000000048
20
-80.6366659999999911
11
183.928389999999979
21
-80.7319040000000001
0
LINE
8
BLACK
6
CONTINUOUS
10
183.928389999999979
20
-80.7319040000000001
11
183.8807709999999815
21
-80.7795229999999975
0
LINE
8
BLACK
6
CONTINUOUS
10
183.8807709999999815
20
-80.7795229999999975
11
183.7855329999999867
21
-80.8271419999999949
0
LINE
8
BLACK
6
CONTINUOUS
10
183.7855329999999867
20
-80.8271419999999949
11
183.6902949999999919
21
-80.8271419999999949
0
LINE
8
BLACK
6
CONTINUOUS
10
183.6902949999999919
20
-80.8271419999999949
11
183.5950569999999971
21
-80.7795229999999975
0
LINE
8
BLACK
6
CONTINUOUS
10
183.5950569999999971
20
-80.7795229999999975
11
183.5474379999999996
21
-80.7319040000000001
0
LINE
8
BLACK
6
CONTINUOUS
10
183.5474379999999996
20
-80.7319040000000001
11
183.4998190000000022
21
-80.6366659999999911
0
LINE
8
BLACK
6
CONTINUOUS
10
183.4998190000000022
20
-80.6366659999999911
11
183.4998190000000022
21
-80.3985709999999898
0
LINE
8
BLACK
6
CONTINUOUS
10
183.4998190000000022
20
-80.3985709999999898
11
183.5474379999999996
21
-80.2557139999999976
0
LINE
8
BLACK
6
CONTINUOUS
10
184.4998190000000022
20
-79.303332999999995
11
184.4998190000000022
21
-79.8747609999999924
0
LINE
8
BLACK
6
CONTINUOUS
10
184.4998190000000022
20
-79.5890469999999937
11
183.4998190000000022
21
-79.5890469999999937
0
LINE
8
BLACK
6
CONTINUOUS
10
183.4998190000000022
20
-79.5890469999999937
11
183.6426759999999945
21
-79.6842850000000027
0
LINE
8
BLACK
6
CONTINUOUS
10
183.6426759999999945
20
-79.6842850000000027
11
183.7379139999999893
21
-79.7795229999999975
0
LINE
8
BLACK
6
CONTINUOUS
10
183.7379139999999893
20
-79.7795229999999975
11
183.7855329999999867
21
-79.8747609999999924
0
LINE
8
BLACK
6
CONTINUOUS
10
99.9698190000000011
20
-117.3066659999999928
11
99.4936280000000011
21
-117.6399989999999889
0
LINE
8
BLACK
6
CONTINUOUS
10
99.9698190000000011
20
-117.8780939999999902
11
98.9698190000000011
21
-117.8780939999999902
0
LINE
8
BLACK
6
CONTINUOUS
10
98.9698190000000011
20
-117.8780939999999902
11
98.9698190000000011
21
-117.4971419999999966
0
LINE
8
BLACK
6
CONTINUOUS
10
98.9698190000000011
20
-117.4971419999999966
11
99.0174379999999985
21
-117.4019039999999876
0
LINE
8
BLACK
6
CONTINUOUS
10
99.0174379999999985
20
-117.4019039999999876
11
99.0650569999999959
21
-117.3542849999999902
0
LINE
8
BLACK
6
CONTINUOUS
10
99.0650569999999959
20
-117.3542849999999902
11
99.1602949999999908
21
-117.3066659999999928
0
LINE
8
BLACK
6
CONTINUOUS
10
99.1602949999999908
20
-117.3066659999999928
11
99.3031519999999972
21
-117.3066659999999928
0
LINE
8
BLACK
6
CONTINUOUS
10
99.3031519999999972
20
-117.3066659999999928
11
99.398389999999992
21
-117.3542849999999902
0
LINE
8
BLACK
6
CONTINUOUS
10
99.398389999999992
20
-117.3542849999999902
11
99.4460089999999894
21
-117.4019039999999876
0
LINE
8
BLACK
6
CONTINUOUS
10
99.4460089999999894
20
-117.4019039999999876
11
99.4936280000000011
21
-117.4971419999999966
0
LINE
8
BLACK
6
CONTINUOUS
10
99.4936280000000011
20
-117.4971419999999966
11
99.4936280000000011
21
-117.8780939999999902
0
LINE
8
BLACK
6
CONTINUOUS
10
98.9698190000000011
20
-116.9733319999999992
11
98.9698190000000011
21
-116.3066659999999928
0
LINE
8
BLACK
6
CONTINUOUS
10
98.9698190000000011
20
-116.3066659999999928
11
99.9698190000000011
21
-116.7352369999999979
0
LINE
8
BLACK
6
CONTINUOUS
10
224.6098189999999875
20
-116.2466659999999905
11
224.1336279999999874
21
-116.5799990000000008
0
LINE
8
BLACK
6
CONTINUOUS
10
224.6098189999999875
20
-116.8180939999999879
11
223.6098189999999875
21
-116.8180939999999879
0
LINE
8
BLACK
6
CONTINUOUS
10
223.6098189999999875
20
-116.8180939999999879
11
223.6098189999999875
21
-116.4371419999999944
0
LINE
8
BLACK
6
CONTINUOUS
10
223.6098189999999875
20
-116.4371419999999944
11
223.6574379999999849
21
-116.3419039999999995
0
LINE
8
BLACK
6
CONTINUOUS
10
223.6574379999999849
20
-116.3419039999999995
11
223.7050569999999823
21
-116.2942849999999879
0
LINE
8
BLACK
6
CONTINUOUS
10
223.7050569999999823
20
-116.2942849999999879
11
223.8002949999999771
21
-116.2466659999999905
0
LINE
8
BLACK
6
CONTINUOUS
10
223.8002949999999771
20
-116.2466659999999905
11
223.9431519999999978
21
-116.2466659999999905
0
LINE
8
BLACK
6
CONTINUOUS
10
223.9431519999999978
20
-116.2466659999999905
11
224.0383899999999926
21
-116.2942849999999879
0
LINE
8
BLACK
6
CONTINUOUS
10
224.0383899999999926
20
-116.2942849999999879
11
224.08600899999999
21
-116.3419039999999995
0
LINE
8
BLACK
6
CONTINUOUS
10
224.08600899999999
20
-116.3419039999999995
11
224.1336279999999874
21
-116.4371419999999944
0
LINE
8
BLACK
6
CONTINUOUS
10
224.1336279999999874
20
-116.4371419999999944
11
224.1336279999999874
21
-116.8180939999999879
0
LINE
8
BLACK
6
CONTINUOUS
10
223.7050569999999823
20
-115.8657129999999995
11
223.6574379999999849
21
-115.8180939999999879
0
LINE
8
BLACK
6
CONTINUOUS
10
223.6574379999999849
20
-115.8180939999999879
11
223.6098189999999875
21
-115.7228559999999931
0
LINE
8
BLACK
6
CONTINUOUS
10
223.6098189999999875
20
-115.7228559999999931
11
223.6098189999999875
21
-115.4847609999999918
0
LINE
8
BLACK
6
CONTINUOUS
10
223.6098189999999875
20
-115.4847609999999918
11
223.6574379999999849
21
-115.389522999999997
0
LINE
8
BLACK
6
CONTINUOUS
10
223.6574379999999849
20
-115.389522999999997
11
223.7050569999999823
21
-115.3419039999999995
0
LINE
8
BLACK
6
CONTINUOUS
10
223.7050569999999823
20
-115.3419039999999995
11
223.8002949999999771
21
-115.2942849999999879
0
LINE
8
BLACK
6
CONTINUOUS
10
223.8002949999999771
20
-115.2942849999999879
11
223.8955330000000004
21
-115.2942849999999879
0
LINE
8
BLACK
6
CONTINUOUS
10
223.8955330000000004
20
-115.2942849999999879
11
224.0383899999999926
21
-115.3419039999999995
0
LINE
8
BLACK
6
CONTINUOUS
10
224.0383899999999926
20
-115.3419039999999995
11
224.6098189999999875
21
-115.9133319999999969
0
LINE
8
BLACK
6
CONTINUOUS
10
224.6098189999999875
20
-115.9133319999999969
11
224.6098189999999875
21
-115.2942849999999879
0
LINE
8
BLACK
6
CONTINUOUS
10
132.4716669999999965
20
-119.8571999999999917
11
132.6145239999999887
21
-119.9048189999999892
0
LINE
8
BLACK
6
CONTINUOUS
10
132.6145239999999887
20
-119.9048189999999892
11
132.8526190000000042
21
-119.9048189999999892
0
LINE
8
BLACK
6
CONTINUOUS
10
132.8526190000000042
20
-119.9048189999999892
11
132.9478569999999991
21
-119.8571999999999917
0
LINE
8
BLACK
6
CONTINUOUS
10
132.9478569999999991
20
-119.8571999999999917
11
132.9954759999999965
21
-119.8095799999999969
0
LINE
8
BLACK
6
CONTINUOUS
10
132.9954759999999965
20
-119.8095799999999969
11
133.0430949999999939
21
-119.7143419999999878
0
LINE
8
BLACK
6
CONTINUOUS
10
133.0430949999999939
20
-119.7143419999999878
11
133.0430949999999939
21
-119.619103999999993
0
LINE
8
BLACK
6
CONTINUOUS
10
133.0430949999999939
20
-119.619103999999993
11
132.9954759999999965
21
-119.5238659999999982
0
LINE
8
BLACK
6
CONTINUOUS
10
132.9954759999999965
20
-119.5238659999999982
11
132.9478569999999991
21
-119.4762470000000008
0
LINE
8
BLACK
6
CONTINUOUS
10
132.9478569999999991
20
-119.4762470000000008
11
132.8526190000000042
21
-119.4286279999999891
0
LINE
8
BLACK
6
CONTINUOUS
10
132.8526190000000042
20
-119.4286279999999891
11
132.6621429999999862
21
-119.3810089999999917
0
LINE
8
BLACK
6
CONTINUOUS
10
132.6621429999999862
20
-119.3810089999999917
11
132.5669049999999913
21
-119.3333899999999943
0
LINE
8
BLACK
6
CONTINUOUS
10
132.5669049999999913
20
-119.3333899999999943
11
132.5192859999999939
21
-119.2857709999999969
0
LINE
8
BLACK
6
CONTINUOUS
10
132.5192859999999939
20
-119.2857709999999969
11
132.4716669999999965
21
-119.1905329999999879
0
LINE
8
BLACK
6
CONTINUOUS
10
132.4716669999999965
20
-119.1905329999999879
11
132.4716669999999965
21
-119.095294999999993
0
LINE
8
BLACK
6
CONTINUOUS
10
132.4716669999999965
20
-119.095294999999993
11
132.5192859999999939
21
-119.0000569999999982
0
LINE
8
BLACK
6
CONTINUOUS
10
132.5192859999999939
20
-119.0000569999999982
11
132.5669049999999913
21
-118.9524380000000008
0
LINE
8
BLACK
6
CONTINUOUS
10
132.5669049999999913
20
-118.9524380000000008
11
132.6621429999999862
21
-118.9048189999999892
0
LINE
8
BLACK
6
CONTINUOUS
10
132.6621429999999862
20
-118.9048189999999892
11
132.9002380000000016
21
-118.9048189999999892
0
LINE
8
BLACK
6
CONTINUOUS
10
132.9002380000000016
20
-118.9048189999999892
11
133.0430949999999939
21
-118.9524380000000008
0
LINE
8
BLACK
6
CONTINUOUS
10
133.3764290000000017
20
-118.9048189999999892
11
133.6145239999999887
21
-119.9048189999999892
0
LINE
8
BLACK
6
CONTINUOUS
10
133.6145239999999887
20
-119.9048189999999892
11
133.8050000000000068
21
-119.1905329999999879
0
LINE
8
BLACK
6
CONTINUOUS
10
133.8050000000000068
20
-119.1905329999999879
11
133.9954759999999965
21
-119.9048189999999892
0
LINE
8
BLACK
6
CONTINUOUS
10
133.9954759999999965
20
-119.9048189999999892
11
134.233571999999981
21
-118.9048189999999892
0
LINE
8
BLACK
6
CONTINUOUS
10
135.0430949999999939
20
-118.9048189999999892
11
134.8526190000000042
21
-118.9048189999999892
0
LINE
8
BLACK
6
CONTINUOUS
10
134.8526190000000042
20
-118.9048189999999892
11
134.757380999999981
21
-118.9524380000000008
0
LINE
8
BLACK
6
CONTINUOUS
10
134.757380999999981
20
-118.9524380000000008
11
134.7097619999999836
21
-119.0000569999999982
0
LINE
8
BLACK
6
CONTINUOUS
10
134.7097619999999836
20
-119.0000569999999982
11
134.6145239999999887
21
-119.1429139999999904
0
LINE
8
BLACK
6
CONTINUOUS
10
134.6145239999999887
20
-119.1429139999999904
11
134.5669049999999913
21
-119.3333899999999943
0
LINE
8
BLACK
6
CONTINUOUS
10
134.5669049999999913
20
-119.3333899999999943
11
134.5669049999999913
21
-119.7143419999999878
0
LINE
8
BLACK
6
CONTINUOUS
10
134.5669049999999913
20
-119.7143419999999878
11
134.6145239999999887
21
-119.8095799999999969
0
LINE
8
BLACK
6
CONTINUOUS
10
134.6145239999999887
20
-119.8095799999999969
11
134.6621429999999862
21
-119.8571999999999917
0
LINE
8
BLACK
6
CONTINUOUS
10
134.6621429999999862
20
-119.8571999999999917
11
134.757380999999981
21
-119.9048189999999892
0
LINE
8
BLACK
6
CONTINUOUS
10
134.757380999999981
20
-119.9048189999999892
11
134.9478569999999991
21
-119.9048189999999892
0
LINE
8
BLACK
6
CONTINUOUS
10
134.9478569999999991
20
-119.9048189999999892
11
135.0430949999999939
21
-119.8571999999999917
0
LINE
8
BLACK
6
CONTINUOUS
10
135.0430949999999939
20
-119.8571999999999917
11
135.0907139999999913
21
-119.8095799999999969
0
LINE
8
BLACK
6
CONTINUOUS
10
135.0907139999999913
20
-119.8095799999999969
11
135.1383329999999887
21
-119.7143419999999878
0
LINE
8
BLACK
6
CONTINUOUS
10
135.1383329999999887
20
-119.7143419999999878
11
135.1383329999999887
21
-119.4762470000000008
0
LINE
8
BLACK
6
CONTINUOUS
10
135.1383329999999887
20
-119.4762470000000008
11
135.0907139999999913
21
-119.3810089999999917
0
LINE
8
BLACK
6
CONTINUOUS
10
135.0907139999999913
20
-119.3810089999999917
11
135.0430949999999939
21
-119.3333899999999943
0
LINE
8
BLACK
6
CONTINUOUS
10
135.0430949999999939
20
-119.3333899999999943
11
134.9478569999999991
21
-119.2857709999999969
0
LINE
8
BLACK
6
CONTINUOUS
10
134.9478569999999991
20
-119.2857709999999969
11
134.757380999999981
21
-119.2857709999999969
0
LINE
8
BLACK
6
CONTINUOUS
10
134.757380999999981
20
-119.2857709999999969
11
134.6621429999999862
21
-119.3333899999999943
0
LINE
8
BLACK
6
CONTINUOUS
10
134.6621429999999862
20
-119.3333899999999943
11
134.6145239999999887
21
-119.3810089999999917
0
LINE
8
BLACK
6
CONTINUOUS
10
134.6145239999999887
20
-119.3810089999999917
11
134.5669049999999913
21
-119.4762470000000008
0
LINE
8
BLACK
6
CONTINUOUS
10
194.1298189999999977
20
-116.2466659999999905
11
193.6536279999999977
21
-116.5799990000000008
0
LINE
8
BLACK
6
CONTINUOUS
10
194.1298189999999977
20
-116.8180939999999879
11
193.1298189999999977
21
-116.8180939999999879
0
LINE
8
BLACK
6
CONTINUOUS
10
193.1298189999999977
20
-116.8180939999999879
11
193.1298189999999977
21
-116.4371419999999944
0
LINE
8
BLACK
6
CONTINUOUS
10
193.1298189999999977
20
-116.4371419999999944
11
193.1774379999999951
21
-116.3419039999999995
0
LINE
8
BLACK
6
CONTINUOUS
10
193.1774379999999951
20
-116.3419039999999995
11
193.2250569999999925
21
-116.2942849999999879
0
LINE
8
BLACK
6
CONTINUOUS
10
193.2250569999999925
20
-116.2942849999999879
11
193.3202949999999873
21
-116.2466659999999905
0
LINE
8
BLACK
6
CONTINUOUS
10
193.3202949999999873
20
-116.2466659999999905
11
193.4631519999999796
21
-116.2466659999999905
0
LINE
8
BLACK
6
CONTINUOUS
10
193.4631519999999796
20
-116.2466659999999905
11
193.5583900000000028
21
-116.2942849999999879
0
LINE
8
BLACK
6
CONTINUOUS
10
193.5583900000000028
20
-116.2942849999999879
11
193.6060090000000002
21
-116.3419039999999995
0
LINE
8
BLACK
6
CONTINUOUS
10
193.6060090000000002
20
-116.3419039999999995
11
193.6536279999999977
21
-116.4371419999999944
0
LINE
8
BLACK
6
CONTINUOUS
10
193.6536279999999977
20
-116.4371419999999944
11
193.6536279999999977
21
-116.8180939999999879
0
LINE
8
BLACK
6
CONTINUOUS
10
193.1298189999999977
20
-115.9133319999999969
11
193.1298189999999977
21
-115.2942849999999879
0
LINE
8
BLACK
6
CONTINUOUS
10
193.1298189999999977
20
-115.2942849999999879
11
193.5107710000000054
21
-115.6276179999999982
0
LINE
8
BLACK
6
CONTINUOUS
10
193.5107710000000054
20
-115.6276179999999982
11
193.5107710000000054
21
-115.4847609999999918
0
LINE
8
BLACK
6
CONTINUOUS
10
193.5107710000000054
20
-115.4847609999999918
11
193.5583900000000028
21
-115.389522999999997
0
LINE
8
BLACK
6
CONTINUOUS
10
193.5583900000000028
20
-115.389522999999997
11
193.6060090000000002
21
-115.3419039999999995
0
LINE
8
BLACK
6
CONTINUOUS
10
193.6060090000000002
20
-115.3419039999999995
11
193.7012469999999951
21
-115.2942849999999879
0
LINE
8
BLACK
6
CONTINUOUS
10
193.7012469999999951
20
-115.2942849999999879
11
193.9393419999999821
21
-115.2942849999999879
0
LINE
8
BLACK
6
CONTINUOUS
10
193.9393419999999821
20
-115.2942849999999879
11
194.0345800000000054
21
-115.3419039999999995
0
LINE
8
BLACK
6
CONTINUOUS
10
194.0345800000000054
20
-115.3419039999999995
11
194.0822000000000003
21
-115.389522999999997
0
LINE
8
BLACK
6
CONTINUOUS
10
194.0822000000000003
20
-115.389522999999997
11
194.1298189999999977
21
-115.4847609999999918
0
LINE
8
BLACK
6
CONTINUOUS
10
194.1298189999999977
20
-115.4847609999999918
11
194.1298189999999977
21
-115.7704749999999905
0
LINE
8
BLACK
6
CONTINUOUS
10
194.1298189999999977
20
-115.7704749999999905
11
194.0822000000000003
21
-115.8657129999999995
0
LINE
8
BLACK
6
CONTINUOUS
10
194.0822000000000003
20
-115.8657129999999995
11
194.0345800000000054
21
-115.9133319999999969
0
LINE
8
BLACK
6
CONTINUOUS
10
132.3683330000000069
20
-112.5448189999999897
11
132.0349999999999966
21
-112.0686279999999897
0
LINE
8
BLACK
6
CONTINUOUS
10
131.7969049999999811
20
-112.5448189999999897
11
131.7969049999999811
21
-111.5448189999999897
0
LINE
8
BLACK
6
CONTINUOUS
10
131.7969049999999811
20
-111.5448189999999897
11
132.1778569999999888
21
-111.5448189999999897
0
LINE
8
BLACK
6
CONTINUOUS
10
132.1778569999999888
20
-111.5448189999999897
11
132.2730949999999837
21
-111.5924380000000014
0
LINE
8
BLACK
6
CONTINUOUS
10
132.2730949999999837
20
-111.5924380000000014
11
132.3207139999999811
21
-111.6400569999999988
0
LINE
8
BLACK
6
CONTINUOUS
10
132.3207139999999811
20
-111.6400569999999988
11
132.3683330000000069
21
-111.7352949999999936
0
LINE
8
BLACK
6
CONTINUOUS
10
132.3683330000000069
20
-111.7352949999999936
11
132.3683330000000069
21
-111.878152
0
LINE
8
BLACK
6
CONTINUOUS
10
132.3683330000000069
20
-111.878152
11
132.3207139999999811
21
-111.9733899999999949
0
LINE
8
BLACK
6
CONTINUOUS
10
132.3207139999999811
20
-111.9733899999999949
11
132.2730949999999837
21
-112.0210089999999923
0
LINE
8
BLACK
6
CONTINUOUS
10
132.2730949999999837
20
-112.0210089999999923
11
132.1778569999999888
21
-112.0686279999999897
0
LINE
8
BLACK
6
CONTINUOUS
10
132.1778569999999888
20
-112.0686279999999897
11
131.7969049999999811
21
-112.0686279999999897
0
LINE
8
BLACK
6
CONTINUOUS
10
133.2730949999999837
20
-111.5448189999999897
11
132.7969049999999811
21
-111.5448189999999897
0
LINE
8
BLACK
6
CONTINUOUS
10
132.7969049999999811
20
-111.5448189999999897
11
132.7492859999999837
21
-112.0210089999999923
0
LINE
8
BLACK
6
CONTINUOUS
10
132.7492859999999837
20
-112.0210089999999923
11
132.7969049999999811
21
-111.9733899999999949
0
LINE
8
BLACK
6
CONTINUOUS
10
132.7969049999999811
20
-111.9733899999999949
11
132.8921430000000043
21
-111.9257709999999975
0
LINE
8
BLACK
6
CONTINUOUS
10
132.8921430000000043
20
-111.9257709999999975
11
133.1302379999999914
21
-111.9257709999999975
0
LINE
8
BLACK
6
CONTINUOUS
10
133.1302379999999914
20
-111.9257709999999975
11
133.2254759999999862
21
-111.9733899999999949
0
LINE
8
BLACK
6
CONTINUOUS
10
133.2254759999999862
20
-111.9733899999999949
11
133.2730949999999837
21
-112.0210089999999923
0
LINE
8
BLACK
6
CONTINUOUS
10
133.2730949999999837
20
-112.0210089999999923
11
133.3207139999999811
21
-112.1162470000000013
0
LINE
8
BLACK
6
CONTINUOUS
10
133.3207139999999811
20
-112.1162470000000013
11
133.3207139999999811
21
-112.3543419999999884
0
LINE
8
BLACK
6
CONTINUOUS
10
133.3207139999999811
20
-112.3543419999999884
11
133.2730949999999837
21
-112.4495799999999974
0
LINE
8
BLACK
6
CONTINUOUS
10
133.2730949999999837
20
-112.4495799999999974
11
133.2254759999999862
21
-112.4971999999999923
0
LINE
8
BLACK
6
CONTINUOUS
10
133.2254759999999862
20
-112.4971999999999923
11
133.1302379999999914
21
-112.5448189999999897
0
LINE
8
BLACK
6
CONTINUOUS
10
133.1302379999999914
20
-112.5448189999999897
11
132.8921430000000043
21
-112.5448189999999897
0
LINE
8
BLACK
6
CONTINUOUS
10
132.8921430000000043
20
-112.5448189999999897
11
132.7969049999999811
21
-112.4971999999999923
0
LINE
8
BLACK
6
CONTINUOUS
10
132.7969049999999811
20
-112.4971999999999923
11
132.7492859999999837
21
-112.4495799999999974
0
LINE
8
BLACK
6
CONTINUOUS
10
66.9749999999999943
20
-111.0699999999999932
11
70.1749999999999972
21
-111.0699999999999932
0
LINE
8
BLACK
6
CONTINUOUS
10
70.1749999999999972
20
-111.0699999999999932
11
70.1749999999999972
21
-109.8499999999999943
0
LINE
8
BLACK
6
CONTINUOUS
10
70.1749999999999972
20
-120.769999999999996
11
66.9749999999999943
21
-120.769999999999996
0
LINE
8
BLACK
6
CONTINUOUS
10
70.1749999999999972
20
-122.
11
70.1749999999999972
21
-120.769999999999996
0
LINE
8
BLACK
6
CONTINUOUS
10
72.9050000000000011
20
-107.9699999999999989
11
73.1749999999999972
21
-107.9699999999999989
0
LINE
8
BLACK
6
CONTINUOUS
10
73.1749999999999972
20
-104.8199999999999932
11
82.9749999999999943
21
-104.8199999999999932
0
LINE
8
BLACK
6
CONTINUOUS
10
73.1749999999999972
20
-107.9699999999999989
11
73.1749999999999972
21
-104.8199999999999932
0
LINE
8
BLACK
6
CONTINUOUS
10
74.0750000000000028
20
-123.8699999999999903
11
72.9549999999999983
21
-123.8699999999999903
0
LINE
8
BLACK
6
CONTINUOUS
10
74.0750000000000028
20
-125.4199999999999875
11
74.0750000000000028
21
-123.8699999999999903
0
LINE
8
BLACK
6
CONTINUOUS
10
82.1749999999999972
20
-123.8699999999999903
11
82.1749999999999972
21
-125.4199999999999875
0
LINE
8
BLACK
6
CONTINUOUS
10
82.1749999999999972
20
-125.4199999999999875
11
74.0750000000000028
21
-125.4199999999999875
0
LINE
8
BLACK
6
CONTINUOUS
10
82.9749999999999943
20
-104.8199999999999932
11
82.9749999999999943
21
-107.9699999999999989
0
LINE
8
BLACK
6
CONTINUOUS
10
86.0750000000000028
20
-109.8499999999999943
11
86.0750000000000028
21
-110.4699999999999989
0
LINE
8
BLACK
6
CONTINUOUS
10
86.0750000000000028
20
-110.4699999999999989
11
92.375
21
-110.4699999999999989
0
LINE
8
BLACK
6
CONTINUOUS
10
86.0750000000000028
20
-121.3699999999999903
11
86.0750000000000028
21
-122.
0
LINE
8
BLACK
6
CONTINUOUS
10
92.375
20
-110.4699999999999989
11
92.375
21
-121.3699999999999903
0
LINE
8
BLACK
6
CONTINUOUS
10
92.375
20
-121.3699999999999903
11
86.0750000000000028
21
-121.3699999999999903
0
CIRCLE
8
BLACK
10
91.4249999999999972
20
-109.8699999999999903
40
0.1
0
LINE
8
BLACK
6
CONTINUOUS
10
160.9650000000000034
20
-137.1200000000000045
11
169.5649999999999977
21
-137.1200000000000045
0
LINE
8
BLACK
6
CONTINUOUS
10
160.9650000000000034
20
-141.7199999999999989
11
163.164999999999992
21
-141.7199999999999989
0
LINE
8
BLACK
6
CONTINUOUS
10
167.2649999999999864
20
-141.7199999999999989
11
169.5649999999999977
21
-141.7199999999999989
0
LINE
8
BLACK
6
CONTINUOUS
10
106.2849999999999966
20
-76.4099999999999966
11
118.0049999999999955
21
-76.4099999999999966
0
LINE
8
BLACK
6
CONTINUOUS
10
106.2849999999999966
20
-80.2199999999999989
11
106.2849999999999966
21
-76.4099999999999966
0
LINE
8
BLACK
6
CONTINUOUS
10
106.2849999999999966
20
-80.2199999999999989
11
106.2849999999999966
21
-84.0300000000000011
0
LINE
8
BLACK
6
CONTINUOUS
10
106.2849999999999966
20
-84.0300000000000011
11
118.0049999999999955
21
-84.0300000000000011
0
LINE
8
BLACK
6
CONTINUOUS
10
106.894999999999996
20
-78.7199999999999989
11
106.894999999999996
21
-79.2199999999999989
0
LINE
8
BLACK
6
CONTINUOUS
10
106.894999999999996
20
-79.2199999999999989
11
112.394999999999996
21
-79.2199999999999989
0
LINE
8
BLACK
6
CONTINUOUS
10
106.894999999999996
20
-81.2199999999999989
11
106.894999999999996
21
-81.7199999999999989
0
LINE
8
BLACK
6
CONTINUOUS
10
106.894999999999996
20
-81.7199999999999989
11
112.394999999999996
21
-81.7199999999999989
0
LINE
8
BLACK
6
CONTINUOUS
10
112.394999999999996
20
-78.7199999999999989
11
106.894999999999996
21
-78.7199999999999989
0
LINE
8
BLACK
6
CONTINUOUS
10
112.394999999999996
20
-79.2199999999999989
11
112.394999999999996
21
-78.7199999999999989
0
LINE
8
BLACK
6
CONTINUOUS
10
112.394999999999996
20
-81.2199999999999989
11
106.894999999999996
21
-81.2199999999999989
0
LINE
8
BLACK
6
CONTINUOUS
10
112.394999999999996
20
-81.7199999999999989
11
112.394999999999996
21
-81.2199999999999989
0
LINE
8
BLACK
6
CONTINUOUS
10
115.4949999999999903
20
-78.9699999999999989
11
116.0949999999999989
21
-78.6700000000000017
0
LINE
8
BLACK
6
CONTINUOUS
10
116.0949999999999989
20
-78.6700000000000017
11
116.0949999999999989
21
-79.269999999999996
0
LINE
8
BLACK
6
CONTINUOUS
10
116.0949999999999989
20
-79.269999999999996
11
115.4949999999999903
21
-78.9699999999999989
0
LINE
8
BLACK
6
CONTINUOUS
10
118.0049999999999955
20
-76.4099999999999966
11
118.0049999999999955
21
-77.8299999999999983
0
LINE
8
BLACK
6
CONTINUOUS
10
118.0049999999999955
20
-77.8299999999999983
11
113.5049999999999955
21
-77.8299999999999983
0
LINE
8
BLACK
6
CONTINUOUS
10
118.0049999999999955
20
-82.6099999999999994
11
113.5049999999999955
21
-82.6099999999999994
0
LINE
8
BLACK
6
CONTINUOUS
10
118.0049999999999955
20
-84.0300000000000011
11
118.0049999999999955
21
-82.6099999999999994
0
LINE
8
BLACK
6
CONTINUOUS
10
225.4849999999999852
20
-109.9699999999999989
11
225.4849999999999852
21
-112.4799999999999898
0
LINE
8
BLACK
6
CONTINUOUS
10
225.4849999999999852
20
-109.9699999999999989
11
237.7049999999999841
21
-109.9699999999999989
0
LINE
8
BLACK
6
CONTINUOUS
10
225.4849999999999852
20
-114.7800000000000011
11
225.4849999999999852
21
-117.3799999999999955
0
LINE
8
BLACK
6
CONTINUOUS
10
225.4849999999999852
20
-119.6799999999999926
11
225.4849999999999852
21
-122.1899999999999977
0
LINE
8
BLACK
6
CONTINUOUS
10
237.7049999999999841
20
-109.9699999999999989
11
237.7049999999999841
21
-112.4799999999999898
0
LINE
8
BLACK
6
CONTINUOUS
10
237.7049999999999841
20
-114.7800000000000011
11
237.7049999999999841
21
-117.3799999999999955
0
LINE
8
BLACK
6
CONTINUOUS
10
237.7049999999999841
20
-119.6799999999999926
11
237.7049999999999841
21
-122.1899999999999977
0
LINE
8
BLACK
6
CONTINUOUS
10
237.7049999999999841
20
-122.1899999999999977
11
225.4849999999999852
21
-122.1899999999999977
0
CIRCLE
8
BLACK
10
231.5949999999999989
20
-116.0799999999999983
40
3.5499999999999998
0
LINE
8
BLACK
6
CONTINUOUS
10
122.8149999999999977
20
-110.2199999999999989
11
122.8149999999999977
21
-75.7199999999999989
0
LINE
8
BLACK
6
CONTINUOUS
10
128.3649999999999807
20
-108.7199999999999989
11
128.3649999999999807
21
-77.7199999999999989
0
LINE
8
BLACK
6
CONTINUOUS
10
129.0649999999999977
20
-78.2199999999999989
11
129.0649999999999977
21
-108.2199999999999989
0
LINE
8
BLACK
6
CONTINUOUS
10
129.0649999999999977
20
-108.2199999999999989
11
166.5649999999999977
21
-108.2199999999999989
0
LINE
8
BLACK
6
CONTINUOUS
10
137.6469999999999914
20
-57.0519999999999996
11
161.7769999999999868
21
-57.0519999999999996
0
LINE
8
BLACK
6
CONTINUOUS
10
137.6469999999999914
20
-75.7199999999999989
11
137.6469999999999914
21
-57.0519999999999996
0
LINE
8
BLACK
6
CONTINUOUS
10
161.7769999999999868
20
-75.7199999999999989
11
161.7769999999999868
21
-57.0519999999999996
0
LINE
8
BLACK
6
CONTINUOUS
10
166.5649999999999977
20
-78.2199999999999989
11
129.0649999999999977
21
-78.2199999999999989
0
LINE
8
BLACK
6
CONTINUOUS
10
166.5649999999999977
20
-108.2199999999999989
11
166.5649999999999977
21
-78.2199999999999989
0
LINE
8
BLACK
6
CONTINUOUS
10
174.9650000000000034
20
-77.7199999999999989
11
128.3649999999999807
21
-77.7199999999999989
0
LINE
8
BLACK
6
CONTINUOUS
10
174.9650000000000034
20
-108.7199999999999989
11
128.3649999999999807
21
-108.7199999999999989
0
LINE
8
BLACK
6
CONTINUOUS
10
174.9650000000000034
20
-108.7199999999999989
11
174.9650000000000034
21
-77.7199999999999989
0
LINE
8
BLACK
6
CONTINUOUS
10
180.8149999999999977
20
-75.7199999999999989
11
122.8149999999999977
21
-75.7199999999999989
0
LINE
8
BLACK
6
CONTINUOUS
10
180.8149999999999977
20
-110.2199999999999989
11
122.8149999999999977
21
-110.2199999999999989
0
LINE
8
BLACK
6
CONTINUOUS
10
180.8149999999999977
20
-110.2199999999999989
11
180.8149999999999977
21
-75.7199999999999989
0
LINE
8
BLACK
6
CONTINUOUS
10
204.375
20
-95.6099999999999994
11
204.375
21
-104.8499999999999943
0
LINE
8
BLACK
6
CONTINUOUS
10
204.375
20
-104.8499999999999943
11
207.8149999999999977
21
-104.8499999999999943
0
LINE
8
BLACK
6
CONTINUOUS
10
206.0949999999999989
20
-94.9200000000000017
11
206.0949999999999989
21
-95.6099999999999994
0
LINE
8
BLACK
6
CONTINUOUS
10
206.0949999999999989
20
-105.539999999999992
11
206.0949999999999989
21
-104.8499999999999943
0
LINE
8
BLACK
6
CONTINUOUS
10
207.8149999999999977
20
-95.6099999999999994
11
204.375
21
-95.6099999999999994
0
LINE
8
BLACK
6
CONTINUOUS
10
207.8149999999999977
20
-104.8499999999999943
11
207.8149999999999977
21
-95.6099999999999994
0
LINE
8
BLACK
6
CONTINUOUS
10
163.3249999999999886
20
-122.9499999999999886
11
163.3249999999999886
21
-124.4499999999999886
0
LINE
8
BLACK
6
CONTINUOUS
10
164.5749999999999886
20
-126.9499999999999886
11
169.0749999999999886
21
-126.9499999999999886
0
LINE
8
BLACK
6
CONTINUOUS
10
169.0749999999999886
20
-120.4499999999999886
11
164.5749999999999886
21
-120.4499999999999886
0
LINE
8
BLACK
6
CONTINUOUS
10
170.3249999999999886
20
-124.4499999999999886
11
170.3249999999999886
21
-122.9499999999999886
0
LINE
8
BLACK
6
CONTINUOUS
10
195.0049999999999955
20
-109.9699999999999989
11
195.0049999999999955
21
-112.4799999999999898
0
LINE
8
BLACK
6
CONTINUOUS
10
195.0049999999999955
20
-109.9699999999999989
11
207.2249999999999943
21
-109.9699999999999989
0
LINE
8
BLACK
6
CONTINUOUS
10
195.0049999999999955
20
-114.7800000000000011
11
195.0049999999999955
21
-117.3799999999999955
0
LINE
8
BLACK
6
CONTINUOUS
10
195.0049999999999955
20
-119.6799999999999926
11
195.0049999999999955
21
-122.1899999999999977
0
LINE
8
BLACK
6
CONTINUOUS
10
207.2249999999999943
20
-109.9699999999999989
11
207.2249999999999943
21
-112.4799999999999898
0
LINE
8
BLACK
6
CONTINUOUS
10
207.2249999999999943
20
-114.7800000000000011
11
207.2249999999999943
21
-117.3799999999999955
0
LINE
8
BLACK
6
CONTINUOUS
10
207.2249999999999943
20
-119.6799999999999926
11
207.2249999999999943
21
-122.1899999999999977
0
LINE
8
BLACK
6
CONTINUOUS
10
207.2249999999999943
20
-122.1899999999999977
11
195.0049999999999955
21
-122.1899999999999977
0
CIRCLE
8
BLACK
10
201.1149999999999807
20
-116.0799999999999983
40
3.5499999999999998
0
LINE
8
BLACK
6
CONTINUOUS
10
210.2450000000000045
20
-125.2099999999999937
11
210.2450000000000045
21
-127.7199999999999989
0
LINE
8
BLACK
6
CONTINUOUS
10
210.2450000000000045
20
-125.2099999999999937
11
222.4650000000000034
21
-125.2099999999999937
0
LINE
8
BLACK
6
CONTINUOUS
10
210.2450000000000045
20
-130.0199999999999818
11
210.2450000000000045
21
-132.6200000000000045
0
LINE
8
BLACK
6
CONTINUOUS
10
210.2450000000000045
20
-134.9199999999999875
11
210.2450000000000045
21
-137.4300000000000068
0
LINE
8
BLACK
6
CONTINUOUS
10
222.4650000000000034
20
-125.2099999999999937
11
222.4650000000000034
21
-127.7199999999999989
0
LINE
8
BLACK
6
CONTINUOUS
10
222.4650000000000034
20
-130.0199999999999818
11
222.4650000000000034
21
-132.6200000000000045
0
LINE
8
BLACK
6
CONTINUOUS
10
222.4650000000000034
20
-134.9199999999999875
11
222.4650000000000034
21
-137.4300000000000068
0
LINE
8
BLACK
6
CONTINUOUS
10
222.4650000000000034
20
-137.4300000000000068
11
210.2450000000000045
21
-137.4300000000000068
0
CIRCLE
8
BLACK
10
216.3549999999999898
20
-131.3199999999999932
40
3.5499999999999998
0
LINE
8
BLACK
6
CONTINUOUS
10
210.2450000000000045
20
-94.7299999999999898
11
210.2450000000000045
21
-97.2399999999999949
0
LINE
8
BLACK
6
CONTINUOUS
10
210.2450000000000045
20
-94.7299999999999898
11
222.4650000000000034
21
-94.7299999999999898
0
LINE
8
BLACK
6
CONTINUOUS
10
210.2450000000000045
20
-99.539999999999992
11
210.2450000000000045
21
-102.1400000000000006
0
LINE
8
BLACK
6
CONTINUOUS
10
210.2450000000000045
20
-104.4399999999999977
11
210.2450000000000045
21
-106.9499999999999886
0
LINE
8
BLACK
6
CONTINUOUS
10
222.4650000000000034
20
-94.7299999999999898
11
222.4650000000000034
21
-97.2399999999999949
0
LINE
8
BLACK
6
CONTINUOUS
10
222.4650000000000034
20
-99.539999999999992
11
222.4650000000000034
21
-102.1400000000000006
0
LINE
8
BLACK
6
CONTINUOUS
10
222.4650000000000034
20
-104.4399999999999977
11
222.4650000000000034
21
-106.9499999999999886
0
LINE
8
BLACK
6
CONTINUOUS
10
222.4650000000000034
20
-106.9499999999999886
11
210.2450000000000045
21
-106.9499999999999886
0
CIRCLE
8
BLACK
10
216.3549999999999898
20
-100.8399999999999892
40
3.5499999999999998
0
LINE
8
BLACK
6
CONTINUOUS
10
162.7849999999999966
20
-114.8099999999999881
11
163.4749999999999943
21
-114.8099999999999881
0
LINE
8
BLACK
6
CONTINUOUS
10
163.4749999999999943
20
-113.0899999999999892
11
163.4749999999999943
21
-116.5300000000000011
0
LINE
8
BLACK
6
CONTINUOUS
10
163.4749999999999943
20
-116.5300000000000011
11
172.7150000000000034
21
-116.5300000000000011
0
LINE
8
BLACK
6
CONTINUOUS
10
172.7150000000000034
20
-113.0899999999999892
11
163.4749999999999943
21
-113.0899999999999892
0
LINE
8
BLACK
6
CONTINUOUS
10
172.7150000000000034
20
-116.5300000000000011
11
172.7150000000000034
21
-113.0899999999999892
0
LINE
8
BLACK
6
CONTINUOUS
10
173.4050000000000011
20
-114.8099999999999881
11
172.7150000000000034
21
-114.8099999999999881
0
LINE
8
BLACK
6
CONTINUOUS
10
204.375
20
-126.4299999999999926
11
204.375
21
-135.6699999999999875
0
LINE
8
BLACK
6
CONTINUOUS
10
204.375
20
-135.6699999999999875
11
207.8149999999999977
21
-135.6699999999999875
0
LINE
8
BLACK
6
CONTINUOUS
10
206.0949999999999989
20
-125.7399999999999949
11
206.0949999999999989
21
-126.4299999999999926
0
LINE
8
BLACK
6
CONTINUOUS
10
206.0949999999999989
20
-136.3599999999999852
11
206.0949999999999989
21
-135.6699999999999875
0
LINE
8
BLACK
6
CONTINUOUS
10
207.8149999999999977
20
-126.4299999999999926
11
204.375
21
-126.4299999999999926
0
LINE
8
BLACK
6
CONTINUOUS
10
207.8149999999999977
20
-135.6699999999999875
11
207.8149999999999977
21
-126.4299999999999926
0
LINE
8
BLACK
6
CONTINUOUS
10
141.1749999999999829
20
-113.2199999999999989
11
143.6749999999999829
21
-113.2199999999999989
0
LINE
8
BLACK
6
CONTINUOUS
10
141.1749999999999829
20
-115.3199999999999932
11
141.1749999999999829
21
-113.2199999999999989
0
LINE
8
BLACK
6
CONTINUOUS
10
141.1749999999999829
20
-141.6200000000000045
11
141.1749999999999829
21
-115.3199999999999932
0
LINE
8
BLACK
6
CONTINUOUS
10
143.6749999999999829
20
-113.2199999999999989
11
143.6749999999999829
21
-115.519999999999996
0
LINE
8
BLACK
6
CONTINUOUS
10
143.6749999999999829
20
-115.519999999999996
11
156.5749999999999886
21
-115.519999999999996
0
LINE
8
BLACK
6
CONTINUOUS
10
148.375
20
-138.7199999999999989
11
152.1749999999999829
21
-138.7199999999999989
0
LINE
8
BLACK
6
CONTINUOUS
10
148.375
20
-141.2199999999999989
11
148.375
21
-138.7199999999999989
0
LINE
8
BLACK
6
CONTINUOUS
10
152.1749999999999829
20
-138.7199999999999989
11
152.1749999999999829
21
-141.2199999999999989
0
LINE
8
BLACK
6
CONTINUOUS
10
152.1749999999999829
20
-141.2199999999999989
11
148.4749999999999943
21
-141.2199999999999989
0
LINE
8
BLACK
6
CONTINUOUS
10
156.5749999999999886
20
-113.2199999999999989
11
156.875
21
-113.2199999999999989
0
LINE
8
BLACK
6
CONTINUOUS
10
156.5749999999999886
20
-115.3199999999999932
11
156.5749999999999886
21
-113.2199999999999989
0
LINE
8
BLACK
6
CONTINUOUS
10
156.5749999999999886
20
-115.519999999999996
11
156.5749999999999886
21
-115.2199999999999989
0
LINE
8
BLACK
6
CONTINUOUS
10
156.875
20
-113.2199999999999989
11
158.9749999999999943
21
-113.2199999999999989
0
LINE
8
BLACK
6
CONTINUOUS
10
158.9749999999999943
20
-113.2199999999999989
11
158.9749999999999943
21
-141.6200000000000045
0
LINE
8
BLACK
6
CONTINUOUS
10
158.9749999999999943
20
-141.6200000000000045
11
141.1749999999999829
21
-141.6200000000000045
0
LINE
8
BLACK
6
CONTINUOUS
10
185.1349999999999909
20
-76.6599999999999966
11
185.1349999999999909
21
-78.0799999999999983
0
LINE
8
BLACK
6
CONTINUOUS
10
185.1349999999999909
20
-78.0799999999999983
11
189.6349999999999909
21
-78.0799999999999983
0
LINE
8
BLACK
6
CONTINUOUS
10
185.1349999999999909
20
-82.8599999999999994
11
189.6349999999999909
21
-82.8599999999999994
0
LINE
8
BLACK
6
CONTINUOUS
10
185.1349999999999909
20
-84.2800000000000011
11
185.1349999999999909
21
-82.8599999999999994
0
LINE
8
BLACK
6
CONTINUOUS
10
187.0449999999999875
20
-81.4200000000000017
11
187.6449999999999818
21
-81.7199999999999989
0
LINE
8
BLACK
6
CONTINUOUS
10
187.0449999999999875
20
-82.019999999999996
11
187.0449999999999875
21
-81.4200000000000017
0
LINE
8
BLACK
6
CONTINUOUS
10
187.6449999999999818
20
-81.7199999999999989
11
187.0449999999999875
21
-82.019999999999996
0
LINE
8
BLACK
6
CONTINUOUS
10
190.7450000000000045
20
-78.9699999999999989
11
190.7450000000000045
21
-79.4699999999999989
0
LINE
8
BLACK
6
CONTINUOUS
10
190.7450000000000045
20
-79.4699999999999989
11
196.2450000000000045
21
-79.4699999999999989
0
LINE
8
BLACK
6
CONTINUOUS
10
190.7450000000000045
20
-81.4699999999999989
11
190.7450000000000045
21
-81.9699999999999989
0
LINE
8
BLACK
6
CONTINUOUS
10
190.7450000000000045
20
-81.9699999999999989
11
196.2450000000000045
21
-81.9699999999999989
0
LINE
8
BLACK
6
CONTINUOUS
10
196.2450000000000045
20
-78.9699999999999989
11
190.7450000000000045
21
-78.9699999999999989
0
LINE
8
BLACK
6
CONTINUOUS
10
196.2450000000000045
20
-79.4699999999999989
11
196.2450000000000045
21
-78.9699999999999989
0
LINE
8
BLACK
6
CONTINUOUS
10
196.2450000000000045
20
-81.4699999999999989
11
190.7450000000000045
21
-81.4699999999999989
0
LINE
8
BLACK
6
CONTINUOUS
10
196.2450000000000045
20
-81.9699999999999989
11
196.2450000000000045
21
-81.4699999999999989
0
LINE
8
BLACK
6
CONTINUOUS
10
196.8549999999999898
20
-76.6599999999999966
11
185.1349999999999909
21
-76.6599999999999966
0
LINE
8
BLACK
6
CONTINUOUS
10
196.8549999999999898
20
-80.4699999999999989
11
196.8549999999999898
21
-76.6599999999999966
0
LINE
8
BLACK
6
CONTINUOUS
10
196.8549999999999898
20
-80.4699999999999989
11
196.8549999999999898
21
-84.2800000000000011
0
LINE
8
BLACK
6
CONTINUOUS
10
196.8549999999999898
20
-84.2800000000000011
11
185.1349999999999909
21
-84.2800000000000011
0
LINE
8
BLACK
6
CONTINUOUS
10
95.0749999999999886
20
-112.519999999999996
11
95.0749999999999886
21
-121.7599999999999909
0
LINE
8
BLACK
6
CONTINUOUS
10
95.0749999999999886
20
-121.7599999999999909
11
98.5150000000000006
21
-121.7599999999999909
0
LINE
8
BLACK
6
CONTINUOUS
10
96.7950000000000017
20
-111.8299999999999983
11
96.7950000000000017
21
-112.519999999999996
0
LINE
8
BLACK
6
CONTINUOUS
10
96.7950000000000017
20
-122.4499999999999886
11
96.7950000000000017
21
-121.7599999999999909
0
LINE
8
BLACK
6
CONTINUOUS
10
98.5150000000000006
20
-112.519999999999996
11
95.0749999999999886
21
-112.519999999999996
0
LINE
8
BLACK
6
CONTINUOUS
10
98.5150000000000006
20
-121.7599999999999909
11
98.5150000000000006
21
-112.519999999999996
0
LINE
8
BLACK
6
CONTINUOUS
10
219.7150000000000034
20
-111.4599999999999937
11
219.7150000000000034
21
-120.6999999999999886
0
LINE
8
BLACK
6
CONTINUOUS
10
219.7150000000000034
20
-120.6999999999999886
11
223.1550000000000011
21
-120.6999999999999886
0
LINE
8
BLACK
6
CONTINUOUS
10
221.4350000000000023
20
-110.769999999999996
11
221.4350000000000023
21
-111.4599999999999937
0
LINE
8
BLACK
6
CONTINUOUS
10
221.4350000000000023
20
-121.3900000000000006
11
221.4350000000000023
21
-120.6999999999999886
0
LINE
8
BLACK
6
CONTINUOUS
10
223.1550000000000011
20
-111.4599999999999937
11
219.7150000000000034
21
-111.4599999999999937
0
LINE
8
BLACK
6
CONTINUOUS
10
223.1550000000000011
20
-120.6999999999999886
11
223.1550000000000011
21
-111.4599999999999937
0
LINE
8
BLACK
6
CONTINUOUS
10
130.3050000000000068
20
-122.9499999999999886
11
130.3050000000000068
21
-124.4499999999999886
0
LINE
8
BLACK
6
CONTINUOUS
10
131.5550000000000068
20
-126.9499999999999886
11
136.0550000000000068
21
-126.9499999999999886
0
LINE
8
BLACK
6
CONTINUOUS
10
136.0550000000000068
20
-120.4499999999999886
11
131.5550000000000068
21
-120.4499999999999886
0
LINE
8
BLACK
6
CONTINUOUS
10
137.3050000000000068
20
-124.4499999999999886
11
137.3050000000000068
21
-122.9499999999999886
0
LINE
8
BLACK
6
CONTINUOUS
10
189.2349999999999852
20
-111.4599999999999937
11
189.2349999999999852
21
-120.6999999999999886
0
LINE
8
BLACK
6
CONTINUOUS
10
189.2349999999999852
20
-120.6999999999999886
11
192.6749999999999829
21
-120.6999999999999886
0
LINE
8
BLACK
6
CONTINUOUS
10
190.9549999999999841
20
-110.769999999999996
11
190.9549999999999841
21
-111.4599999999999937
0
LINE
8
BLACK
6
CONTINUOUS
10
190.9549999999999841
20
-121.3900000000000006
11
190.9549999999999841
21
-120.6999999999999886
0
LINE
8
BLACK
6
CONTINUOUS
10
192.6749999999999829
20
-111.4599999999999937
11
189.2349999999999852
21
-111.4599999999999937
0
LINE
8
BLACK
6
CONTINUOUS
10
192.6749999999999829
20
-120.6999999999999886
11
192.6749999999999829
21
-111.4599999999999937
0
LINE
8
BLACK
6
CONTINUOUS
10
127.2249999999999943
20
-114.8099999999999881
11
127.914999999999992
21
-114.8099999999999881
0
LINE
8
BLACK
6
CONTINUOUS
10
127.914999999999992
20
-113.0899999999999892
11
127.914999999999992
21
-116.5300000000000011
0
LINE
8
BLACK
6
CONTINUOUS
10
127.914999999999992
20
-116.5300000000000011
11
137.1550000000000011
21
-116.5300000000000011
0
LINE
8
BLACK
6
CONTINUOUS
10
137.1550000000000011
20
-113.0899999999999892
11
127.914999999999992
21
-113.0899999999999892
0
LINE
8
BLACK
6
CONTINUOUS
10
137.1550000000000011
20
-116.5300000000000011
11
137.1550000000000011
21
-113.0899999999999892
0
LINE
8
BLACK
6
CONTINUOUS
10
137.8449999999999989
20
-114.8099999999999881
11
137.1550000000000011
21
-114.8099999999999881
0
ARC
8
BLACK
10
77.3999749999999977
20
-127.2399979999999999
40
15.0000019999999985
50
-180.00000000
51
-90.00000000
0
ARC
8
BLACK
10
227.3999450000000024
20
-72.2400729999999953
40
15.000073000053332
50
-0.14327326
51
89.99984721
0
ARC
8
BLACK
10
227.4000249999999994
20
-127.240052999999989
40
14.9999479999999998
50
-90.00000000
51
-0.00000000
0
LINE
8
BLACK
6
CONTINUOUS
10
242.3999729999999886
20
-72.2775819999999953
11
242.3999729999999886
21
-127.240052999999989
0
LINE
8
BLACK
6
CONTINUOUS
10
62.3999729999999957
20
-72.2400030000000015
11
62.3999729999999957
21
-127.2399979999999999
0
ARC
8
BLACK
10
77.3999749999999977
20
-72.2400019999999898
40
15.0000020000000323
50
-270.00000000
51
-179.99999618
0
LINE
8
BLACK
6
CONTINUOUS
10
77.3999749999999977
20
-142.2399999999999807
11
227.4000249999999994
21
-142.2399999999999807
0
LINE
8
BLACK
6
CONTINUOUS
10
77.3999749999999977
20
-57.2399999999999949
11
227.3999849999999867
21
-57.2399999999999949
  0
ENDSEC
  0
EOF
