ISO-10303-21;
HEADER;
/* Generated by software containing ST-Developer
 * from STEP Tools, Inc. (www.steptools.com) 
 */
/* OPTION: using custom renumber hook */

FILE_DESCRIPTION(
/* description */ ('STEP AP242 Edition 2',
'CAx-IF Rec.Pracs.---Representation and Presentation of Product Manufa
cturing Information (PMI)---4.0---2014-10-13',
'CAx-IF Rec.Pracs.---3D Tessellated Geometry---0.4---2014-09-14','2;1',
'CAx-IF Rec.Pracs.---User Defined Attributes---1.5---2016-08-15'),
/* implementation_level */ '2;1');

FILE_NAME(
/* name */ 'Back_Cover',
/* time_stamp */ '2026-06-10T21:00:43Z',
/* author */ (''),
/* organization */ (''),
/* preprocessor_version */ 'ST-DEVELOPER v20',
/* originating_system */ 'ONSHAPE BY PTC INC, 1.216',
/* authorisation */ '  ');

FILE_SCHEMA (('AP242_MANAGED_MODEL_BASED_3D_ENGINEERING_MIM_LF { 1 0 10303 442 3 1 4 }'));
ENDSEC;

DATA;
#10=SHAPE_REPRESENTATION_RELATIONSHIP('','',#375,#11);
#11=ADVANCED_BREP_SHAPE_REPRESENTATION('',(#373),#619);
#12=CIRCLE('',#379,0.005);
#13=CIRCLE('',#380,0.005);
#14=CIRCLE('',#383,0.005);
#15=CIRCLE('',#384,0.005);
#16=CIRCLE('',#387,0.005);
#17=CIRCLE('',#388,0.005);
#18=CIRCLE('',#391,0.005);
#19=CIRCLE('',#392,0.005);
#20=CIRCLE('',#394,0.0015);
#21=CIRCLE('',#396,0.0015);
#22=CIRCLE('',#398,0.002);
#23=CIRCLE('',#400,0.002);
#24=CIRCLE('',#403,0.002);
#25=CIRCLE('',#405,0.002);
#26=CYLINDRICAL_SURFACE('',#378,0.005);
#27=CYLINDRICAL_SURFACE('',#382,0.005);
#28=CYLINDRICAL_SURFACE('',#386,0.005);
#29=CYLINDRICAL_SURFACE('',#390,0.005);
#30=CYLINDRICAL_SURFACE('',#407,0.002);
#31=CYLINDRICAL_SURFACE('',#408,0.002);
#32=CYLINDRICAL_SURFACE('',#409,0.0015);
#33=ORIENTED_EDGE('',*,*,#133,.F.);
#34=ORIENTED_EDGE('',*,*,#134,.F.);
#35=ORIENTED_EDGE('',*,*,#135,.T.);
#36=ORIENTED_EDGE('',*,*,#136,.F.);
#37=ORIENTED_EDGE('',*,*,#137,.F.);
#38=ORIENTED_EDGE('',*,*,#138,.T.);
#39=ORIENTED_EDGE('',*,*,#139,.T.);
#40=ORIENTED_EDGE('',*,*,#140,.F.);
#41=ORIENTED_EDGE('',*,*,#141,.F.);
#42=ORIENTED_EDGE('',*,*,#142,.F.);
#43=ORIENTED_EDGE('',*,*,#143,.T.);
#44=ORIENTED_EDGE('',*,*,#144,.F.);
#45=ORIENTED_EDGE('',*,*,#145,.T.);
#46=ORIENTED_EDGE('',*,*,#146,.F.);
#47=ORIENTED_EDGE('',*,*,#147,.F.);
#48=ORIENTED_EDGE('',*,*,#137,.T.);
#49=ORIENTED_EDGE('',*,*,#148,.T.);
#50=ORIENTED_EDGE('',*,*,#149,.F.);
#51=ORIENTED_EDGE('',*,*,#150,.F.);
#52=ORIENTED_EDGE('',*,*,#146,.T.);
#53=ORIENTED_EDGE('',*,*,#151,.T.);
#54=ORIENTED_EDGE('',*,*,#152,.F.);
#55=ORIENTED_EDGE('',*,*,#153,.F.);
#56=ORIENTED_EDGE('',*,*,#149,.T.);
#57=ORIENTED_EDGE('',*,*,#154,.T.);
#58=ORIENTED_EDGE('',*,*,#155,.F.);
#59=ORIENTED_EDGE('',*,*,#156,.F.);
#60=ORIENTED_EDGE('',*,*,#152,.T.);
#61=ORIENTED_EDGE('',*,*,#157,.T.);
#62=ORIENTED_EDGE('',*,*,#158,.F.);
#63=ORIENTED_EDGE('',*,*,#159,.F.);
#64=ORIENTED_EDGE('',*,*,#155,.T.);
#65=ORIENTED_EDGE('',*,*,#160,.F.);
#66=ORIENTED_EDGE('',*,*,#161,.F.);
#67=ORIENTED_EDGE('',*,*,#162,.T.);
#68=ORIENTED_EDGE('',*,*,#158,.T.);
#69=ORIENTED_EDGE('',*,*,#163,.T.);
#70=ORIENTED_EDGE('',*,*,#139,.F.);
#71=ORIENTED_EDGE('',*,*,#164,.F.);
#72=ORIENTED_EDGE('',*,*,#161,.T.);
#73=ORIENTED_EDGE('',*,*,#165,.F.);
#74=ORIENTED_EDGE('',*,*,#138,.F.);
#75=ORIENTED_EDGE('',*,*,#147,.T.);
#76=ORIENTED_EDGE('',*,*,#150,.T.);
#77=ORIENTED_EDGE('',*,*,#153,.T.);
#78=ORIENTED_EDGE('',*,*,#156,.T.);
#79=ORIENTED_EDGE('',*,*,#159,.T.);
#80=ORIENTED_EDGE('',*,*,#162,.F.);
#81=ORIENTED_EDGE('',*,*,#164,.T.);
#82=ORIENTED_EDGE('',*,*,#166,.T.);
#83=ORIENTED_EDGE('',*,*,#136,.T.);
#84=ORIENTED_EDGE('',*,*,#167,.T.);
#85=ORIENTED_EDGE('',*,*,#168,.T.);
#86=ORIENTED_EDGE('',*,*,#169,.F.);
#87=ORIENTED_EDGE('',*,*,#144,.T.);
#88=ORIENTED_EDGE('',*,*,#170,.T.);
#89=ORIENTED_EDGE('',*,*,#171,.F.);
#90=ORIENTED_EDGE('',*,*,#172,.F.);
#91=ORIENTED_EDGE('',*,*,#140,.T.);
#92=ORIENTED_EDGE('',*,*,#163,.F.);
#93=ORIENTED_EDGE('',*,*,#160,.T.);
#94=ORIENTED_EDGE('',*,*,#157,.F.);
#95=ORIENTED_EDGE('',*,*,#154,.F.);
#96=ORIENTED_EDGE('',*,*,#151,.F.);
#97=ORIENTED_EDGE('',*,*,#148,.F.);
#98=ORIENTED_EDGE('',*,*,#145,.F.);
#99=ORIENTED_EDGE('',*,*,#173,.T.);
#100=ORIENTED_EDGE('',*,*,#174,.T.);
#101=ORIENTED_EDGE('',*,*,#170,.F.);
#102=ORIENTED_EDGE('',*,*,#143,.F.);
#103=ORIENTED_EDGE('',*,*,#172,.T.);
#104=ORIENTED_EDGE('',*,*,#175,.T.);
#105=ORIENTED_EDGE('',*,*,#176,.F.);
#106=ORIENTED_EDGE('',*,*,#141,.T.);
#107=ORIENTED_EDGE('',*,*,#176,.T.);
#108=ORIENTED_EDGE('',*,*,#177,.T.);
#109=ORIENTED_EDGE('',*,*,#173,.F.);
#110=ORIENTED_EDGE('',*,*,#142,.T.);
#111=ORIENTED_EDGE('',*,*,#178,.T.);
#112=ORIENTED_EDGE('',*,*,#179,.T.);
#113=ORIENTED_EDGE('',*,*,#167,.F.);
#114=ORIENTED_EDGE('',*,*,#135,.F.);
#115=ORIENTED_EDGE('',*,*,#169,.T.);
#116=ORIENTED_EDGE('',*,*,#180,.T.);
#117=ORIENTED_EDGE('',*,*,#181,.F.);
#118=ORIENTED_EDGE('',*,*,#133,.T.);
#119=ORIENTED_EDGE('',*,*,#181,.T.);
#120=ORIENTED_EDGE('',*,*,#182,.T.);
#121=ORIENTED_EDGE('',*,*,#178,.F.);
#122=ORIENTED_EDGE('',*,*,#134,.T.);
#123=ORIENTED_EDGE('',*,*,#179,.F.);
#124=ORIENTED_EDGE('',*,*,#182,.F.);
#125=ORIENTED_EDGE('',*,*,#180,.F.);
#126=ORIENTED_EDGE('',*,*,#168,.F.);
#127=ORIENTED_EDGE('',*,*,#175,.F.);
#128=ORIENTED_EDGE('',*,*,#171,.T.);
#129=ORIENTED_EDGE('',*,*,#174,.F.);
#130=ORIENTED_EDGE('',*,*,#177,.F.);
#131=ORIENTED_EDGE('',*,*,#165,.T.);
#132=ORIENTED_EDGE('',*,*,#166,.F.);
#133=EDGE_CURVE('',#183,#184,#217,.T.);
#134=EDGE_CURVE('',#185,#183,#218,.T.);
#135=EDGE_CURVE('',#185,#186,#219,.T.);
#136=EDGE_CURVE('',#187,#186,#220,.T.);
#137=EDGE_CURVE('',#188,#187,#221,.T.);
#138=EDGE_CURVE('',#188,#189,#222,.T.);
#139=EDGE_CURVE('',#189,#190,#223,.T.);
#140=EDGE_CURVE('',#191,#190,#224,.T.);
#141=EDGE_CURVE('',#192,#191,#225,.T.);
#142=EDGE_CURVE('',#193,#192,#226,.T.);
#143=EDGE_CURVE('',#193,#194,#227,.T.);
#144=EDGE_CURVE('',#184,#194,#228,.T.);
#145=EDGE_CURVE('',#187,#195,#12,.T.);
#146=EDGE_CURVE('',#196,#195,#229,.T.);
#147=EDGE_CURVE('',#188,#196,#13,.T.);
#148=EDGE_CURVE('',#195,#197,#230,.T.);
#149=EDGE_CURVE('',#198,#197,#231,.T.);
#150=EDGE_CURVE('',#196,#198,#232,.T.);
#151=EDGE_CURVE('',#197,#199,#14,.T.);
#152=EDGE_CURVE('',#200,#199,#233,.T.);
#153=EDGE_CURVE('',#198,#200,#15,.T.);
#154=EDGE_CURVE('',#199,#201,#234,.T.);
#155=EDGE_CURVE('',#202,#201,#235,.T.);
#156=EDGE_CURVE('',#200,#202,#236,.T.);
#157=EDGE_CURVE('',#201,#203,#16,.T.);
#158=EDGE_CURVE('',#204,#203,#237,.T.);
#159=EDGE_CURVE('',#202,#204,#17,.T.);
#160=EDGE_CURVE('',#205,#203,#238,.T.);
#161=EDGE_CURVE('',#206,#205,#239,.T.);
#162=EDGE_CURVE('',#206,#204,#240,.T.);
#163=EDGE_CURVE('',#205,#190,#18,.T.);
#164=EDGE_CURVE('',#206,#189,#19,.T.);
#165=EDGE_CURVE('',#207,#207,#20,.T.);
#166=EDGE_CURVE('',#208,#208,#21,.T.);
#167=EDGE_CURVE('',#186,#209,#241,.T.);
#168=EDGE_CURVE('',#209,#210,#242,.T.);
#169=EDGE_CURVE('',#184,#210,#243,.T.);
#170=EDGE_CURVE('',#194,#211,#244,.T.);
#171=EDGE_CURVE('',#212,#211,#245,.T.);
#172=EDGE_CURVE('',#191,#212,#246,.T.);
#173=EDGE_CURVE('',#193,#213,#247,.T.);
#174=EDGE_CURVE('',#213,#211,#22,.T.);
#175=EDGE_CURVE('',#212,#214,#23,.F.);
#176=EDGE_CURVE('',#192,#214,#248,.T.);
#177=EDGE_CURVE('',#214,#213,#249,.T.);
#178=EDGE_CURVE('',#185,#215,#250,.T.);
#179=EDGE_CURVE('',#215,#209,#24,.T.);
#180=EDGE_CURVE('',#210,#216,#25,.F.);
#181=EDGE_CURVE('',#183,#216,#251,.T.);
#182=EDGE_CURVE('',#216,#215,#252,.F.);
#183=VERTEX_POINT('',#517);
#184=VERTEX_POINT('',#518);
#185=VERTEX_POINT('',#520);
#186=VERTEX_POINT('',#522);
#187=VERTEX_POINT('',#524);
#188=VERTEX_POINT('',#526);
#189=VERTEX_POINT('',#528);
#190=VERTEX_POINT('',#530);
#191=VERTEX_POINT('',#532);
#192=VERTEX_POINT('',#534);
#193=VERTEX_POINT('',#536);
#194=VERTEX_POINT('',#538);
#195=VERTEX_POINT('',#542);
#196=VERTEX_POINT('',#544);
#197=VERTEX_POINT('',#548);
#198=VERTEX_POINT('',#550);
#199=VERTEX_POINT('',#554);
#200=VERTEX_POINT('',#556);
#201=VERTEX_POINT('',#560);
#202=VERTEX_POINT('',#562);
#203=VERTEX_POINT('',#566);
#204=VERTEX_POINT('',#568);
#205=VERTEX_POINT('',#572);
#206=VERTEX_POINT('',#574);
#207=VERTEX_POINT('',#581);
#208=VERTEX_POINT('',#584);
#209=VERTEX_POINT('',#586);
#210=VERTEX_POINT('',#588);
#211=VERTEX_POINT('',#591);
#212=VERTEX_POINT('',#593);
#213=VERTEX_POINT('',#597);
#214=VERTEX_POINT('',#601);
#215=VERTEX_POINT('',#607);
#216=VERTEX_POINT('',#611);
#217=LINE('',#516,#253);
#218=LINE('',#519,#254);
#219=LINE('',#521,#255);
#220=LINE('',#523,#256);
#221=LINE('',#525,#257);
#222=LINE('',#527,#258);
#223=LINE('',#529,#259);
#224=LINE('',#531,#260);
#225=LINE('',#533,#261);
#226=LINE('',#535,#262);
#227=LINE('',#537,#263);
#228=LINE('',#539,#264);
#229=LINE('',#543,#265);
#230=LINE('',#547,#266);
#231=LINE('',#549,#267);
#232=LINE('',#551,#268);
#233=LINE('',#555,#269);
#234=LINE('',#559,#270);
#235=LINE('',#561,#271);
#236=LINE('',#563,#272);
#237=LINE('',#567,#273);
#238=LINE('',#571,#274);
#239=LINE('',#573,#275);
#240=LINE('',#575,#276);
#241=LINE('',#585,#277);
#242=LINE('',#587,#278);
#243=LINE('',#589,#279);
#244=LINE('',#590,#280);
#245=LINE('',#592,#281);
#246=LINE('',#594,#282);
#247=LINE('',#596,#283);
#248=LINE('',#602,#284);
#249=LINE('',#604,#285);
#250=LINE('',#606,#286);
#251=LINE('',#612,#287);
#252=LINE('',#614,#288);
#253=VECTOR('',#414,1.);
#254=VECTOR('',#415,1.);
#255=VECTOR('',#416,1.);
#256=VECTOR('',#417,1.);
#257=VECTOR('',#418,1.);
#258=VECTOR('',#419,1.);
#259=VECTOR('',#420,1.);
#260=VECTOR('',#421,1.);
#261=VECTOR('',#422,1.);
#262=VECTOR('',#423,1.);
#263=VECTOR('',#424,1.);
#264=VECTOR('',#425,1.);
#265=VECTOR('',#430,1.);
#266=VECTOR('',#435,1.);
#267=VECTOR('',#436,1.);
#268=VECTOR('',#437,1.);
#269=VECTOR('',#442,1.);
#270=VECTOR('',#447,1.);
#271=VECTOR('',#448,1.);
#272=VECTOR('',#449,1.);
#273=VECTOR('',#454,1.);
#274=VECTOR('',#459,1.);
#275=VECTOR('',#460,1.);
#276=VECTOR('',#461,1.);
#277=VECTOR('',#476,1.);
#278=VECTOR('',#477,1.);
#279=VECTOR('',#478,1.);
#280=VECTOR('',#479,1.);
#281=VECTOR('',#480,1.);
#282=VECTOR('',#481,1.);
#283=VECTOR('',#484,1.);
#284=VECTOR('',#491,1.);
#285=VECTOR('',#494,1.);
#286=VECTOR('',#497,1.);
#287=VECTOR('',#504,1.);
#288=VECTOR('',#507,1.);
#289=EDGE_LOOP('',(#33,#34,#35,#36,#37,#38,#39,#40,#41,#42,#43,#44));
#290=EDGE_LOOP('',(#45,#46,#47,#48));
#291=EDGE_LOOP('',(#49,#50,#51,#52));
#292=EDGE_LOOP('',(#53,#54,#55,#56));
#293=EDGE_LOOP('',(#57,#58,#59,#60));
#294=EDGE_LOOP('',(#61,#62,#63,#64));
#295=EDGE_LOOP('',(#65,#66,#67,#68));
#296=EDGE_LOOP('',(#69,#70,#71,#72));
#297=EDGE_LOOP('',(#73));
#298=EDGE_LOOP('',(#74,#75,#76,#77,#78,#79,#80,#81));
#299=EDGE_LOOP('',(#82));
#300=EDGE_LOOP('',(#83,#84,#85,#86,#87,#88,#89,#90,#91,#92,#93,#94,#95,
#96,#97,#98));
#301=EDGE_LOOP('',(#99,#100,#101,#102));
#302=EDGE_LOOP('',(#103,#104,#105,#106));
#303=EDGE_LOOP('',(#107,#108,#109,#110));
#304=EDGE_LOOP('',(#111,#112,#113,#114));
#305=EDGE_LOOP('',(#115,#116,#117,#118));
#306=EDGE_LOOP('',(#119,#120,#121,#122));
#307=EDGE_LOOP('',(#123,#124,#125,#126));
#308=EDGE_LOOP('',(#127,#128,#129,#130));
#309=EDGE_LOOP('',(#131));
#310=EDGE_LOOP('',(#132));
#311=FACE_BOUND('',#289,.T.);
#312=FACE_BOUND('',#290,.T.);
#313=FACE_BOUND('',#291,.T.);
#314=FACE_BOUND('',#292,.T.);
#315=FACE_BOUND('',#293,.T.);
#316=FACE_BOUND('',#294,.T.);
#317=FACE_BOUND('',#295,.T.);
#318=FACE_BOUND('',#296,.T.);
#319=FACE_BOUND('',#297,.T.);
#320=FACE_BOUND('',#298,.T.);
#321=FACE_BOUND('',#299,.T.);
#322=FACE_BOUND('',#300,.T.);
#323=FACE_BOUND('',#301,.T.);
#324=FACE_BOUND('',#302,.T.);
#325=FACE_BOUND('',#303,.T.);
#326=FACE_BOUND('',#304,.T.);
#327=FACE_BOUND('',#305,.T.);
#328=FACE_BOUND('',#306,.T.);
#329=FACE_BOUND('',#307,.T.);
#330=FACE_BOUND('',#308,.T.);
#331=FACE_BOUND('',#309,.T.);
#332=FACE_BOUND('',#310,.T.);
#333=PLANE('',#377);
#334=PLANE('',#381);
#335=PLANE('',#385);
#336=PLANE('',#389);
#337=PLANE('',#393);
#338=PLANE('',#395);
#339=PLANE('',#397);
#340=PLANE('',#399);
#341=PLANE('',#401);
#342=PLANE('',#402);
#343=PLANE('',#404);
#344=PLANE('',#406);
#345=ADVANCED_FACE('',(#311),#333,.T.);
#346=ADVANCED_FACE('',(#312),#26,.T.);
#347=ADVANCED_FACE('',(#313),#334,.F.);
#348=ADVANCED_FACE('',(#314),#27,.T.);
#349=ADVANCED_FACE('',(#315),#335,.F.);
#350=ADVANCED_FACE('',(#316),#28,.T.);
#351=ADVANCED_FACE('',(#317),#336,.T.);
#352=ADVANCED_FACE('',(#318),#29,.T.);
#353=ADVANCED_FACE('',(#319,#320),#337,.T.);
#354=ADVANCED_FACE('',(#321,#322),#338,.F.);
#355=ADVANCED_FACE('',(#323),#339,.T.);
#356=ADVANCED_FACE('',(#324),#340,.F.);
#357=ADVANCED_FACE('',(#325),#341,.T.);
#358=ADVANCED_FACE('',(#326),#342,.T.);
#359=ADVANCED_FACE('',(#327),#343,.F.);
#360=ADVANCED_FACE('',(#328),#344,.T.);
#361=ADVANCED_FACE('',(#329),#30,.T.);
#362=ADVANCED_FACE('',(#330),#31,.T.);
#363=ADVANCED_FACE('',(#331,#332),#32,.F.);
#364=CLOSED_SHELL('',(#345,#346,#347,#348,#349,#350,#351,#352,#353,#354,
#355,#356,#357,#358,#359,#360,#361,#362,#363));
#365=STYLED_ITEM('',(#366),#373);
#366=PRESENTATION_STYLE_ASSIGNMENT((#367));
#367=SURFACE_STYLE_USAGE(.BOTH.,#368);
#368=SURFACE_SIDE_STYLE('',(#369));
#369=SURFACE_STYLE_FILL_AREA(#370);
#370=FILL_AREA_STYLE('',(#371));
#371=FILL_AREA_STYLE_COLOUR('',#372);
#372=COLOUR_RGB('',0.274509803921568,0.0117647058823529,0.31764705882353);
#373=MANIFOLD_SOLID_BREP('Part 1',#364);
#374=SHAPE_DEFINITION_REPRESENTATION(#624,#375);
#375=SHAPE_REPRESENTATION('Part 1',(#376),#619);
#376=AXIS2_PLACEMENT_3D('',#514,#410,#411);
#377=AXIS2_PLACEMENT_3D('',#515,#412,#413);
#378=AXIS2_PLACEMENT_3D('',#540,#426,#427);
#379=AXIS2_PLACEMENT_3D('',#541,#428,#429);
#380=AXIS2_PLACEMENT_3D('',#545,#431,#432);
#381=AXIS2_PLACEMENT_3D('',#546,#433,#434);
#382=AXIS2_PLACEMENT_3D('',#552,#438,#439);
#383=AXIS2_PLACEMENT_3D('',#553,#440,#441);
#384=AXIS2_PLACEMENT_3D('',#557,#443,#444);
#385=AXIS2_PLACEMENT_3D('',#558,#445,#446);
#386=AXIS2_PLACEMENT_3D('',#564,#450,#451);
#387=AXIS2_PLACEMENT_3D('',#565,#452,#453);
#388=AXIS2_PLACEMENT_3D('',#569,#455,#456);
#389=AXIS2_PLACEMENT_3D('',#570,#457,#458);
#390=AXIS2_PLACEMENT_3D('',#576,#462,#463);
#391=AXIS2_PLACEMENT_3D('',#577,#464,#465);
#392=AXIS2_PLACEMENT_3D('',#578,#466,#467);
#393=AXIS2_PLACEMENT_3D('',#579,#468,#469);
#394=AXIS2_PLACEMENT_3D('',#580,#470,#471);
#395=AXIS2_PLACEMENT_3D('',#582,#472,#473);
#396=AXIS2_PLACEMENT_3D('',#583,#474,#475);
#397=AXIS2_PLACEMENT_3D('',#595,#482,#483);
#398=AXIS2_PLACEMENT_3D('',#598,#485,#486);
#399=AXIS2_PLACEMENT_3D('',#599,#487,#488);
#400=AXIS2_PLACEMENT_3D('',#600,#489,#490);
#401=AXIS2_PLACEMENT_3D('',#603,#492,#493);
#402=AXIS2_PLACEMENT_3D('',#605,#495,#496);
#403=AXIS2_PLACEMENT_3D('',#608,#498,#499);
#404=AXIS2_PLACEMENT_3D('',#609,#500,#501);
#405=AXIS2_PLACEMENT_3D('',#610,#502,#503);
#406=AXIS2_PLACEMENT_3D('',#613,#505,#506);
#407=AXIS2_PLACEMENT_3D('',#615,#508,#509);
#408=AXIS2_PLACEMENT_3D('',#616,#510,#511);
#409=AXIS2_PLACEMENT_3D('',#617,#512,#513);
#410=DIRECTION('',(0.,0.,1.));
#411=DIRECTION('',(1.,0.,0.));
#412=DIRECTION('',(0.,0.,1.));
#413=DIRECTION('',(0.,-1.,0.));
#414=DIRECTION('',(0.,-1.,0.));
#415=DIRECTION('',(-1.,0.,0.));
#416=DIRECTION('',(0.,-1.,0.));
#417=DIRECTION('',(-1.,0.,0.));
#418=DIRECTION('',(0.,-1.,0.));
#419=DIRECTION('',(-1.,0.,0.));
#420=DIRECTION('',(0.,-1.,0.));
#421=DIRECTION('',(-1.,0.,0.));
#422=DIRECTION('',(0.,-1.,0.));
#423=DIRECTION('',(-1.,0.,0.));
#424=DIRECTION('',(0.,-1.,0.));
#425=DIRECTION('',(-1.,0.,0.));
#426=DIRECTION('',(0.,-1.,0.));
#427=DIRECTION('',(-1.,0.,0.));
#428=DIRECTION('',(0.,1.,0.));
#429=DIRECTION('',(1.,0.,0.));
#430=DIRECTION('',(0.,-1.,0.));
#431=DIRECTION('',(0.,1.,0.));
#432=DIRECTION('',(1.,0.,0.));
#433=DIRECTION('',(-1.,0.,0.));
#434=DIRECTION('',(0.,1.,0.));
#435=DIRECTION('',(0.,0.,-1.));
#436=DIRECTION('',(0.,-1.,0.));
#437=DIRECTION('',(0.,0.,-1.));
#438=DIRECTION('',(0.,-1.,0.));
#439=DIRECTION('',(-1.,0.,0.));
#440=DIRECTION('',(0.,1.,0.));
#441=DIRECTION('',(1.,0.,0.));
#442=DIRECTION('',(0.,-1.,0.));
#443=DIRECTION('',(0.,1.,0.));
#444=DIRECTION('',(1.,0.,0.));
#445=DIRECTION('',(0.,0.,1.));
#446=DIRECTION('',(0.,-1.,0.));
#447=DIRECTION('',(-1.,0.,0.));
#448=DIRECTION('',(0.,-1.,0.));
#449=DIRECTION('',(-1.,0.,0.));
#450=DIRECTION('',(0.,-1.,0.));
#451=DIRECTION('',(-1.,0.,0.));
#452=DIRECTION('',(0.,1.,0.));
#453=DIRECTION('',(1.,0.,0.));
#454=DIRECTION('',(0.,-1.,0.));
#455=DIRECTION('',(0.,1.,0.));
#456=DIRECTION('',(1.,0.,0.));
#457=DIRECTION('',(-1.,0.,1.88907003905647E-16));
#458=DIRECTION('',(1.88907003905647E-16,0.,1.));
#459=DIRECTION('',(-1.88907003905647E-16,0.,-1.));
#460=DIRECTION('',(0.,-1.,0.));
#461=DIRECTION('',(-1.88907003905647E-16,0.,-1.));
#462=DIRECTION('',(0.,-1.,0.));
#463=DIRECTION('',(-1.,0.,0.));
#464=DIRECTION('',(0.,1.,0.));
#465=DIRECTION('',(1.,0.,0.));
#466=DIRECTION('',(0.,1.,0.));
#467=DIRECTION('',(1.,0.,0.));
#468=DIRECTION('',(0.,1.,0.));
#469=DIRECTION('',(1.,0.,0.));
#470=DIRECTION('',(0.,1.,0.));
#471=DIRECTION('',(1.,0.,0.));
#472=DIRECTION('',(0.,1.,0.));
#473=DIRECTION('',(1.,0.,0.));
#474=DIRECTION('',(0.,1.,0.));
#475=DIRECTION('',(1.,0.,0.));
#476=DIRECTION('',(0.,0.,1.));
#477=DIRECTION('',(-1.,0.,0.));
#478=DIRECTION('',(0.,0.,1.));
#479=DIRECTION('',(0.,0.,1.));
#480=DIRECTION('',(1.,0.,0.));
#481=DIRECTION('',(0.,0.,1.));
#482=DIRECTION('',(1.,0.,0.));
#483=DIRECTION('',(0.,-1.,0.));
#484=DIRECTION('',(0.,0.,1.));
#485=DIRECTION('',(1.,0.,0.));
#486=DIRECTION('',(0.,-1.,0.));
#487=DIRECTION('',(1.,0.,0.));
#488=DIRECTION('',(0.,-1.,0.));
#489=DIRECTION('',(1.,0.,0.));
#490=DIRECTION('',(0.,-1.,0.));
#491=DIRECTION('',(0.,0.,1.));
#492=DIRECTION('',(0.,1.,0.));
#493=DIRECTION('',(1.,0.,0.));
#494=DIRECTION('',(1.,0.,0.));
#495=DIRECTION('',(1.,0.,0.));
#496=DIRECTION('',(0.,-1.,0.));
#497=DIRECTION('',(0.,0.,1.));
#498=DIRECTION('',(1.,0.,0.));
#499=DIRECTION('',(0.,-1.,0.));
#500=DIRECTION('',(1.,0.,0.));
#501=DIRECTION('',(0.,-1.,0.));
#502=DIRECTION('',(1.,0.,0.));
#503=DIRECTION('',(0.,-1.,0.));
#504=DIRECTION('',(0.,0.,1.));
#505=DIRECTION('',(0.,1.,0.));
#506=DIRECTION('',(1.,0.,0.));
#507=DIRECTION('',(-1.,0.,0.));
#508=DIRECTION('',(-1.,0.,0.));
#509=DIRECTION('',(0.,1.,0.));
#510=DIRECTION('',(-1.,0.,0.));
#511=DIRECTION('',(0.,1.,0.));
#512=DIRECTION('',(0.,1.,0.));
#513=DIRECTION('',(1.,0.,0.));
#514=CARTESIAN_POINT('',(0.,0.,0.));
#515=CARTESIAN_POINT('',(-0.0455256654119292,0.004,0.0417317979770245));
#516=CARTESIAN_POINT('',(0.0415256654119293,0.002,0.0417317979770245));
#517=CARTESIAN_POINT('',(0.0415256654119293,0.002,0.0417317979770245));
#518=CARTESIAN_POINT('',(0.0415256654119293,0.,0.0417317979770245));
#519=CARTESIAN_POINT('',(0.0455256654119292,0.002,0.0417317979770245));
#520=CARTESIAN_POINT('',(0.0495256654119292,0.002,0.0417317979770245));
#521=CARTESIAN_POINT('',(0.0495256654119292,0.002,0.0417317979770245));
#522=CARTESIAN_POINT('',(0.0495256654119292,0.,0.0417317979770245));
#523=CARTESIAN_POINT('',(-0.0455256654119292,0.,0.0417317979770245));
#524=CARTESIAN_POINT('',(0.0545256654119292,0.,0.0417317979770245));
#525=CARTESIAN_POINT('',(0.0545256654119292,0.004,0.0417317979770245));
#526=CARTESIAN_POINT('',(0.0545256654119292,0.004,0.0417317979770245));
#527=CARTESIAN_POINT('',(-0.0455256654119292,0.004,0.0417317979770245));
#528=CARTESIAN_POINT('',(-0.0545256654119292,0.004,0.0417317979770245));
#529=CARTESIAN_POINT('',(-0.0545256654119292,0.004,0.0417317979770245));
#530=CARTESIAN_POINT('',(-0.0545256654119292,0.,0.0417317979770245));
#531=CARTESIAN_POINT('',(-0.0455256654119292,0.,0.0417317979770245));
#532=CARTESIAN_POINT('',(-0.0495256654119292,0.,0.0417317979770245));
#533=CARTESIAN_POINT('',(-0.0495256654119292,0.002,0.0417317979770245));
#534=CARTESIAN_POINT('',(-0.0495256654119292,0.002,0.0417317979770245));
#535=CARTESIAN_POINT('',(-0.0455256654119292,0.002,0.0417317979770245));
#536=CARTESIAN_POINT('',(-0.0415256654119293,0.002,0.0417317979770245));
#537=CARTESIAN_POINT('',(-0.0415256654119293,0.002,0.0417317979770245));
#538=CARTESIAN_POINT('',(-0.0415256654119293,0.,0.0417317979770245));
#539=CARTESIAN_POINT('',(-0.0455256654119292,0.,0.0417317979770245));
#540=CARTESIAN_POINT('',(0.0545256654119292,0.004,0.0367317979770246));
#541=CARTESIAN_POINT('',(0.0545256654119292,0.,0.0367317979770246));
#542=CARTESIAN_POINT('',(0.0595256654119292,0.,0.0367317979770245));
#543=CARTESIAN_POINT('',(0.0595256654119292,0.004,0.0367317979770245));
#544=CARTESIAN_POINT('',(0.0595256654119292,0.004,0.0367317979770245));
#545=CARTESIAN_POINT('',(0.0545256654119292,0.004,0.0367317979770246));
#546=CARTESIAN_POINT('',(0.0595256654119292,0.004,0.));
#547=CARTESIAN_POINT('',(0.0595256654119292,0.,0.));
#548=CARTESIAN_POINT('',(0.0595256654119292,0.,-0.0367317979770245));
#549=CARTESIAN_POINT('',(0.0595256654119292,0.004,-0.0367317979770245));
#550=CARTESIAN_POINT('',(0.0595256654119292,0.004,-0.0367317979770245));
#551=CARTESIAN_POINT('',(0.0595256654119292,0.004,0.));
#552=CARTESIAN_POINT('',(0.0545256654119292,0.004,-0.0367317979770246));
#553=CARTESIAN_POINT('',(0.0545256654119292,0.,-0.0367317979770246));
#554=CARTESIAN_POINT('',(0.0545256654119292,0.,-0.0417317979770245));
#555=CARTESIAN_POINT('',(0.0545256654119292,0.004,-0.0417317979770245));
#556=CARTESIAN_POINT('',(0.0545256654119292,0.004,-0.0417317979770245));
#557=CARTESIAN_POINT('',(0.0545256654119292,0.004,-0.0367317979770246));
#558=CARTESIAN_POINT('',(0.,0.004,-0.0417317979770245));
#559=CARTESIAN_POINT('',(0.,0.,-0.0417317979770245));
#560=CARTESIAN_POINT('',(-0.0545256654119292,0.,-0.0417317979770245));
#561=CARTESIAN_POINT('',(-0.0545256654119292,0.004,-0.0417317979770245));
#562=CARTESIAN_POINT('',(-0.0545256654119292,0.004,-0.0417317979770245));
#563=CARTESIAN_POINT('',(0.,0.004,-0.0417317979770245));
#564=CARTESIAN_POINT('',(-0.0545256654119293,0.004,-0.0367317979770246));
#565=CARTESIAN_POINT('',(-0.0545256654119293,0.,-0.0367317979770246));
#566=CARTESIAN_POINT('',(-0.0595256654119293,0.,-0.0367317979770245));
#567=CARTESIAN_POINT('',(-0.0595256654119293,0.004,-0.0367317979770245));
#568=CARTESIAN_POINT('',(-0.0595256654119293,0.004,-0.0367317979770245));
#569=CARTESIAN_POINT('',(-0.0545256654119293,0.004,-0.0367317979770246));
#570=CARTESIAN_POINT('',(-0.0595256654119292,0.004,6.93889390390723E-18));
#571=CARTESIAN_POINT('',(-0.0595256654119292,0.,6.93889390390723E-18));
#572=CARTESIAN_POINT('',(-0.0595256654119292,0.,0.0367317979770246));
#573=CARTESIAN_POINT('',(-0.0595256654119292,0.004,0.0367317979770246));
#574=CARTESIAN_POINT('',(-0.0595256654119292,0.004,0.0367317979770246));
#575=CARTESIAN_POINT('',(-0.0595256654119292,0.004,6.93889390390723E-18));
#576=CARTESIAN_POINT('',(-0.0545256654119292,0.004,0.0367317979770245));
#577=CARTESIAN_POINT('',(-0.0545256654119292,0.,0.0367317979770245));
#578=CARTESIAN_POINT('',(-0.0545256654119292,0.004,0.0367317979770245));
#579=CARTESIAN_POINT('',(0.,0.004,0.0024495));
#580=CARTESIAN_POINT('',(0.,0.004,-0.0392317979770245));
#581=CARTESIAN_POINT('',(0.0015,0.004,-0.0392317979770245));
#582=CARTESIAN_POINT('',(0.,0.,0.0024495));
#583=CARTESIAN_POINT('',(0.,0.,-0.0392317979770245));
#584=CARTESIAN_POINT('',(0.0015,0.,-0.0392317979770245));
#585=CARTESIAN_POINT('',(0.0495256654119292,0.,0.0441812979770245));
#586=CARTESIAN_POINT('',(0.0495256654119292,0.,0.0466307979770245));
#587=CARTESIAN_POINT('',(0.0455256654119292,0.,0.0466307979770245));
#588=CARTESIAN_POINT('',(0.0415256654119293,0.,0.0466307979770245));
#589=CARTESIAN_POINT('',(0.0415256654119293,0.,0.0441812979770245));
#590=CARTESIAN_POINT('',(-0.0415256654119293,0.,0.0441812979770245));
#591=CARTESIAN_POINT('',(-0.0415256654119293,0.,0.0466307979770245));
#592=CARTESIAN_POINT('',(-0.0455256654119292,0.,0.0466307979770245));
#593=CARTESIAN_POINT('',(-0.0495256654119292,0.,0.0466307979770245));
#594=CARTESIAN_POINT('',(-0.0495256654119292,0.,0.0441812979770245));
#595=CARTESIAN_POINT('',(-0.0415256654119293,0.002,0.0441812979770245));
#596=CARTESIAN_POINT('',(-0.0415256654119293,0.002,0.0441812979770245));
#597=CARTESIAN_POINT('',(-0.0415256654119293,0.002,0.0446307979770245));
#598=CARTESIAN_POINT('',(-0.0415256654119293,0.,0.0446307979770245));
#599=CARTESIAN_POINT('',(-0.0495256654119292,0.002,0.0441812979770245));
#600=CARTESIAN_POINT('',(-0.0495256654119292,0.,0.0446307979770245));
#601=CARTESIAN_POINT('',(-0.0495256654119292,0.002,0.0446307979770245));
#602=CARTESIAN_POINT('',(-0.0495256654119292,0.002,0.0441812979770245));
#603=CARTESIAN_POINT('',(0.,0.002,0.0024495));
#604=CARTESIAN_POINT('',(-0.0415256654119293,0.002,0.0446307979770245));
#605=CARTESIAN_POINT('',(0.0495256654119292,0.002,0.0441812979770245));
#606=CARTESIAN_POINT('',(0.0495256654119292,0.002,0.0441812979770245));
#607=CARTESIAN_POINT('',(0.0495256654119292,0.002,0.0446307979770245));
#608=CARTESIAN_POINT('',(0.0495256654119292,0.,0.0446307979770245));
#609=CARTESIAN_POINT('',(0.0415256654119293,0.002,0.0441812979770245));
#610=CARTESIAN_POINT('',(0.0415256654119293,0.,0.0446307979770245));
#611=CARTESIAN_POINT('',(0.0415256654119293,0.002,0.0446307979770245));
#612=CARTESIAN_POINT('',(0.0415256654119293,0.002,0.0441812979770245));
#613=CARTESIAN_POINT('',(0.,0.002,0.0024495));
#614=CARTESIAN_POINT('',(0.,0.002,0.0446307979770245));
#615=CARTESIAN_POINT('',(0.0455256654119292,0.,0.0446307979770245));
#616=CARTESIAN_POINT('',(0.,0.,0.0446307979770245));
#617=CARTESIAN_POINT('',(0.,-0.021,-0.0392317979770245));
#618=MECHANICAL_DESIGN_GEOMETRIC_PRESENTATION_REPRESENTATION('',(#365),
#619);
#619=(
GEOMETRIC_REPRESENTATION_CONTEXT(3)
GLOBAL_UNCERTAINTY_ASSIGNED_CONTEXT((#620))
GLOBAL_UNIT_ASSIGNED_CONTEXT((#623,#622,#621))
REPRESENTATION_CONTEXT('Part 1','TOP_LEVEL_ASSEMBLY_PART')
);
#620=UNCERTAINTY_MEASURE_WITH_UNIT(LENGTH_MEASURE(1.E-8),#623,
'DISTANCE_ACCURACY_VALUE','Maximum Tolerance applied to model');
#621=(
NAMED_UNIT(*)
SI_UNIT($,.STERADIAN.)
SOLID_ANGLE_UNIT()
);
#622=(
NAMED_UNIT(*)
PLANE_ANGLE_UNIT()
SI_UNIT($,.RADIAN.)
);
#623=(
LENGTH_UNIT()
NAMED_UNIT(*)
SI_UNIT($,.METRE.)
);
#624=PRODUCT_DEFINITION_SHAPE('','',#625);
#625=PRODUCT_DEFINITION('','',#627,#626);
#626=PRODUCT_DEFINITION_CONTEXT('',#633,'design');
#627=PRODUCT_DEFINITION_FORMATION_WITH_SPECIFIED_SOURCE('','',#629,
 .NOT_KNOWN.);
#628=PRODUCT_RELATED_PRODUCT_CATEGORY('','',(#629));
#629=PRODUCT('Part 1','Part 1','Part 1',(#631));
#630=PRODUCT_CATEGORY('','');
#631=PRODUCT_CONTEXT('',#633,'mechanical');
#632=APPLICATION_PROTOCOL_DEFINITION('international standard',
'ap242_managed_model_based_3d_engineering',2020,#633);
#633=APPLICATION_CONTEXT('managed model based 3d engineering');
ENDSEC;
END-ISO-10303-21;
